{
	"asset":{
		"generator":"Khronos glTF Blender I/O v5.2.40",
		"version":"2.0"
	},
	"scene":0,
	"scenes":[
		{
			"name":"Scene",
			"nodes":[
				0
			]
		}
	],
	"nodes":[
		{
			"mesh":0,
			"name":"Chandelier_01",
			"rotation":[
				0.70710688829422,
				0,
				0,
				0.7071066498756409
			]
		}
	],
	"materials":[
		{
			"doubleSided":true,
			"name":"basecolor_classic_chandelier_1",
			"normalTexture":{
				"index":0
			},
			"pbrMetallicRoughness":{
				"baseColorTexture":{
					"index":1
				},
				"metallicRoughnessTexture":{
					"index":2
				}
			}
		},
		{
			"doubleSided":true,
			"name":"lamps_classic_chandelier_1",
			"pbrMetallicRoughness":{
				"baseColorFactor":[
					0.800000011920929,
					0.800000011920929,
					0.800000011920929,
					1
				],
				"metallicFactor":0,
				"roughnessFactor":0.3227272629737854
			}
		}
	],
	"meshes":[
		{
			"name":"Line008.000",
			"primitives":[
				{
					"attributes":{
						"POSITION":0,
						"NORMAL":1,
						"TEXCOORD_0":2
					},
					"indices":3,
					"material":0
				},
				{
					"attributes":{
						"POSITION":4,
						"NORMAL":5,
						"TEXCOORD_0":6
					},
					"indices":7,
					"material":1
				}
			]
		}
	],
	"textures":[
		{
			"sampler":0,
			"source":0
		},
		{
			"sampler":0,
			"source":1
		},
		{
			"sampler":0,
			"source":2
		}
	],
	"images":[
		{
			"mimeType":"image/jpeg",
			"name":"Chandelier_01_nor_gl",
			"uri":"textures/Chandelier_01_nor_gl_1k.jpg"
		},
		{
			"mimeType":"image/jpeg",
			"name":"Chandelier_01_diff",
			"uri":"textures/Chandelier_01_diff_1k.jpg"
		},
		{
			"mimeType":"image/jpeg",
			"name":"Chandelier_01_metallic-Chandelier_01_roughness",
			"uri":"textures/Chandelier_01_arm_1k.jpg"
		}
	],
	"accessors":[
		{
			"bufferView":0,
			"componentType":5126,
			"count":3704,
			"max":[
				0.37372153997421265,
				0.4134261906147003,
				0.7982703447341919
			],
			"min":[
				-0.3725597560405731,
				-0.4025634825229645,
				-6.883488822495565e-05
			],
			"type":"VEC3"
		},
		{
			"bufferView":1,
			"componentType":5126,
			"count":3704,
			"type":"VEC3"
		},
		{
			"bufferView":2,
			"componentType":5126,
			"count":3704,
			"type":"VEC2"
		},
		{
			"bufferView":3,
			"componentType":5123,
			"count":8709,
			"type":"SCALAR"
		},
		{
			"bufferView":4,
			"componentType":5126,
			"count":64,
			"max":[
				0.2850441634654999,
				0.32812660932540894,
				0.48515498638153076
			],
			"min":[
				-0.2896735966205597,
				-0.3172522485256195,
				0.4092451333999634
			],
			"type":"VEC3"
		},
		{
			"bufferView":5,
			"componentType":5126,
			"count":64,
			"type":"VEC3"
		},
		{
			"bufferView":6,
			"componentType":5126,
			"count":64,
			"type":"VEC2"
		},
		{
			"bufferView":7,
			"componentType":5123,
			"count":291,
			"type":"SCALAR"
		}
	],
	"bufferViews":[
		{
			"buffer":0,
			"byteLength":44448,
			"byteOffset":0,
			"target":34962
		},
		{
			"buffer":0,
			"byteLength":44448,
			"byteOffset":44448,
			"target":34962
		},
		{
			"buffer":0,
			"byteLength":29632,
			"byteOffset":88896,
			"target":34962
		},
		{
			"buffer":0,
			"byteLength":17418,
			"byteOffset":118528,
			"target":34963
		},
		{
			"buffer":0,
			"byteLength":768,
			"byteOffset":135948,
			"target":34962
		},
		{
			"buffer":0,
			"byteLength":768,
			"byteOffset":136716,
			"target":34962
		},
		{
			"buffer":0,
			"byteLength":512,
			"byteOffset":137484,
			"target":34962
		},
		{
			"buffer":0,
			"byteLength":582,
			"byteOffset":137996,
			"target":34963
		}
	],
	"samplers":[
		{
			"magFilter":9729,
			"minFilter":9987
		}
	],
	"buffers":[
		{
			"byteLength":138580,
			"uri":"Chandelier_01.bin"
		}
	]
}
