{
	"asset":{
		"generator":"Khronos glTF Blender I/O v5.2.40",
		"version":"2.0"
	},
	"scene":0,
	"scenes":[
		{
			"name":"Scene",
			"nodes":[
				0
			]
		}
	],
	"nodes":[
		{
			"mesh":0,
			"name":"industrial_coffee_table",
			"rotation":[
				0.70710688829422,
				0,
				0,
				0.7071066498756409
			]
		}
	],
	"materials":[
		{
			"doubleSided":true,
			"name":"industrial_coffee_table",
			"normalTexture":{
				"index":0
			},
			"pbrMetallicRoughness":{
				"baseColorTexture":{
					"index":1
				},
				"metallicRoughnessTexture":{
					"index":2
				}
			}
		}
	],
	"meshes":[
		{
			"name":"Cylinder.001",
			"primitives":[
				{
					"attributes":{
						"POSITION":0,
						"NORMAL":1,
						"TEXCOORD_0":2
					},
					"indices":3,
					"material":0
				}
			]
		}
	],
	"textures":[
		{
			"sampler":0,
			"source":0
		},
		{
			"sampler":0,
			"source":1
		},
		{
			"sampler":0,
			"source":2
		}
	],
	"images":[
		{
			"mimeType":"image/jpeg",
			"name":"industrial_coffee_table_nor_gl",
			"uri":"textures/industrial_coffee_table_nor_gl_1k.jpg"
		},
		{
			"mimeType":"image/jpeg",
			"name":"industrial_coffee_table_diff",
			"uri":"textures/industrial_coffee_table_diff_1k.jpg"
		},
		{
			"mimeType":"image/jpeg",
			"name":"industrial_coffee_table_metal-industrial_coffee_table_rough",
			"uri":"textures/industrial_coffee_table_arm_1k.jpg"
		}
	],
	"accessors":[
		{
			"bufferView":0,
			"componentType":5126,
			"count":5268,
			"max":[
				0.38994064927101135,
				0.37636423110961914,
				0.0004943548701703548
			],
			"min":[
				-0.3831244707107544,
				-0.3763645887374878,
				-0.637195885181427
			],
			"type":"VEC3"
		},
		{
			"bufferView":1,
			"componentType":5126,
			"count":5268,
			"type":"VEC3"
		},
		{
			"bufferView":2,
			"componentType":5126,
			"count":5268,
			"type":"VEC2"
		},
		{
			"bufferView":3,
			"componentType":5123,
			"count":8997,
			"type":"SCALAR"
		}
	],
	"bufferViews":[
		{
			"buffer":0,
			"byteLength":63216,
			"byteOffset":0,
			"target":34962
		},
		{
			"buffer":0,
			"byteLength":63216,
			"byteOffset":63216,
			"target":34962
		},
		{
			"buffer":0,
			"byteLength":42144,
			"byteOffset":126432,
			"target":34962
		},
		{
			"buffer":0,
			"byteLength":17994,
			"byteOffset":168576,
			"target":34963
		}
	],
	"samplers":[
		{
			"magFilter":9729,
			"minFilter":9987
		}
	],
	"buffers":[
		{
			"byteLength":186572,
			"uri":"industrial_coffee_table.bin"
		}
	]
}
