{
	"asset":{
		"generator":"Khronos glTF Blender I/O v5.2.40",
		"version":"2.0"
	},
	"scene":0,
	"scenes":[
		{
			"name":"Scene",
			"nodes":[
				0
			]
		}
	],
	"nodes":[
		{
			"mesh":0,
			"name":"planter_box_01"
		}
	],
	"materials":[
		{
			"doubleSided":true,
			"name":"planter_box_01",
			"normalTexture":{
				"index":0
			},
			"pbrMetallicRoughness":{
				"baseColorTexture":{
					"index":1
				},
				"metallicRoughnessTexture":{
					"index":2
				}
			}
		}
	],
	"meshes":[
		{
			"name":"Plane.003",
			"primitives":[
				{
					"attributes":{
						"POSITION":0,
						"NORMAL":1,
						"TEXCOORD_0":2
					},
					"indices":3,
					"material":0
				}
			]
		}
	],
	"textures":[
		{
			"sampler":0,
			"source":0
		},
		{
			"sampler":0,
			"source":1
		},
		{
			"sampler":0,
			"source":2
		}
	],
	"images":[
		{
			"mimeType":"image/jpeg",
			"name":"planter_box_01_nor_gl",
			"uri":"textures/planter_box_01_nor_gl_1k.jpg"
		},
		{
			"mimeType":"image/jpeg",
			"name":"planter_box_01_diff",
			"uri":"textures/planter_box_01_diff_1k.jpg"
		},
		{
			"mimeType":"image/jpeg",
			"name":"planter_box_01_metal-planter_box_01_rough",
			"uri":"textures/planter_box_01_arm_1k.jpg"
		}
	],
	"accessors":[
		{
			"bufferView":0,
			"componentType":5126,
			"count":2989,
			"max":[
				0.45619305968284607,
				0.42513713240623474,
				0.20666839182376862
			],
			"min":[
				-0.4570132791996002,
				-0.0003427031042519957,
				-0.20743227005004883
			],
			"type":"VEC3"
		},
		{
			"bufferView":1,
			"componentType":5126,
			"count":2989,
			"type":"VEC3"
		},
		{
			"bufferView":2,
			"componentType":5126,
			"count":2989,
			"type":"VEC2"
		},
		{
			"bufferView":3,
			"componentType":5123,
			"count":9000,
			"type":"SCALAR"
		}
	],
	"bufferViews":[
		{
			"buffer":0,
			"byteLength":35868,
			"byteOffset":0,
			"target":34962
		},
		{
			"buffer":0,
			"byteLength":35868,
			"byteOffset":35868,
			"target":34962
		},
		{
			"buffer":0,
			"byteLength":23912,
			"byteOffset":71736,
			"target":34962
		},
		{
			"buffer":0,
			"byteLength":18000,
			"byteOffset":95648,
			"target":34963
		}
	],
	"samplers":[
		{
			"magFilter":9729,
			"minFilter":9987
		}
	],
	"buffers":[
		{
			"byteLength":113648,
			"uri":"planter_box_01.bin"
		}
	]
}
