{
	"asset":{
		"generator":"Khronos glTF Blender I/O v5.2.40",
		"version":"2.0"
	},
	"scene":0,
	"scenes":[
		{
			"name":"Scene",
			"nodes":[
				0
			]
		}
	],
	"nodes":[
		{
			"mesh":0,
			"name":"ceramic_vase_02"
		}
	],
	"materials":[
		{
			"doubleSided":true,
			"name":"ceramic_vase_02",
			"normalTexture":{
				"index":0
			},
			"pbrMetallicRoughness":{
				"baseColorTexture":{
					"index":1
				},
				"metallicFactor":0,
				"metallicRoughnessTexture":{
					"index":2
				}
			}
		}
	],
	"meshes":[
		{
			"name":"Cylinder.003",
			"primitives":[
				{
					"attributes":{
						"POSITION":0,
						"NORMAL":1,
						"TEXCOORD_0":2
					},
					"indices":3,
					"material":0
				}
			]
		}
	],
	"textures":[
		{
			"sampler":0,
			"source":0
		},
		{
			"sampler":0,
			"source":1
		},
		{
			"sampler":0,
			"source":2
		}
	],
	"images":[
		{
			"mimeType":"image/jpeg",
			"name":"ceramic_vase_02_nor_gl",
			"uri":"textures/ceramic_vase_02_nor_gl_1k.jpg"
		},
		{
			"mimeType":"image/jpeg",
			"name":"ceramic_vase_02_diff",
			"uri":"textures/ceramic_vase_02_diff_1k.jpg"
		},
		{
			"mimeType":"image/jpeg",
			"name":"ceramic_vase_02_rough",
			"uri":"textures/ceramic_vase_02_rough_1k.jpg"
		}
	],
	"accessors":[
		{
			"bufferView":0,
			"componentType":5126,
			"count":2830,
			"max":[
				0.10926272720098495,
				0.31028252840042114,
				0.10950281471014023
			],
			"min":[
				-0.109221912920475,
				0.0009397152462042868,
				-0.10922981798648834
			],
			"type":"VEC3"
		},
		{
			"bufferView":1,
			"componentType":5126,
			"count":2830,
			"type":"VEC3"
		},
		{
			"bufferView":2,
			"componentType":5126,
			"count":2830,
			"type":"VEC2"
		},
		{
			"bufferView":3,
			"componentType":5123,
			"count":9000,
			"type":"SCALAR"
		}
	],
	"bufferViews":[
		{
			"buffer":0,
			"byteLength":33960,
			"byteOffset":0,
			"target":34962
		},
		{
			"buffer":0,
			"byteLength":33960,
			"byteOffset":33960,
			"target":34962
		},
		{
			"buffer":0,
			"byteLength":22640,
			"byteOffset":67920,
			"target":34962
		},
		{
			"buffer":0,
			"byteLength":18000,
			"byteOffset":90560,
			"target":34963
		}
	],
	"samplers":[
		{
			"magFilter":9729,
			"minFilter":9987
		}
	],
	"buffers":[
		{
			"byteLength":108560,
			"uri":"ceramic_vase_02.bin"
		}
	]
}
