{
	"asset":{
		"generator":"Khronos glTF Blender I/O v5.2.40",
		"version":"2.0"
	},
	"scene":0,
	"scenes":[
		{
			"name":"Scene",
			"nodes":[
				0
			]
		}
	],
	"nodes":[
		{
			"mesh":0,
			"name":"CoffeeTable_01"
		}
	],
	"materials":[
		{
			"doubleSided":true,
			"name":"CoffeeTable_01",
			"normalTexture":{
				"index":0
			},
			"pbrMetallicRoughness":{
				"baseColorTexture":{
					"index":1
				},
				"metallicRoughnessTexture":{
					"index":2
				}
			}
		}
	],
	"meshes":[
		{
			"name":"Mesh",
			"primitives":[
				{
					"attributes":{
						"POSITION":0,
						"NORMAL":1,
						"TEXCOORD_0":2,
						"COLOR_0":3,
						"COLOR_1":4
					},
					"indices":5,
					"material":0
				}
			]
		}
	],
	"textures":[
		{
			"sampler":0,
			"source":0
		},
		{
			"sampler":0,
			"source":1
		},
		{
			"sampler":0,
			"source":2
		}
	],
	"images":[
		{
			"mimeType":"image/jpeg",
			"name":"CoffeeTable_01_nor_gl",
			"uri":"textures/CoffeeTable_01_nor_gl_1k.jpg"
		},
		{
			"mimeType":"image/jpeg",
			"name":"CoffeeTable_01_diff",
			"uri":"textures/CoffeeTable_01_diff_1k.jpg"
		},
		{
			"mimeType":"image/jpeg",
			"name":"CoffeeTable_01_metallic-CoffeeTable_01_roughness",
			"uri":"textures/CoffeeTable_01_arm_1k.jpg"
		}
	],
	"accessors":[
		{
			"bufferView":0,
			"componentType":5126,
			"count":2546,
			"max":[
				0.7705588340759277,
				0.525104820728302,
				0.48697471618652344
			],
			"min":[
				-0.7705547213554382,
				0.0017101216362789273,
				-0.4869747459888458
			],
			"type":"VEC3"
		},
		{
			"bufferView":1,
			"componentType":5126,
			"count":2546,
			"type":"VEC3"
		},
		{
			"bufferView":2,
			"componentType":5126,
			"count":2546,
			"type":"VEC2"
		},
		{
			"bufferView":3,
			"componentType":5126,
			"count":2546,
			"type":"VEC3"
		},
		{
			"bufferView":4,
			"componentType":5123,
			"count":2546,
			"normalized":true,
			"type":"VEC4"
		},
		{
			"bufferView":5,
			"componentType":5123,
			"count":9000,
			"type":"SCALAR"
		}
	],
	"bufferViews":[
		{
			"buffer":0,
			"byteLength":30552,
			"byteOffset":0,
			"target":34962
		},
		{
			"buffer":0,
			"byteLength":30552,
			"byteOffset":30552,
			"target":34962
		},
		{
			"buffer":0,
			"byteLength":20368,
			"byteOffset":61104,
			"target":34962
		},
		{
			"buffer":0,
			"byteLength":30552,
			"byteOffset":81472,
			"target":34962
		},
		{
			"buffer":0,
			"byteLength":20368,
			"byteOffset":112024,
			"target":34962
		},
		{
			"buffer":0,
			"byteLength":18000,
			"byteOffset":132392,
			"target":34963
		}
	],
	"samplers":[
		{
			"magFilter":9729,
			"minFilter":9987
		}
	],
	"buffers":[
		{
			"byteLength":150392,
			"uri":"CoffeeTable_01.bin"
		}
	]
}
