{
	"asset":{
		"generator":"Khronos glTF Blender I/O v5.2.40",
		"version":"2.0"
	},
	"scene":0,
	"scenes":[
		{
			"name":"Scene",
			"nodes":[
				0
			]
		}
	],
	"nodes":[
		{
			"mesh":0,
			"name":"dining_chair_02"
		}
	],
	"materials":[
		{
			"doubleSided":true,
			"name":"dining_chair_02",
			"normalTexture":{
				"index":0
			},
			"pbrMetallicRoughness":{
				"baseColorTexture":{
					"index":1
				},
				"metallicRoughnessTexture":{
					"index":2
				}
			}
		}
	],
	"meshes":[
		{
			"name":"Cube.054",
			"primitives":[
				{
					"attributes":{
						"POSITION":0,
						"NORMAL":1,
						"TEXCOORD_0":2
					},
					"indices":3,
					"material":0
				}
			]
		}
	],
	"textures":[
		{
			"sampler":0,
			"source":0
		},
		{
			"sampler":0,
			"source":1
		},
		{
			"sampler":0,
			"source":2
		}
	],
	"images":[
		{
			"mimeType":"image/jpeg",
			"name":"dining_chair_02_nor_gl.png",
			"uri":"textures/dining_chair_02_nor_gl_1k.jpg"
		},
		{
			"mimeType":"image/jpeg",
			"name":"dining_chair_02_diff.png",
			"uri":"textures/dining_chair_02_diff_1k.jpg"
		},
		{
			"mimeType":"image/jpeg",
			"name":"dining_chair_02_metal-dining_chair_02_rough.png",
			"uri":"textures/dining_chair_02_arm_1k.jpg"
		}
	],
	"accessors":[
		{
			"bufferView":0,
			"componentType":5126,
			"count":2247,
			"max":[
				0.21661946177482605,
				0.9748549461364746,
				0.24548456072807312
			],
			"min":[
				-0.21661949157714844,
				0.0016506621614098549,
				-0.33133405447006226
			],
			"type":"VEC3"
		},
		{
			"bufferView":1,
			"componentType":5126,
			"count":2247,
			"type":"VEC3"
		},
		{
			"bufferView":2,
			"componentType":5126,
			"count":2247,
			"type":"VEC2"
		},
		{
			"bufferView":3,
			"componentType":5123,
			"count":8994,
			"type":"SCALAR"
		}
	],
	"bufferViews":[
		{
			"buffer":0,
			"byteLength":26964,
			"byteOffset":0,
			"target":34962
		},
		{
			"buffer":0,
			"byteLength":26964,
			"byteOffset":26964,
			"target":34962
		},
		{
			"buffer":0,
			"byteLength":17976,
			"byteOffset":53928,
			"target":34962
		},
		{
			"buffer":0,
			"byteLength":17988,
			"byteOffset":71904,
			"target":34963
		}
	],
	"samplers":[
		{
			"magFilter":9729,
			"minFilter":9987
		}
	],
	"buffers":[
		{
			"byteLength":89892,
			"uri":"dining_chair_02.bin"
		}
	]
}
