{
	"asset":{
		"generator":"Khronos glTF Blender I/O v5.2.40",
		"version":"2.0"
	},
	"scene":0,
	"scenes":[
		{
			"name":"Scene",
			"nodes":[
				0
			]
		}
	],
	"nodes":[
		{
			"mesh":0,
			"name":"antique_ceramic_vase_01"
		}
	],
	"materials":[
		{
			"doubleSided":true,
			"name":"antique_ceramic_vase_01",
			"normalTexture":{
				"index":0
			},
			"pbrMetallicRoughness":{
				"baseColorTexture":{
					"index":1
				},
				"metallicRoughnessTexture":{
					"index":2
				}
			}
		}
	],
	"meshes":[
		{
			"name":"Cylinder.006",
			"primitives":[
				{
					"attributes":{
						"POSITION":0,
						"NORMAL":1,
						"TEXCOORD_0":2
					},
					"indices":3,
					"material":0
				}
			]
		}
	],
	"textures":[
		{
			"sampler":0,
			"source":0
		},
		{
			"sampler":0,
			"source":1
		},
		{
			"sampler":0,
			"source":2
		}
	],
	"images":[
		{
			"mimeType":"image/jpeg",
			"name":"antique_ceramic_vase_01_nor_gl",
			"uri":"textures/antique_ceramic_vase_01_nor_gl_1k.jpg"
		},
		{
			"mimeType":"image/jpeg",
			"name":"antique_ceramic_vase_01_diff",
			"uri":"textures/antique_ceramic_vase_01_diff_1k.jpg"
		},
		{
			"mimeType":"image/jpeg",
			"name":"antique_ceramic_vase_01_metal-antique_ceramic_vase_01_rough",
			"uri":"textures/antique_ceramic_vase_01_arm_1k.jpg"
		}
	],
	"accessors":[
		{
			"bufferView":0,
			"componentType":5126,
			"count":1748,
			"max":[
				0.12771283090114594,
				0.4395630955696106,
				0.12771283090114594
			],
			"min":[
				-0.12771284580230713,
				-0.00013994004984851927,
				-0.12789607048034668
			],
			"type":"VEC3"
		},
		{
			"bufferView":1,
			"componentType":5126,
			"count":1748,
			"type":"VEC3"
		},
		{
			"bufferView":2,
			"componentType":5126,
			"count":1748,
			"type":"VEC2"
		},
		{
			"bufferView":3,
			"componentType":5123,
			"count":8997,
			"type":"SCALAR"
		}
	],
	"bufferViews":[
		{
			"buffer":0,
			"byteLength":20976,
			"byteOffset":0,
			"target":34962
		},
		{
			"buffer":0,
			"byteLength":20976,
			"byteOffset":20976,
			"target":34962
		},
		{
			"buffer":0,
			"byteLength":13984,
			"byteOffset":41952,
			"target":34962
		},
		{
			"buffer":0,
			"byteLength":17994,
			"byteOffset":55936,
			"target":34963
		}
	],
	"samplers":[
		{
			"magFilter":9729,
			"minFilter":9987
		}
	],
	"buffers":[
		{
			"byteLength":73932,
			"uri":"antique_ceramic_vase_01.bin"
		}
	]
}
