{
	"asset":{
		"generator":"Khronos glTF Blender I/O v5.2.40",
		"version":"2.0"
	},
	"scene":0,
	"scenes":[
		{
			"name":"Scene",
			"nodes":[
				0,
				1,
				2,
				3,
				4,
				5,
				6,
				7,
				8,
				9
			]
		}
	],
	"nodes":[
		{
			"mesh":0,
			"name":"tea_set_01_cup_small_01",
			"translation":[
				0.15337243676185608,
				0,
				0.061346426606178284
			]
		},
		{
			"mesh":1,
			"name":"tea_set_01_cup_small_02",
			"translation":[
				0.40337246656417847,
				0,
				0.06134641170501709
			]
		},
		{
			"mesh":2,
			"name":"tea_set_01_plate_large_circular_03",
			"translation":[
				-0.09662759304046631,
				0,
				-0.18865357339382172
			]
		},
		{
			"mesh":3,
			"name":"tea_set_01_plate_large_square_01",
			"translation":[
				-0.3466275632381439,
				0,
				-0.18865355849266052
			]
		},
		{
			"mesh":4,
			"name":"tea_set_01_saucer_circular_03",
			"translation":[
				0.4033724367618561,
				0,
				-0.1886536180973053
			]
		},
		{
			"mesh":5,
			"name":"tea_set_01_saucer_circular_04",
			"translation":[
				0.15337242186069489,
				0,
				-0.1886535882949829
			]
		},
		{
			"mesh":6,
			"name":"tea_set_01_sugar_cup_01",
			"translation":[
				-0.09662757068872452,
				0,
				0.061346426606178284
			]
		},
		{
			"mesh":7,
			"name":"tea_set_01_sugar_cup_01_lid",
			"translation":[
				-0.09662757068872452,
				0.0003039799630641937,
				0.061346426606178284
			]
		},
		{
			"mesh":8,
			"name":"tea_set_01_teapot_01",
			"translation":[
				-0.3466275632381439,
				0,
				0.06134644150733948
			]
		},
		{
			"mesh":9,
			"name":"tea_set_01_teapot_01_lid",
			"translation":[
				-0.3466275632381439,
				0.0015413056826218963,
				0.06134644150733948
			]
		}
	],
	"materials":[
		{
			"doubleSided":true,
			"name":"tea_set_01",
			"normalTexture":{
				"index":0
			},
			"pbrMetallicRoughness":{
				"baseColorTexture":{
					"index":1
				},
				"metallicRoughnessTexture":{
					"index":2
				}
			}
		}
	],
	"meshes":[
		{
			"name":"Circle.012",
			"primitives":[
				{
					"attributes":{
						"POSITION":0,
						"NORMAL":1,
						"TEXCOORD_0":2
					},
					"indices":3,
					"material":0
				}
			]
		},
		{
			"name":"Circle.003",
			"primitives":[
				{
					"attributes":{
						"POSITION":4,
						"NORMAL":5,
						"TEXCOORD_0":6
					},
					"indices":7,
					"material":0
				}
			]
		},
		{
			"name":"Circle.023",
			"primitives":[
				{
					"attributes":{
						"POSITION":8,
						"NORMAL":9,
						"TEXCOORD_0":10
					},
					"indices":11,
					"material":0
				}
			]
		},
		{
			"name":"Circle.009",
			"primitives":[
				{
					"attributes":{
						"POSITION":12,
						"NORMAL":13,
						"TEXCOORD_0":14
					},
					"indices":15,
					"material":0
				}
			]
		},
		{
			"name":"Circle.022",
			"primitives":[
				{
					"attributes":{
						"POSITION":16,
						"NORMAL":17,
						"TEXCOORD_0":18
					},
					"indices":19,
					"material":0
				}
			]
		},
		{
			"name":"Circle.002",
			"primitives":[
				{
					"attributes":{
						"POSITION":20,
						"NORMAL":21,
						"TEXCOORD_0":22
					},
					"indices":23,
					"material":0
				}
			]
		},
		{
			"name":"Circle.027",
			"primitives":[
				{
					"attributes":{
						"POSITION":24,
						"NORMAL":25,
						"TEXCOORD_0":26
					},
					"indices":27,
					"material":0
				}
			]
		},
		{
			"name":"Circle.004",
			"primitives":[
				{
					"attributes":{
						"POSITION":28,
						"NORMAL":29,
						"TEXCOORD_0":30
					},
					"indices":31,
					"material":0
				}
			]
		},
		{
			"name":"Circle.001",
			"primitives":[
				{
					"attributes":{
						"POSITION":32,
						"NORMAL":33,
						"TEXCOORD_0":34
					},
					"indices":35,
					"material":0
				}
			]
		},
		{
			"name":"Circle.005",
			"primitives":[
				{
					"attributes":{
						"POSITION":36,
						"NORMAL":37,
						"TEXCOORD_0":38
					},
					"indices":39,
					"material":0
				}
			]
		}
	],
	"textures":[
		{
			"sampler":0,
			"source":0
		},
		{
			"sampler":0,
			"source":1
		},
		{
			"sampler":0,
			"source":2
		}
	],
	"images":[
		{
			"mimeType":"image/jpeg",
			"name":"tea_set_01_nor_gl",
			"uri":"textures/tea_set_01_nor_gl_1k.jpg"
		},
		{
			"mimeType":"image/jpeg",
			"name":"tea_set_01_diff",
			"uri":"textures/tea_set_01_diff_1k.jpg"
		},
		{
			"mimeType":"image/jpeg",
			"name":"tea_set_01_metal-tea_set_01_rough",
			"uri":"textures/tea_set_01_arm_1k.jpg"
		}
	],
	"accessors":[
		{
			"bufferView":0,
			"componentType":5126,
			"count":1728,
			"max":[
				0.05345918610692024,
				0.0697360709309578,
				0.053459182381629944
			],
			"min":[
				-0.05345918610692024,
				0.002385602565482259,
				-0.07950614392757416
			],
			"type":"VEC3"
		},
		{
			"bufferView":1,
			"componentType":5126,
			"count":1728,
			"type":"VEC3"
		},
		{
			"bufferView":2,
			"componentType":5126,
			"count":1728,
			"type":"VEC2"
		},
		{
			"bufferView":3,
			"componentType":5123,
			"count":9000,
			"type":"SCALAR"
		},
		{
			"bufferView":4,
			"componentType":5126,
			"count":1728,
			"max":[
				0.05345918610692024,
				0.0697360709309578,
				0.053459182381629944
			],
			"min":[
				-0.05345918610692024,
				0.002385602565482259,
				-0.07950614392757416
			],
			"type":"VEC3"
		},
		{
			"bufferView":5,
			"componentType":5126,
			"count":1728,
			"type":"VEC3"
		},
		{
			"bufferView":6,
			"componentType":5126,
			"count":1728,
			"type":"VEC2"
		},
		{
			"bufferView":7,
			"componentType":5123,
			"count":9000,
			"type":"SCALAR"
		},
		{
			"bufferView":8,
			"componentType":5126,
			"count":1550,
			"max":[
				0.09375955909490585,
				0.016888633370399475,
				0.09375956654548645
			],
			"min":[
				-0.09375956654548645,
				-0.0008325648959726095,
				-0.09375958144664764
			],
			"type":"VEC3"
		},
		{
			"bufferView":9,
			"componentType":5126,
			"count":1550,
			"type":"VEC3"
		},
		{
			"bufferView":10,
			"componentType":5126,
			"count":1550,
			"type":"VEC2"
		},
		{
			"bufferView":11,
			"componentType":5123,
			"count":9000,
			"type":"SCALAR"
		},
		{
			"bufferView":12,
			"componentType":5126,
			"count":1550,
			"max":[
				0.09400609880685806,
				0.01688862405717373,
				0.09495928883552551
			],
			"min":[
				-0.09400609880685806,
				-0.0008325735689140856,
				-0.09495928883552551
			],
			"type":"VEC3"
		},
		{
			"bufferView":13,
			"componentType":5126,
			"count":1550,
			"type":"VEC3"
		},
		{
			"bufferView":14,
			"componentType":5126,
			"count":1550,
			"type":"VEC2"
		},
		{
			"bufferView":15,
			"componentType":5123,
			"count":9000,
			"type":"SCALAR"
		},
		{
			"bufferView":16,
			"componentType":5126,
			"count":1490,
			"max":[
				0.07447617501020432,
				0.015210483223199844,
				0.0744762048125267
			],
			"min":[
				-0.0744761973619461,
				-0.0007006535306572914,
				-0.0744762048125267
			],
			"type":"VEC3"
		},
		{
			"bufferView":17,
			"componentType":5126,
			"count":1490,
			"type":"VEC3"
		},
		{
			"bufferView":18,
			"componentType":5126,
			"count":1490,
			"type":"VEC2"
		},
		{
			"bufferView":19,
			"componentType":5123,
			"count":8640,
			"type":"SCALAR"
		},
		{
			"bufferView":20,
			"componentType":5126,
			"count":1490,
			"max":[
				0.07447617501020432,
				0.015210483223199844,
				0.0744762048125267
			],
			"min":[
				-0.0744761973619461,
				-0.0007006535306572914,
				-0.0744762048125267
			],
			"type":"VEC3"
		},
		{
			"bufferView":21,
			"componentType":5126,
			"count":1490,
			"type":"VEC3"
		},
		{
			"bufferView":22,
			"componentType":5126,
			"count":1490,
			"type":"VEC2"
		},
		{
			"bufferView":23,
			"componentType":5123,
			"count":8640,
			"type":"SCALAR"
		},
		{
			"bufferView":24,
			"componentType":5126,
			"count":1783,
			"max":[
				0.050895340740680695,
				0.06987549364566803,
				0.07091706991195679
			],
			"min":[
				-0.0508953332901001,
				0.002382099162787199,
				-0.07091706991195679
			],
			"type":"VEC3"
		},
		{
			"bufferView":25,
			"componentType":5126,
			"count":1783,
			"type":"VEC3"
		},
		{
			"bufferView":26,
			"componentType":5126,
			"count":1783,
			"type":"VEC2"
		},
		{
			"bufferView":27,
			"componentType":5123,
			"count":9000,
			"type":"SCALAR"
		},
		{
			"bufferView":28,
			"componentType":5126,
			"count":1385,
			"max":[
				0.048947423696517944,
				0.10231786966323853,
				0.04894748330116272
			],
			"min":[
				-0.04894746094942093,
				0.06854259967803955,
				-0.04894740879535675
			],
			"type":"VEC3"
		},
		{
			"bufferView":29,
			"componentType":5126,
			"count":1385,
			"type":"VEC3"
		},
		{
			"bufferView":30,
			"componentType":5126,
			"count":1385,
			"type":"VEC2"
		},
		{
			"bufferView":31,
			"componentType":5123,
			"count":7680,
			"type":"SCALAR"
		},
		{
			"bufferView":32,
			"componentType":5126,
			"count":1801,
			"max":[
				0.08235543966293335,
				0.12180179357528687,
				0.1390981674194336
			],
			"min":[
				-0.08235545456409454,
				-0.00012613413855433464,
				-0.128876730799675
			],
			"type":"VEC3"
		},
		{
			"bufferView":33,
			"componentType":5126,
			"count":1801,
			"type":"VEC3"
		},
		{
			"bufferView":34,
			"componentType":5126,
			"count":1801,
			"type":"VEC2"
		},
		{
			"bufferView":35,
			"componentType":5123,
			"count":8997,
			"type":"SCALAR"
		},
		{
			"bufferView":36,
			"componentType":5126,
			"count":1607,
			"max":[
				0.06268994510173798,
				0.16261917352676392,
				0.06098145246505737
			],
			"min":[
				-0.06268994510173798,
				0.11304512619972229,
				-0.06439840793609619
			],
			"type":"VEC3"
		},
		{
			"bufferView":37,
			"componentType":5126,
			"count":1607,
			"type":"VEC3"
		},
		{
			"bufferView":38,
			"componentType":5126,
			"count":1607,
			"type":"VEC2"
		},
		{
			"bufferView":39,
			"componentType":5123,
			"count":9000,
			"type":"SCALAR"
		}
	],
	"bufferViews":[
		{
			"buffer":0,
			"byteLength":20736,
			"byteOffset":0,
			"target":34962
		},
		{
			"buffer":0,
			"byteLength":20736,
			"byteOffset":20736,
			"target":34962
		},
		{
			"buffer":0,
			"byteLength":13824,
			"byteOffset":41472,
			"target":34962
		},
		{
			"buffer":0,
			"byteLength":18000,
			"byteOffset":55296,
			"target":34963
		},
		{
			"buffer":0,
			"byteLength":20736,
			"byteOffset":73296,
			"target":34962
		},
		{
			"buffer":0,
			"byteLength":20736,
			"byteOffset":94032,
			"target":34962
		},
		{
			"buffer":0,
			"byteLength":13824,
			"byteOffset":114768,
			"target":34962
		},
		{
			"buffer":0,
			"byteLength":18000,
			"byteOffset":128592,
			"target":34963
		},
		{
			"buffer":0,
			"byteLength":18600,
			"byteOffset":146592,
			"target":34962
		},
		{
			"buffer":0,
			"byteLength":18600,
			"byteOffset":165192,
			"target":34962
		},
		{
			"buffer":0,
			"byteLength":12400,
			"byteOffset":183792,
			"target":34962
		},
		{
			"buffer":0,
			"byteLength":18000,
			"byteOffset":196192,
			"target":34963
		},
		{
			"buffer":0,
			"byteLength":18600,
			"byteOffset":214192,
			"target":34962
		},
		{
			"buffer":0,
			"byteLength":18600,
			"byteOffset":232792,
			"target":34962
		},
		{
			"buffer":0,
			"byteLength":12400,
			"byteOffset":251392,
			"target":34962
		},
		{
			"buffer":0,
			"byteLength":18000,
			"byteOffset":263792,
			"target":34963
		},
		{
			"buffer":0,
			"byteLength":17880,
			"byteOffset":281792,
			"target":34962
		},
		{
			"buffer":0,
			"byteLength":17880,
			"byteOffset":299672,
			"target":34962
		},
		{
			"buffer":0,
			"byteLength":11920,
			"byteOffset":317552,
			"target":34962
		},
		{
			"buffer":0,
			"byteLength":17280,
			"byteOffset":329472,
			"target":34963
		},
		{
			"buffer":0,
			"byteLength":17880,
			"byteOffset":346752,
			"target":34962
		},
		{
			"buffer":0,
			"byteLength":17880,
			"byteOffset":364632,
			"target":34962
		},
		{
			"buffer":0,
			"byteLength":11920,
			"byteOffset":382512,
			"target":34962
		},
		{
			"buffer":0,
			"byteLength":17280,
			"byteOffset":394432,
			"target":34963
		},
		{
			"buffer":0,
			"byteLength":21396,
			"byteOffset":411712,
			"target":34962
		},
		{
			"buffer":0,
			"byteLength":21396,
			"byteOffset":433108,
			"target":34962
		},
		{
			"buffer":0,
			"byteLength":14264,
			"byteOffset":454504,
			"target":34962
		},
		{
			"buffer":0,
			"byteLength":18000,
			"byteOffset":468768,
			"target":34963
		},
		{
			"buffer":0,
			"byteLength":16620,
			"byteOffset":486768,
			"target":34962
		},
		{
			"buffer":0,
			"byteLength":16620,
			"byteOffset":503388,
			"target":34962
		},
		{
			"buffer":0,
			"byteLength":11080,
			"byteOffset":520008,
			"target":34962
		},
		{
			"buffer":0,
			"byteLength":15360,
			"byteOffset":531088,
			"target":34963
		},
		{
			"buffer":0,
			"byteLength":21612,
			"byteOffset":546448,
			"target":34962
		},
		{
			"buffer":0,
			"byteLength":21612,
			"byteOffset":568060,
			"target":34962
		},
		{
			"buffer":0,
			"byteLength":14408,
			"byteOffset":589672,
			"target":34962
		},
		{
			"buffer":0,
			"byteLength":17994,
			"byteOffset":604080,
			"target":34963
		},
		{
			"buffer":0,
			"byteLength":19284,
			"byteOffset":622076,
			"target":34962
		},
		{
			"buffer":0,
			"byteLength":19284,
			"byteOffset":641360,
			"target":34962
		},
		{
			"buffer":0,
			"byteLength":12856,
			"byteOffset":660644,
			"target":34962
		},
		{
			"buffer":0,
			"byteLength":18000,
			"byteOffset":673500,
			"target":34963
		}
	],
	"samplers":[
		{
			"magFilter":9729,
			"minFilter":9987
		}
	],
	"buffers":[
		{
			"byteLength":691500,
			"uri":"tea_set_01.bin"
		}
	]
}
