{
	"asset":{
		"generator":"Khronos glTF Blender I/O v5.2.40",
		"version":"2.0"
	},
	"scene":0,
	"scenes":[
		{
			"name":"Scene",
			"nodes":[
				0
			]
		}
	],
	"nodes":[
		{
			"mesh":0,
			"name":"sofa_03"
		}
	],
	"materials":[
		{
			"doubleSided":true,
			"name":"sofa_03",
			"normalTexture":{
				"index":0
			},
			"pbrMetallicRoughness":{
				"baseColorTexture":{
					"index":1
				},
				"metallicFactor":0,
				"metallicRoughnessTexture":{
					"index":2
				}
			}
		},
		{
			"alphaMode":"BLEND",
			"doubleSided":true,
			"name":"sofa_03_fringe",
			"normalTexture":{
				"index":3
			},
			"pbrMetallicRoughness":{
				"baseColorTexture":{
					"index":4
				},
				"metallicFactor":0,
				"metallicRoughnessTexture":{
					"index":5
				}
			}
		}
	],
	"meshes":[
		{
			"name":"Mesh.009",
			"primitives":[
				{
					"attributes":{
						"POSITION":0,
						"NORMAL":1,
						"TEXCOORD_0":2
					},
					"indices":3,
					"material":0
				},
				{
					"attributes":{
						"POSITION":4,
						"NORMAL":5,
						"TEXCOORD_0":6
					},
					"indices":7,
					"material":1
				}
			]
		}
	],
	"textures":[
		{
			"sampler":0,
			"source":0
		},
		{
			"sampler":0,
			"source":1
		},
		{
			"sampler":0,
			"source":2
		},
		{
			"sampler":0,
			"source":0
		},
		{
			"sampler":0,
			"source":3
		},
		{
			"sampler":0,
			"source":2
		}
	],
	"images":[
		{
			"mimeType":"image/jpeg",
			"name":"sofa_03_nor_gl",
			"uri":"textures/sofa_03_nor_gl_1k.jpg"
		},
		{
			"mimeType":"image/jpeg",
			"name":"sofa_03_diff.png",
			"uri":"textures/sofa_03_diff_1k.jpg"
		},
		{
			"mimeType":"image/jpeg",
			"name":"sofa_03_rough.png",
			"uri":"textures/sofa_03_rough_1k.jpg"
		},
		{
			"mimeType":"image/png",
			"name":"sofa_03_diff.png",
			"uri":"textures/sofa_03_diff_1k.jpg"
		}
	],
	"accessors":[
		{
			"bufferView":0,
			"componentType":5126,
			"count":1812,
			"max":[
				1.3636293411254883,
				1.1189719438552856,
				0.45996996760368347
			],
			"min":[
				-1.3636293411254883,
				-0.0008858170476742089,
				-0.4643484652042389
			],
			"type":"VEC3"
		},
		{
			"bufferView":1,
			"componentType":5126,
			"count":1812,
			"type":"VEC3"
		},
		{
			"bufferView":2,
			"componentType":5126,
			"count":1812,
			"type":"VEC2"
		},
		{
			"bufferView":3,
			"componentType":5123,
			"count":6870,
			"type":"SCALAR"
		},
		{
			"bufferView":4,
			"componentType":5126,
			"count":922,
			"max":[
				1.1109504699707031,
				1.032791256904602,
				0.2057821899652481
			],
			"min":[
				-1.1109505891799927,
				0.4996996223926544,
				-0.3475067615509033
			],
			"type":"VEC3"
		},
		{
			"bufferView":5,
			"componentType":5126,
			"count":922,
			"type":"VEC3"
		},
		{
			"bufferView":6,
			"componentType":5126,
			"count":922,
			"type":"VEC2"
		},
		{
			"bufferView":7,
			"componentType":5123,
			"count":2130,
			"type":"SCALAR"
		}
	],
	"bufferViews":[
		{
			"buffer":0,
			"byteLength":21744,
			"byteOffset":0,
			"target":34962
		},
		{
			"buffer":0,
			"byteLength":21744,
			"byteOffset":21744,
			"target":34962
		},
		{
			"buffer":0,
			"byteLength":14496,
			"byteOffset":43488,
			"target":34962
		},
		{
			"buffer":0,
			"byteLength":13740,
			"byteOffset":57984,
			"target":34963
		},
		{
			"buffer":0,
			"byteLength":11064,
			"byteOffset":71724,
			"target":34962
		},
		{
			"buffer":0,
			"byteLength":11064,
			"byteOffset":82788,
			"target":34962
		},
		{
			"buffer":0,
			"byteLength":7376,
			"byteOffset":93852,
			"target":34962
		},
		{
			"buffer":0,
			"byteLength":4260,
			"byteOffset":101228,
			"target":34963
		}
	],
	"samplers":[
		{
			"magFilter":9729,
			"minFilter":9987
		}
	],
	"buffers":[
		{
			"byteLength":105488,
			"uri":"sofa_03.bin"
		}
	]
}
