{
	"asset":{
		"generator":"Khronos glTF Blender I/O v5.2.40",
		"version":"2.0"
	},
	"scene":0,
	"scenes":[
		{
			"name":"Scene",
			"nodes":[
				0
			]
		}
	],
	"nodes":[
		{
			"mesh":0,
			"name":"caged_hanging_light"
		}
	],
	"materials":[
		{
			"doubleSided":true,
			"emissiveTexture":{
				"index":0
			},
			"name":"caged_hanging_light",
			"normalTexture":{
				"index":1
			},
			"pbrMetallicRoughness":{
				"baseColorTexture":{
					"index":2
				},
				"metallicRoughnessTexture":{
					"index":3
				}
			}
		}
	],
	"meshes":[
		{
			"name":"Plane.019",
			"primitives":[
				{
					"attributes":{
						"POSITION":0,
						"NORMAL":1,
						"TEXCOORD_0":2
					},
					"indices":3,
					"material":0
				}
			]
		}
	],
	"textures":[
		{
			"sampler":0,
			"source":0
		},
		{
			"sampler":0,
			"source":1
		},
		{
			"sampler":0,
			"source":2
		},
		{
			"sampler":0,
			"source":3
		}
	],
	"images":[
		{
			"mimeType":"image/jpeg",
			"name":"caged_hanging_light_emissive",
			"uri":"textures/caged_hanging_light_emissive_1k.jpg"
		},
		{
			"mimeType":"image/jpeg",
			"name":"caged_hanging_light_nor_gl",
			"uri":"textures/caged_hanging_light_nor_gl_1k.jpg"
		},
		{
			"mimeType":"image/jpeg",
			"name":"caged_hanging_light_diff",
			"uri":"textures/caged_hanging_light_diff_1k.jpg"
		},
		{
			"mimeType":"image/jpeg",
			"name":"caged_hanging_light_metal-caged_hanging_light_rough",
			"uri":"textures/caged_hanging_light_arm_1k.jpg"
		}
	],
	"accessors":[
		{
			"bufferView":0,
			"componentType":5126,
			"count":4270,
			"max":[
				0.5843047499656677,
				6.044304967645076e-08,
				0.15730434656143188
			],
			"min":[
				-0.5830623507499695,
				-0.7500759959220886,
				-0.15735074877738953
			],
			"type":"VEC3"
		},
		{
			"bufferView":1,
			"componentType":5126,
			"count":4270,
			"type":"VEC3"
		},
		{
			"bufferView":2,
			"componentType":5126,
			"count":4270,
			"type":"VEC2"
		},
		{
			"bufferView":3,
			"componentType":5123,
			"count":8997,
			"type":"SCALAR"
		}
	],
	"bufferViews":[
		{
			"buffer":0,
			"byteLength":51240,
			"byteOffset":0,
			"target":34962
		},
		{
			"buffer":0,
			"byteLength":51240,
			"byteOffset":51240,
			"target":34962
		},
		{
			"buffer":0,
			"byteLength":34160,
			"byteOffset":102480,
			"target":34962
		},
		{
			"buffer":0,
			"byteLength":17994,
			"byteOffset":136640,
			"target":34963
		}
	],
	"samplers":[
		{
			"magFilter":9729,
			"minFilter":9987
		}
	],
	"buffers":[
		{
			"byteLength":154636,
			"uri":"caged_hanging_light.bin"
		}
	]
}
