{
	"asset":{
		"generator":"Khronos glTF Blender I/O v5.2.40",
		"version":"2.0"
	},
	"scene":0,
	"scenes":[
		{
			"name":"Scene",
			"nodes":[
				0,
				1,
				2,
				3,
				4,
				5,
				6,
				7
			]
		}
	],
	"nodes":[
		{
			"mesh":0,
			"name":"pachira_aquatica_01_bark_a",
			"translation":[
				-2,
				0,
				0
			]
		},
		{
			"mesh":1,
			"name":"pachira_aquatica_01_bark_b"
		},
		{
			"mesh":2,
			"name":"pachira_aquatica_01_bark_c",
			"translation":[
				1.9785430431365967,
				-0.005579829216003418,
				0.001834876835346222
			]
		},
		{
			"mesh":3,
			"name":"pachira_aquatica_01_bark_d",
			"translation":[
				4,
				0,
				0
			]
		},
		{
			"mesh":4,
			"name":"pachira_aquatica_01_leaves_a",
			"translation":[
				-2.000000238418579,
				0,
				0
			]
		},
		{
			"mesh":5,
			"name":"pachira_aquatica_01_leaves_b"
		},
		{
			"mesh":6,
			"name":"pachira_aquatica_01_leaves_c",
			"translation":[
				1.9785429239273071,
				-0.005579948425292969,
				0.001834779977798462
			]
		},
		{
			"mesh":7,
			"name":"pachira_aquatica_01_leaves_d",
			"translation":[
				3.999999761581421,
				0,
				0
			]
		}
	],
	"materials":[
		{
			"doubleSided":true,
			"name":"pachira_aquatica_01_bark",
			"normalTexture":{
				"index":0
			},
			"pbrMetallicRoughness":{
				"baseColorTexture":{
					"index":1
				},
				"metallicFactor":0,
				"metallicRoughnessTexture":{
					"index":2
				}
			}
		},
		{
			"doubleSided":true,
			"name":"pachira_aquatica_01_leaves",
			"normalTexture":{
				"index":3
			},
			"pbrMetallicRoughness":{
				"baseColorTexture":{
					"index":4
				},
				"metallicFactor":0,
				"metallicRoughnessTexture":{
					"index":5
				}
			}
		}
	],
	"meshes":[
		{
			"name":"mesh.001",
			"primitives":[
				{
					"attributes":{
						"POSITION":0,
						"NORMAL":1,
						"TEXCOORD_0":2
					},
					"indices":3,
					"material":0
				}
			]
		},
		{
			"name":"Plane.002",
			"primitives":[
				{
					"attributes":{
						"POSITION":4,
						"NORMAL":5,
						"TEXCOORD_0":6
					},
					"indices":7,
					"material":0
				}
			]
		},
		{
			"name":"Circle.001",
			"primitives":[
				{
					"attributes":{
						"POSITION":8,
						"NORMAL":9,
						"TEXCOORD_0":10
					},
					"indices":11,
					"material":0
				}
			]
		},
		{
			"name":"Circle",
			"primitives":[
				{
					"attributes":{
						"POSITION":12,
						"NORMAL":13,
						"TEXCOORD_0":14
					},
					"indices":15,
					"material":0
				}
			]
		},
		{
			"name":"Cylinder.027",
			"primitives":[
				{
					"attributes":{
						"POSITION":16,
						"NORMAL":17,
						"TEXCOORD_0":18
					},
					"indices":19,
					"material":1
				}
			]
		},
		{
			"name":"Cylinder.118",
			"primitives":[
				{
					"attributes":{
						"POSITION":20,
						"NORMAL":21,
						"TEXCOORD_0":22
					},
					"indices":23,
					"material":1
				}
			]
		},
		{
			"name":"Cylinder.092",
			"primitives":[
				{
					"attributes":{
						"POSITION":24,
						"NORMAL":25,
						"TEXCOORD_0":26
					},
					"indices":27,
					"material":1
				}
			]
		},
		{
			"name":"Cylinder.051",
			"primitives":[
				{
					"attributes":{
						"POSITION":28,
						"NORMAL":29,
						"TEXCOORD_0":30
					},
					"indices":31,
					"material":1
				}
			]
		}
	],
	"textures":[
		{
			"sampler":0,
			"source":0
		},
		{
			"sampler":0,
			"source":1
		},
		{
			"sampler":0,
			"source":2
		},
		{
			"sampler":0,
			"source":3
		},
		{
			"sampler":0,
			"source":4
		},
		{
			"sampler":0,
			"source":5
		}
	],
	"images":[
		{
			"mimeType":"image/jpeg",
			"name":"pachira_aquatica_01_bark_nor_gl",
			"uri":"textures/pachira_aquatica_01_bark_nor_gl_1k.jpg"
		},
		{
			"mimeType":"image/jpeg",
			"name":"pachira_aquatica_01_bark_diff",
			"uri":"textures/pachira_aquatica_01_bark_diff_1k.jpg"
		},
		{
			"mimeType":"image/jpeg",
			"name":"pachira_aquatica_01_bark_rough",
			"uri":"textures/pachira_aquatica_01_bark_arm_1k.jpg"
		},
		{
			"mimeType":"image/jpeg",
			"name":"pachira_aquatica_01_leaves_nor_gl",
			"uri":"textures/pachira_aquatica_01_leaves_nor_gl_1k.jpg"
		},
		{
			"mimeType":"image/jpeg",
			"name":"pachira_aquatica_01_leaves_diff-pachira_aquatica_01_leaves_alpha",
			"uri":"textures/pachira_aquatica_01_leaves_diff_1k.jpg"
		},
		{
			"mimeType":"image/jpeg",
			"name":"pachira_aquatica_01_leaves_rough",
			"uri":"textures/pachira_aquatica_01_leaves_arm_1k.jpg"
		}
	],
	"accessors":[
		{
			"bufferView":0,
			"componentType":5126,
			"count":1200,
			"max":[
				0.14070378243923187,
				0.833267867565155,
				0.11008220165967941
			],
			"min":[
				-0.0913505107164383,
				-0.017160367220640182,
				-0.13094745576381683
			],
			"type":"VEC3"
		},
		{
			"bufferView":1,
			"componentType":5126,
			"count":1200,
			"type":"VEC3"
		},
		{
			"bufferView":2,
			"componentType":5126,
			"count":1200,
			"type":"VEC2"
		},
		{
			"bufferView":3,
			"componentType":5123,
			"count":5001,
			"type":"SCALAR"
		},
		{
			"bufferView":4,
			"componentType":5126,
			"count":213,
			"max":[
				0.13218341767787933,
				0.575870931148529,
				0.20227935910224915
			],
			"min":[
				-0.02270718291401863,
				-0.007645981386303902,
				-0.02819676510989666
			],
			"type":"VEC3"
		},
		{
			"bufferView":5,
			"componentType":5126,
			"count":213,
			"type":"VEC3"
		},
		{
			"bufferView":6,
			"componentType":5126,
			"count":213,
			"type":"VEC2"
		},
		{
			"bufferView":7,
			"componentType":5123,
			"count":972,
			"type":"SCALAR"
		},
		{
			"bufferView":8,
			"componentType":5126,
			"count":1156,
			"max":[
				0.37050116062164307,
				1.0014196634292603,
				0.1259341686964035
			],
			"min":[
				-0.223188117146492,
				-0.00048590402002446353,
				-0.3686099350452423
			],
			"type":"VEC3"
		},
		{
			"bufferView":9,
			"componentType":5126,
			"count":1156,
			"type":"VEC3"
		},
		{
			"bufferView":10,
			"componentType":5126,
			"count":1156,
			"type":"VEC2"
		},
		{
			"bufferView":11,
			"componentType":5123,
			"count":4998,
			"type":"SCALAR"
		},
		{
			"bufferView":12,
			"componentType":5126,
			"count":1149,
			"max":[
				0.36325499415397644,
				1.6116740703582764,
				0.12275829911231995
			],
			"min":[
				-0.23768138885498047,
				-0.015561601147055626,
				-0.30880528688430786
			],
			"type":"VEC3"
		},
		{
			"bufferView":13,
			"componentType":5126,
			"count":1149,
			"type":"VEC3"
		},
		{
			"bufferView":14,
			"componentType":5126,
			"count":1149,
			"type":"VEC2"
		},
		{
			"bufferView":15,
			"componentType":5123,
			"count":4998,
			"type":"SCALAR"
		},
		{
			"bufferView":16,
			"componentType":5126,
			"count":1689,
			"max":[
				0.43476852774620056,
				1.2849364280700684,
				0.37034159898757935
			],
			"min":[
				-0.309139609336853,
				0.5436117053031921,
				-0.2784837782382965
			],
			"type":"VEC3"
		},
		{
			"bufferView":17,
			"componentType":5126,
			"count":1689,
			"type":"VEC3"
		},
		{
			"bufferView":18,
			"componentType":5126,
			"count":1689,
			"type":"VEC2"
		},
		{
			"bufferView":19,
			"componentType":5123,
			"count":5004,
			"type":"SCALAR"
		},
		{
			"bufferView":20,
			"componentType":5126,
			"count":1449,
			"max":[
				0.2656799554824829,
				0.7273409962654114,
				0.3918676972389221
			],
			"min":[
				-0.2374652475118637,
				0.20948824286460876,
				-0.21618108451366425
			],
			"type":"VEC3"
		},
		{
			"bufferView":21,
			"componentType":5126,
			"count":1449,
			"type":"VEC3"
		},
		{
			"bufferView":22,
			"componentType":5126,
			"count":1449,
			"type":"VEC2"
		},
		{
			"bufferView":23,
			"componentType":5123,
			"count":5001,
			"type":"SCALAR"
		},
		{
			"bufferView":24,
			"componentType":5126,
			"count":1911,
			"max":[
				0.6173844933509827,
				1.147879719734192,
				0.36882340908050537
			],
			"min":[
				-0.3577740788459778,
				0.25408026576042175,
				-0.5592978000640869
			],
			"type":"VEC3"
		},
		{
			"bufferView":25,
			"componentType":5126,
			"count":1911,
			"type":"VEC3"
		},
		{
			"bufferView":26,
			"componentType":5126,
			"count":1911,
			"type":"VEC2"
		},
		{
			"bufferView":27,
			"componentType":5123,
			"count":5001,
			"type":"SCALAR"
		},
		{
			"bufferView":28,
			"componentType":5126,
			"count":2106,
			"max":[
				0.5566123723983765,
				1.8827608823776245,
				0.4029028117656708
			],
			"min":[
				-0.4987250864505768,
				0.2374264895915985,
				-0.5914983749389648
			],
			"type":"VEC3"
		},
		{
			"bufferView":29,
			"componentType":5126,
			"count":2106,
			"type":"VEC3"
		},
		{
			"bufferView":30,
			"componentType":5126,
			"count":2106,
			"type":"VEC2"
		},
		{
			"bufferView":31,
			"componentType":5123,
			"count":5004,
			"type":"SCALAR"
		}
	],
	"bufferViews":[
		{
			"buffer":0,
			"byteLength":14400,
			"byteOffset":0,
			"target":34962
		},
		{
			"buffer":0,
			"byteLength":14400,
			"byteOffset":14400,
			"target":34962
		},
		{
			"buffer":0,
			"byteLength":9600,
			"byteOffset":28800,
			"target":34962
		},
		{
			"buffer":0,
			"byteLength":10002,
			"byteOffset":38400,
			"target":34963
		},
		{
			"buffer":0,
			"byteLength":2556,
			"byteOffset":48404,
			"target":34962
		},
		{
			"buffer":0,
			"byteLength":2556,
			"byteOffset":50960,
			"target":34962
		},
		{
			"buffer":0,
			"byteLength":1704,
			"byteOffset":53516,
			"target":34962
		},
		{
			"buffer":0,
			"byteLength":1944,
			"byteOffset":55220,
			"target":34963
		},
		{
			"buffer":0,
			"byteLength":13872,
			"byteOffset":57164,
			"target":34962
		},
		{
			"buffer":0,
			"byteLength":13872,
			"byteOffset":71036,
			"target":34962
		},
		{
			"buffer":0,
			"byteLength":9248,
			"byteOffset":84908,
			"target":34962
		},
		{
			"buffer":0,
			"byteLength":9996,
			"byteOffset":94156,
			"target":34963
		},
		{
			"buffer":0,
			"byteLength":13788,
			"byteOffset":104152,
			"target":34962
		},
		{
			"buffer":0,
			"byteLength":13788,
			"byteOffset":117940,
			"target":34962
		},
		{
			"buffer":0,
			"byteLength":9192,
			"byteOffset":131728,
			"target":34962
		},
		{
			"buffer":0,
			"byteLength":9996,
			"byteOffset":140920,
			"target":34963
		},
		{
			"buffer":0,
			"byteLength":20268,
			"byteOffset":150916,
			"target":34962
		},
		{
			"buffer":0,
			"byteLength":20268,
			"byteOffset":171184,
			"target":34962
		},
		{
			"buffer":0,
			"byteLength":13512,
			"byteOffset":191452,
			"target":34962
		},
		{
			"buffer":0,
			"byteLength":10008,
			"byteOffset":204964,
			"target":34963
		},
		{
			"buffer":0,
			"byteLength":17388,
			"byteOffset":214972,
			"target":34962
		},
		{
			"buffer":0,
			"byteLength":17388,
			"byteOffset":232360,
			"target":34962
		},
		{
			"buffer":0,
			"byteLength":11592,
			"byteOffset":249748,
			"target":34962
		},
		{
			"buffer":0,
			"byteLength":10002,
			"byteOffset":261340,
			"target":34963
		},
		{
			"buffer":0,
			"byteLength":22932,
			"byteOffset":271344,
			"target":34962
		},
		{
			"buffer":0,
			"byteLength":22932,
			"byteOffset":294276,
			"target":34962
		},
		{
			"buffer":0,
			"byteLength":15288,
			"byteOffset":317208,
			"target":34962
		},
		{
			"buffer":0,
			"byteLength":10002,
			"byteOffset":332496,
			"target":34963
		},
		{
			"buffer":0,
			"byteLength":25272,
			"byteOffset":342500,
			"target":34962
		},
		{
			"buffer":0,
			"byteLength":25272,
			"byteOffset":367772,
			"target":34962
		},
		{
			"buffer":0,
			"byteLength":16848,
			"byteOffset":393044,
			"target":34962
		},
		{
			"buffer":0,
			"byteLength":10008,
			"byteOffset":409892,
			"target":34963
		}
	],
	"samplers":[
		{
			"magFilter":9729,
			"minFilter":9987
		}
	],
	"buffers":[
		{
			"byteLength":419900,
			"uri":"pachira_aquatica_01.bin"
		}
	]
}
