{
	"asset":{
		"generator":"Khronos glTF Blender I/O v5.2.40",
		"version":"2.0"
	},
	"scene":0,
	"scenes":[
		{
			"name":"Scene",
			"nodes":[
				0,
				1,
				2
			]
		}
	],
	"nodes":[
		{
			"mesh":0,
			"name":"outdoor_table_chair_set_01_chair_01",
			"rotation":[
				0,
				0.12110015749931335,
				0,
				0.9926403164863586
			]
		},
		{
			"mesh":1,
			"name":"outdoor_table_chair_set_01_chair_02",
			"rotation":[
				0,
				0.13368111848831177,
				0,
				0.991024374961853
			]
		},
		{
			"mesh":2,
			"name":"outdoor_table_chair_set_01_table"
		}
	],
	"materials":[
		{
			"doubleSided":true,
			"name":"outdoor_table_chair_set_01_chair",
			"normalTexture":{
				"index":0
			},
			"pbrMetallicRoughness":{
				"baseColorTexture":{
					"index":1
				},
				"metallicRoughnessTexture":{
					"index":2
				}
			}
		},
		{
			"doubleSided":true,
			"name":"outdoor_table_chair_set_01_table",
			"normalTexture":{
				"index":3
			},
			"pbrMetallicRoughness":{
				"baseColorTexture":{
					"index":4
				},
				"metallicRoughnessTexture":{
					"index":5
				}
			}
		}
	],
	"meshes":[
		{
			"name":"Folding_Chair_Wood",
			"primitives":[
				{
					"attributes":{
						"POSITION":0,
						"NORMAL":1,
						"TEXCOORD_0":2
					},
					"indices":3,
					"material":0
				}
			]
		},
		{
			"name":"Folding_Chair_Wood.001",
			"primitives":[
				{
					"attributes":{
						"POSITION":4,
						"NORMAL":5,
						"TEXCOORD_0":6
					},
					"indices":7,
					"material":0
				}
			]
		},
		{
			"name":"Folding_Table_Wood.001",
			"primitives":[
				{
					"attributes":{
						"POSITION":8,
						"NORMAL":9,
						"TEXCOORD_0":10
					},
					"indices":11,
					"material":1
				}
			]
		}
	],
	"textures":[
		{
			"sampler":0,
			"source":0
		},
		{
			"sampler":0,
			"source":1
		},
		{
			"sampler":0,
			"source":2
		},
		{
			"sampler":0,
			"source":3
		},
		{
			"sampler":0,
			"source":4
		},
		{
			"sampler":0,
			"source":5
		}
	],
	"images":[
		{
			"mimeType":"image/jpeg",
			"name":"outdoor_table_chair_set_01_chair_nor_gl",
			"uri":"textures/outdoor_table_chair_set_01_chair_nor_gl_1k.jpg"
		},
		{
			"mimeType":"image/jpeg",
			"name":"outdoor_table_chair_set_01_chair_diff",
			"uri":"textures/outdoor_table_chair_set_01_chair_diff_1k.jpg"
		},
		{
			"mimeType":"image/jpeg",
			"name":"outdoor_table_chair_set_01_chair_metal-outdoor_table_chair_set_01_chair_rough",
			"uri":"textures/outdoor_table_chair_set_01_chair_arm_1k.jpg"
		},
		{
			"mimeType":"image/jpeg",
			"name":"outdoor_table_chair_set_01_table_nor_gl",
			"uri":"textures/outdoor_table_chair_set_01_table_nor_gl_1k.jpg"
		},
		{
			"mimeType":"image/jpeg",
			"name":"outdoor_table_chair_set_01_table_diff",
			"uri":"textures/outdoor_table_chair_set_01_table_diff_1k.jpg"
		},
		{
			"mimeType":"image/jpeg",
			"name":"outdoor_table_chair_set_01_table_metal-outdoor_table_chair_set_01_table_rough",
			"uri":"textures/outdoor_table_chair_set_01_table_arm_1k.jpg"
		}
	],
	"accessors":[
		{
			"bufferView":0,
			"componentType":5126,
			"count":4540,
			"max":[
				0.12660439312458038,
				0.852527379989624,
				0.8643022179603577
			],
			"min":[
				-0.34507811069488525,
				-0.0060634249821305275,
				0.2645845413208008
			],
			"type":"VEC3"
		},
		{
			"bufferView":1,
			"componentType":5126,
			"count":4540,
			"type":"VEC3"
		},
		{
			"bufferView":2,
			"componentType":5126,
			"count":4540,
			"type":"VEC2"
		},
		{
			"bufferView":3,
			"componentType":5123,
			"count":8997,
			"type":"SCALAR"
		},
		{
			"bufferView":4,
			"componentType":5126,
			"count":4425,
			"max":[
				0.36715787649154663,
				0.8525274395942688,
				-0.17118015885353088
			],
			"min":[
				-0.23045846819877625,
				-0.006063422188162804,
				-0.8425241708755493
			],
			"type":"VEC3"
		},
		{
			"bufferView":5,
			"componentType":5126,
			"count":4425,
			"type":"VEC3"
		},
		{
			"bufferView":6,
			"componentType":5126,
			"count":4425,
			"type":"VEC2"
		},
		{
			"bufferView":7,
			"componentType":5123,
			"count":8997,
			"type":"SCALAR"
		},
		{
			"bufferView":8,
			"componentType":5126,
			"count":3453,
			"max":[
				0.2661757171154022,
				0.7259218692779541,
				0.41698747873306274
			],
			"min":[
				-0.4255073368549347,
				-3.356562316980671e-08,
				-0.2748631536960602
			],
			"type":"VEC3"
		},
		{
			"bufferView":9,
			"componentType":5126,
			"count":3453,
			"type":"VEC3"
		},
		{
			"bufferView":10,
			"componentType":5126,
			"count":3453,
			"type":"VEC2"
		},
		{
			"bufferView":11,
			"componentType":5123,
			"count":6972,
			"type":"SCALAR"
		}
	],
	"bufferViews":[
		{
			"buffer":0,
			"byteLength":54480,
			"byteOffset":0,
			"target":34962
		},
		{
			"buffer":0,
			"byteLength":54480,
			"byteOffset":54480,
			"target":34962
		},
		{
			"buffer":0,
			"byteLength":36320,
			"byteOffset":108960,
			"target":34962
		},
		{
			"buffer":0,
			"byteLength":17994,
			"byteOffset":145280,
			"target":34963
		},
		{
			"buffer":0,
			"byteLength":53100,
			"byteOffset":163276,
			"target":34962
		},
		{
			"buffer":0,
			"byteLength":53100,
			"byteOffset":216376,
			"target":34962
		},
		{
			"buffer":0,
			"byteLength":35400,
			"byteOffset":269476,
			"target":34962
		},
		{
			"buffer":0,
			"byteLength":17994,
			"byteOffset":304876,
			"target":34963
		},
		{
			"buffer":0,
			"byteLength":41436,
			"byteOffset":322872,
			"target":34962
		},
		{
			"buffer":0,
			"byteLength":41436,
			"byteOffset":364308,
			"target":34962
		},
		{
			"buffer":0,
			"byteLength":27624,
			"byteOffset":405744,
			"target":34962
		},
		{
			"buffer":0,
			"byteLength":13944,
			"byteOffset":433368,
			"target":34963
		}
	],
	"samplers":[
		{
			"magFilter":9729,
			"minFilter":9987
		}
	],
	"buffers":[
		{
			"byteLength":447312,
			"uri":"outdoor_table_chair_set_01.bin"
		}
	]
}
