{
	"asset":{
		"generator":"Khronos glTF Blender I/O v5.2.40",
		"version":"2.0"
	},
	"scene":0,
	"scenes":[
		{
			"name":"Scene",
			"nodes":[
				0,
				1,
				2,
				3
			]
		}
	],
	"nodes":[
		{
			"mesh":0,
			"name":"potted_plant_01_leaves"
		},
		{
			"mesh":1,
			"name":"potted_plant_01_pebbles",
			"translation":[
				0,
				-0.013706685975193977,
				0
			]
		},
		{
			"mesh":2,
			"name":"potted_plant_01_pot"
		},
		{
			"mesh":3,
			"name":"potted_plant_01_stem"
		}
	],
	"materials":[
		{
			"alphaMode":"MASK",
			"doubleSided":true,
			"name":"potted_plant_01_leaves",
			"normalTexture":{
				"index":0
			},
			"pbrMetallicRoughness":{
				"baseColorTexture":{
					"index":1
				},
				"metallicFactor":0,
				"metallicRoughnessTexture":{
					"index":2
				}
			}
		},
		{
			"doubleSided":true,
			"name":"potted_plant_01_pot",
			"normalTexture":{
				"index":3
			},
			"pbrMetallicRoughness":{
				"baseColorTexture":{
					"index":4
				},
				"metallicFactor":0,
				"metallicRoughnessTexture":{
					"index":5
				}
			}
		}
	],
	"meshes":[
		{
			"name":"Plane.070",
			"primitives":[
				{
					"attributes":{
						"POSITION":0,
						"NORMAL":1,
						"TEXCOORD_0":2
					},
					"indices":3,
					"material":0
				}
			]
		},
		{
			"name":"Circle.008",
			"primitives":[
				{
					"attributes":{
						"POSITION":4,
						"NORMAL":5,
						"TEXCOORD_0":6
					},
					"indices":7,
					"material":1
				}
			]
		},
		{
			"name":"Circle.002",
			"primitives":[
				{
					"attributes":{
						"POSITION":8,
						"NORMAL":9,
						"TEXCOORD_0":10
					},
					"indices":11,
					"material":1
				}
			]
		},
		{
			"name":"potted_plant_01_base_low",
			"primitives":[
				{
					"attributes":{
						"POSITION":12,
						"NORMAL":13,
						"TEXCOORD_0":14
					},
					"indices":15,
					"material":1
				}
			]
		}
	],
	"textures":[
		{
			"sampler":0,
			"source":0
		},
		{
			"sampler":0,
			"source":1
		},
		{
			"sampler":0,
			"source":2
		},
		{
			"sampler":0,
			"source":3
		},
		{
			"sampler":0,
			"source":4
		},
		{
			"sampler":0,
			"source":5
		}
	],
	"images":[
		{
			"mimeType":"image/jpeg",
			"name":"potted_plant_01_leaves_nor_gl.png",
			"uri":"textures/potted_plant_01_leaves_nor_gl_1k.jpg"
		},
		{
			"mimeType":"image/png",
			"name":"potted_plant_01_leaves_diff.png",
			"uri":"textures/potted_plant_01_leaves_diff_1k.jpg"
		},
		{
			"mimeType":"image/jpeg",
			"name":"potted_plant_01_leaves_rough.png",
			"uri":"textures/potted_plant_01_leaves_rough_1k.jpg"
		},
		{
			"mimeType":"image/jpeg",
			"name":"potted_plant_01_pot_nor_gl",
			"uri":"textures/potted_plant_01_pot_nor_gl_1k.jpg"
		},
		{
			"mimeType":"image/jpeg",
			"name":"potted_plant_01_pot_diff",
			"uri":"textures/potted_plant_01_pot_diff_1k.jpg"
		},
		{
			"mimeType":"image/jpeg",
			"name":"potted_plant_01_pot_rough",
			"uri":"textures/potted_plant_01_pot_rough_1k.jpg"
		}
	],
	"accessors":[
		{
			"bufferView":0,
			"componentType":5126,
			"count":5696,
			"max":[
				0.24036745727062225,
				1.3342814445495605,
				0.2604912519454956
			],
			"min":[
				-0.33776894211769104,
				0.6056005358695984,
				-0.3644833564758301
			],
			"type":"VEC3"
		},
		{
			"bufferView":1,
			"componentType":5126,
			"count":5696,
			"type":"VEC3"
		},
		{
			"bufferView":2,
			"componentType":5126,
			"count":5696,
			"type":"VEC2"
		},
		{
			"bufferView":3,
			"componentType":5123,
			"count":9000,
			"type":"SCALAR"
		},
		{
			"bufferView":4,
			"componentType":5126,
			"count":3832,
			"max":[
				0.2110096961259842,
				0.5486149191856384,
				0.213420569896698
			],
			"min":[
				-0.21908284723758698,
				6.160170329394532e-08,
				-0.218925341963768
			],
			"type":"VEC3"
		},
		{
			"bufferView":5,
			"componentType":5126,
			"count":3832,
			"type":"VEC3"
		},
		{
			"bufferView":6,
			"componentType":5126,
			"count":3832,
			"type":"VEC2"
		},
		{
			"bufferView":7,
			"componentType":5123,
			"count":9000,
			"type":"SCALAR"
		},
		{
			"bufferView":8,
			"componentType":5126,
			"count":1968,
			"max":[
				0.23311714828014374,
				0.5316354036331177,
				0.23311708867549896
			],
			"min":[
				-0.23311710357666016,
				-9.962193871615455e-05,
				-0.23313353955745697
			],
			"type":"VEC3"
		},
		{
			"bufferView":9,
			"componentType":5126,
			"count":1968,
			"type":"VEC3"
		},
		{
			"bufferView":10,
			"componentType":5126,
			"count":1968,
			"type":"VEC2"
		},
		{
			"bufferView":11,
			"componentType":5123,
			"count":9000,
			"type":"SCALAR"
		},
		{
			"bufferView":12,
			"componentType":5126,
			"count":2112,
			"max":[
				0.13660354912281036,
				1.2669998407363892,
				0.17603155970573425
			],
			"min":[
				-0.2346116602420807,
				0.41103771328926086,
				-0.21717911958694458
			],
			"type":"VEC3"
		},
		{
			"bufferView":13,
			"componentType":5126,
			"count":2112,
			"type":"VEC3"
		},
		{
			"bufferView":14,
			"componentType":5126,
			"count":2112,
			"type":"VEC2"
		},
		{
			"bufferView":15,
			"componentType":5123,
			"count":8997,
			"type":"SCALAR"
		}
	],
	"bufferViews":[
		{
			"buffer":0,
			"byteLength":68352,
			"byteOffset":0,
			"target":34962
		},
		{
			"buffer":0,
			"byteLength":68352,
			"byteOffset":68352,
			"target":34962
		},
		{
			"buffer":0,
			"byteLength":45568,
			"byteOffset":136704,
			"target":34962
		},
		{
			"buffer":0,
			"byteLength":18000,
			"byteOffset":182272,
			"target":34963
		},
		{
			"buffer":0,
			"byteLength":45984,
			"byteOffset":200272,
			"target":34962
		},
		{
			"buffer":0,
			"byteLength":45984,
			"byteOffset":246256,
			"target":34962
		},
		{
			"buffer":0,
			"byteLength":30656,
			"byteOffset":292240,
			"target":34962
		},
		{
			"buffer":0,
			"byteLength":18000,
			"byteOffset":322896,
			"target":34963
		},
		{
			"buffer":0,
			"byteLength":23616,
			"byteOffset":340896,
			"target":34962
		},
		{
			"buffer":0,
			"byteLength":23616,
			"byteOffset":364512,
			"target":34962
		},
		{
			"buffer":0,
			"byteLength":15744,
			"byteOffset":388128,
			"target":34962
		},
		{
			"buffer":0,
			"byteLength":18000,
			"byteOffset":403872,
			"target":34963
		},
		{
			"buffer":0,
			"byteLength":25344,
			"byteOffset":421872,
			"target":34962
		},
		{
			"buffer":0,
			"byteLength":25344,
			"byteOffset":447216,
			"target":34962
		},
		{
			"buffer":0,
			"byteLength":16896,
			"byteOffset":472560,
			"target":34962
		},
		{
			"buffer":0,
			"byteLength":17994,
			"byteOffset":489456,
			"target":34963
		}
	],
	"samplers":[
		{
			"magFilter":9729,
			"minFilter":9987
		}
	],
	"buffers":[
		{
			"byteLength":507452,
			"uri":"potted_plant_01.bin"
		}
	]
}
