{
	"asset":{
		"generator":"Khronos glTF Blender I/O v5.2.40",
		"version":"2.0"
	},
	"scene":0,
	"scenes":[
		{
			"name":"Scene",
			"nodes":[
				0
			]
		}
	],
	"nodes":[
		{
			"mesh":0,
			"name":"metal_stool_02",
			"rotation":[
				0,
				0.7071068286895752,
				0,
				0.7071067094802856
			]
		}
	],
	"materials":[
		{
			"doubleSided":true,
			"name":"metal_stool_02",
			"normalTexture":{
				"index":0
			},
			"pbrMetallicRoughness":{
				"baseColorTexture":{
					"index":1
				},
				"metallicRoughnessTexture":{
					"index":2
				}
			}
		}
	],
	"meshes":[
		{
			"name":"Cylinder.009",
			"primitives":[
				{
					"attributes":{
						"POSITION":0,
						"NORMAL":1,
						"TEXCOORD_0":2
					},
					"indices":3,
					"material":0
				}
			]
		}
	],
	"textures":[
		{
			"sampler":0,
			"source":0
		},
		{
			"sampler":0,
			"source":1
		},
		{
			"sampler":0,
			"source":2
		}
	],
	"images":[
		{
			"mimeType":"image/jpeg",
			"name":"metal_stool_02_nor_gl",
			"uri":"textures/metal_stool_02_nor_gl_1k.jpg"
		},
		{
			"mimeType":"image/jpeg",
			"name":"metal_stool_02_diff",
			"uri":"textures/metal_stool_02_diff_1k.jpg"
		},
		{
			"mimeType":"image/jpeg",
			"name":"metal_stool_02_metal-metal_stool_02_rough",
			"uri":"textures/metal_stool_02_arm_1k.jpg"
		}
	],
	"accessors":[
		{
			"bufferView":0,
			"componentType":5126,
			"count":2704,
			"max":[
				0.23506096005439758,
				0.45808711647987366,
				0.22392414510250092
			],
			"min":[
				-0.23782387375831604,
				-0.00012630809214897454,
				-0.22409865260124207
			],
			"type":"VEC3"
		},
		{
			"bufferView":1,
			"componentType":5126,
			"count":2704,
			"type":"VEC3"
		},
		{
			"bufferView":2,
			"componentType":5126,
			"count":2704,
			"type":"VEC2"
		},
		{
			"bufferView":3,
			"componentType":5123,
			"count":9000,
			"type":"SCALAR"
		}
	],
	"bufferViews":[
		{
			"buffer":0,
			"byteLength":32448,
			"byteOffset":0,
			"target":34962
		},
		{
			"buffer":0,
			"byteLength":32448,
			"byteOffset":32448,
			"target":34962
		},
		{
			"buffer":0,
			"byteLength":21632,
			"byteOffset":64896,
			"target":34962
		},
		{
			"buffer":0,
			"byteLength":18000,
			"byteOffset":86528,
			"target":34963
		}
	],
	"samplers":[
		{
			"magFilter":9729,
			"minFilter":9987
		}
	],
	"buffers":[
		{
			"byteLength":104528,
			"uri":"metal_stool_02.bin"
		}
	]
}
