{
	"asset":{
		"generator":"Khronos glTF Blender I/O v5.2.40",
		"version":"2.0"
	},
	"scene":0,
	"scenes":[
		{
			"name":"Scene",
			"nodes":[
				0
			]
		}
	],
	"nodes":[
		{
			"mesh":0,
			"name":"fern_02_b"
		}
	],
	"materials":[
		{
			"alphaMode":"MASK",
			"doubleSided":true,
			"name":"fern_02",
			"normalTexture":{
				"index":0
			},
			"pbrMetallicRoughness":{
				"baseColorTexture":{
					"index":1
				},
				"metallicFactor":0,
				"metallicRoughnessTexture":{
					"index":2
				}
			}
		}
	],
	"meshes":[
		{
			"name":"Plane.024",
			"primitives":[
				{
					"attributes":{
						"POSITION":0,
						"NORMAL":1,
						"TEXCOORD_0":2
					},
					"indices":3,
					"material":0
				}
			]
		}
	],
	"textures":[
		{
			"sampler":0,
			"source":0
		},
		{
			"sampler":0,
			"source":1
		},
		{
			"sampler":0,
			"source":2
		}
	],
	"images":[
		{
			"mimeType":"image/jpeg",
			"name":"fern_02_nor_gl",
			"uri":"textures/fern_02_nor_gl_1k.jpg"
		},
		{
			"mimeType":"image/png",
			"name":"fern_02_diff-fern_02_alpha",
			"uri":"textures/fern_02_diff_1k.jpg"
		},
		{
			"mimeType":"image/jpeg",
			"name":"fern_02_rough",
			"uri":"textures/fern_02_arm_1k.jpg"
		}
	],
	"accessors":[
		{
			"bufferView":0,
			"componentType":5126,
			"count":1685,
			"max":[
				0.4616048336029053,
				0.39718443155288696,
				0.4718152582645416
			],
			"min":[
				-0.5281425714492798,
				-0.030510280281305313,
				-0.421874463558197
			],
			"type":"VEC3"
		},
		{
			"bufferView":1,
			"componentType":5126,
			"count":1685,
			"type":"VEC3"
		},
		{
			"bufferView":2,
			"componentType":5126,
			"count":1685,
			"type":"VEC2"
		},
		{
			"bufferView":3,
			"componentType":5123,
			"count":7152,
			"type":"SCALAR"
		}
	],
	"bufferViews":[
		{
			"buffer":0,
			"byteLength":20220,
			"byteOffset":0,
			"target":34962
		},
		{
			"buffer":0,
			"byteLength":20220,
			"byteOffset":20220,
			"target":34962
		},
		{
			"buffer":0,
			"byteLength":13480,
			"byteOffset":40440,
			"target":34962
		},
		{
			"buffer":0,
			"byteLength":14304,
			"byteOffset":53920,
			"target":34963
		}
	],
	"samplers":[
		{
			"magFilter":9729,
			"minFilter":9987
		}
	],
	"buffers":[
		{
			"byteLength":68224,
			"uri":"fern_02.bin"
		}
	]
}
