{
	"asset":{
		"generator":"Khronos glTF Blender I/O v5.2.40",
		"version":"2.0"
	},
	"scene":0,
	"scenes":[
		{
			"name":"Scene",
			"nodes":[
				0
			]
		}
	],
	"nodes":[
		{
			"mesh":0,
			"name":"steel_frame_shelves_01"
		}
	],
	"materials":[
		{
			"doubleSided":true,
			"name":"steel_frame_shelves_01",
			"normalTexture":{
				"index":0
			},
			"pbrMetallicRoughness":{
				"baseColorTexture":{
					"index":1
				},
				"metallicRoughnessTexture":{
					"index":2
				}
			}
		}
	],
	"meshes":[
		{
			"name":"Cylinder.008",
			"primitives":[
				{
					"attributes":{
						"POSITION":0,
						"NORMAL":1,
						"TEXCOORD_0":2
					},
					"indices":3,
					"material":0
				}
			]
		}
	],
	"textures":[
		{
			"sampler":0,
			"source":0
		},
		{
			"sampler":0,
			"source":1
		},
		{
			"sampler":0,
			"source":2
		}
	],
	"images":[
		{
			"mimeType":"image/jpeg",
			"name":"steel_frame_shelves_01_nor_gl",
			"uri":"textures/steel_frame_shelves_01_nor_gl_1k.jpg"
		},
		{
			"mimeType":"image/jpeg",
			"name":"steel_frame_shelves_01_diff",
			"uri":"textures/steel_frame_shelves_01_diff_1k.jpg"
		},
		{
			"mimeType":"image/jpeg",
			"name":"steel_frame_shelves_01_metal-steel_frame_shelves_01_rough",
			"uri":"textures/steel_frame_shelves_01_arm_1k.jpg"
		}
	],
	"accessors":[
		{
			"bufferView":0,
			"componentType":5126,
			"count":2839,
			"max":[
				5.487006664276123,
				21.394329071044922,
				2.510587692260742
			],
			"min":[
				-5.486624717712402,
				-0.010678904131054878,
				-2.510587692260742
			],
			"type":"VEC3"
		},
		{
			"bufferView":1,
			"componentType":5126,
			"count":2839,
			"type":"VEC3"
		},
		{
			"bufferView":2,
			"componentType":5126,
			"count":2839,
			"type":"VEC2"
		},
		{
			"bufferView":3,
			"componentType":5123,
			"count":9000,
			"type":"SCALAR"
		}
	],
	"bufferViews":[
		{
			"buffer":0,
			"byteLength":34068,
			"byteOffset":0,
			"target":34962
		},
		{
			"buffer":0,
			"byteLength":34068,
			"byteOffset":34068,
			"target":34962
		},
		{
			"buffer":0,
			"byteLength":22712,
			"byteOffset":68136,
			"target":34962
		},
		{
			"buffer":0,
			"byteLength":18000,
			"byteOffset":90848,
			"target":34963
		}
	],
	"samplers":[
		{
			"magFilter":9729,
			"minFilter":9987
		}
	],
	"buffers":[
		{
			"byteLength":108848,
			"uri":"steel_frame_shelves_01.bin"
		}
	]
}
