{
	"asset":{
		"generator":"Khronos glTF Blender I/O v5.2.40",
		"version":"2.0"
	},
	"scene":0,
	"scenes":[
		{
			"name":"Scene",
			"nodes":[
				0
			]
		}
	],
	"nodes":[
		{
			"mesh":0,
			"name":"mid_century_lounge_chair"
		}
	],
	"materials":[
		{
			"doubleSided":true,
			"name":"mid_century_lounge_chair",
			"normalTexture":{
				"index":0
			},
			"pbrMetallicRoughness":{
				"baseColorTexture":{
					"index":1
				},
				"metallicRoughnessTexture":{
					"index":2
				}
			}
		}
	],
	"meshes":[
		{
			"name":"lounge_chair",
			"primitives":[
				{
					"attributes":{
						"POSITION":0,
						"NORMAL":1,
						"TEXCOORD_0":2
					},
					"indices":3,
					"material":0
				}
			]
		}
	],
	"textures":[
		{
			"sampler":0,
			"source":0
		},
		{
			"sampler":0,
			"source":1
		},
		{
			"sampler":0,
			"source":2
		}
	],
	"images":[
		{
			"mimeType":"image/jpeg",
			"name":"mid_century_lounge_chair_nor_gl",
			"uri":"textures/mid_century_lounge_chair_nor_gl_1k.jpg"
		},
		{
			"mimeType":"image/jpeg",
			"name":"mid_century_lounge_chair_diff",
			"uri":"textures/mid_century_lounge_chair_diff_1k.jpg"
		},
		{
			"mimeType":"image/jpeg",
			"name":"mid_century_lounge_chair_metal-mid_century_lounge_chair_rough",
			"uri":"textures/mid_century_lounge_chair_arm_1k.jpg"
		}
	],
	"accessors":[
		{
			"bufferView":0,
			"componentType":5126,
			"count":2451,
			"max":[
				0.5043938755989075,
				1.1690914630889893,
				0.5289893746376038
			],
			"min":[
				-0.5043937563896179,
				-4.9808815674623474e-05,
				-0.6613625288009644
			],
			"type":"VEC3"
		},
		{
			"bufferView":1,
			"componentType":5126,
			"count":2451,
			"type":"VEC3"
		},
		{
			"bufferView":2,
			"componentType":5126,
			"count":2451,
			"type":"VEC2"
		},
		{
			"bufferView":3,
			"componentType":5123,
			"count":9000,
			"type":"SCALAR"
		}
	],
	"bufferViews":[
		{
			"buffer":0,
			"byteLength":29412,
			"byteOffset":0,
			"target":34962
		},
		{
			"buffer":0,
			"byteLength":29412,
			"byteOffset":29412,
			"target":34962
		},
		{
			"buffer":0,
			"byteLength":19608,
			"byteOffset":58824,
			"target":34962
		},
		{
			"buffer":0,
			"byteLength":18000,
			"byteOffset":78432,
			"target":34963
		}
	],
	"samplers":[
		{
			"magFilter":9729,
			"minFilter":9987
		}
	],
	"buffers":[
		{
			"byteLength":96432,
			"uri":"mid_century_lounge_chair.bin"
		}
	]
}
