{
	"asset":{
		"generator":"Khronos glTF Blender I/O v5.2.40",
		"version":"2.0"
	},
	"scene":0,
	"scenes":[
		{
			"name":"Scene",
			"nodes":[
				0,
				1,
				2
			]
		}
	],
	"nodes":[
		{
			"mesh":0,
			"name":"CoffeeCart_01_cart"
		},
		{
			"mesh":1,
			"name":"CoffeeCart_01_mugs"
		},
		{
			"mesh":2,
			"name":"CoffeeCart_01_props"
		}
	],
	"materials":[
		{
			"doubleSided":true,
			"name":"CoffeeCart_01_cart",
			"normalTexture":{
				"index":0
			},
			"pbrMetallicRoughness":{
				"baseColorTexture":{
					"index":1
				},
				"metallicRoughnessTexture":{
					"index":2
				}
			}
		},
		{
			"doubleSided":true,
			"name":"CoffeeCart_01_mugs",
			"pbrMetallicRoughness":{
				"baseColorFactor":[
					0.800000011920929,
					0.800000011920929,
					0.800000011920929,
					1
				],
				"metallicFactor":0,
				"roughnessFactor":0.15454545617103577
			}
		},
		{
			"doubleSided":true,
			"name":"CoffeeCart_01_props",
			"normalTexture":{
				"index":3
			},
			"pbrMetallicRoughness":{
				"baseColorTexture":{
					"index":4
				},
				"metallicRoughnessTexture":{
					"index":5
				}
			}
		}
	],
	"meshes":[
		{
			"name":"Bottom_Cart",
			"primitives":[
				{
					"attributes":{
						"POSITION":0,
						"NORMAL":1,
						"TEXCOORD_0":2
					},
					"indices":3,
					"material":0
				}
			]
		},
		{
			"name":"Mugs",
			"primitives":[
				{
					"attributes":{
						"POSITION":4,
						"NORMAL":5,
						"TEXCOORD_0":6
					},
					"indices":7,
					"material":1
				}
			]
		},
		{
			"name":"Top_Cart",
			"primitives":[
				{
					"attributes":{
						"POSITION":8,
						"NORMAL":9,
						"TEXCOORD_0":10
					},
					"indices":11,
					"material":2
				}
			]
		}
	],
	"textures":[
		{
			"sampler":0,
			"source":0
		},
		{
			"sampler":0,
			"source":1
		},
		{
			"sampler":0,
			"source":2
		},
		{
			"sampler":0,
			"source":3
		},
		{
			"sampler":0,
			"source":4
		},
		{
			"sampler":0,
			"source":5
		}
	],
	"images":[
		{
			"mimeType":"image/jpeg",
			"name":"CoffeeCart_01_cart_nor_gl",
			"uri":"textures/CoffeeCart_01_cart_nor_gl_1k.jpg"
		},
		{
			"mimeType":"image/jpeg",
			"name":"CoffeeCart_01_cart_diff",
			"uri":"textures/CoffeeCart_01_cart_diff_1k.jpg"
		},
		{
			"mimeType":"image/jpeg",
			"name":"CoffeeCart_01_cart_metallic-CoffeeCart_01_cart_roughness",
			"uri":"textures/CoffeeCart_01_cart_arm_1k.jpg"
		},
		{
			"mimeType":"image/jpeg",
			"name":"CoffeeCart_01_props_nor_gl",
			"uri":"textures/CoffeeCart_01_props_nor_gl_1k.jpg"
		},
		{
			"mimeType":"image/jpeg",
			"name":"CoffeeCart_01_props_diff",
			"uri":"textures/CoffeeCart_01_props_diff_1k.jpg"
		},
		{
			"mimeType":"image/jpeg",
			"name":"CoffeeCart_01_props_metallic-CoffeeCart_01_props_roughness",
			"uri":"textures/CoffeeCart_01_props_arm_1k.jpg"
		}
	],
	"accessors":[
		{
			"bufferView":0,
			"componentType":5126,
			"count":4022,
			"max":[
				0.7712041139602661,
				1.0585651397705078,
				0.5100312829017639
			],
			"min":[
				-0.6709426641464233,
				0.004969324916601181,
				-0.2076723426580429
			],
			"type":"VEC3"
		},
		{
			"bufferView":1,
			"componentType":5126,
			"count":4022,
			"type":"VEC3"
		},
		{
			"bufferView":2,
			"componentType":5126,
			"count":4022,
			"type":"VEC2"
		},
		{
			"bufferView":3,
			"componentType":5123,
			"count":9000,
			"type":"SCALAR"
		},
		{
			"bufferView":4,
			"componentType":5126,
			"count":1201,
			"max":[
				0.6225864291191101,
				1.1751478910446167,
				0.4638267457485199
			],
			"min":[
				0.20148180425167084,
				1.0557500123977661,
				-0.11585871875286102
			],
			"type":"VEC3"
		},
		{
			"bufferView":5,
			"componentType":5126,
			"count":1201,
			"type":"VEC3"
		},
		{
			"bufferView":6,
			"componentType":5126,
			"count":1201,
			"type":"VEC2"
		},
		{
			"bufferView":7,
			"componentType":5123,
			"count":5280,
			"type":"SCALAR"
		},
		{
			"bufferView":8,
			"componentType":5126,
			"count":3683,
			"max":[
				0.6110244393348694,
				1.723947286605835,
				0.5149731636047363
			],
			"min":[
				-1.3966964483261108,
				0.17223092913627625,
				-0.5575034618377686
			],
			"type":"VEC3"
		},
		{
			"bufferView":9,
			"componentType":5126,
			"count":3683,
			"type":"VEC3"
		},
		{
			"bufferView":10,
			"componentType":5126,
			"count":3683,
			"type":"VEC2"
		},
		{
			"bufferView":11,
			"componentType":5123,
			"count":9000,
			"type":"SCALAR"
		}
	],
	"bufferViews":[
		{
			"buffer":0,
			"byteLength":48264,
			"byteOffset":0,
			"target":34962
		},
		{
			"buffer":0,
			"byteLength":48264,
			"byteOffset":48264,
			"target":34962
		},
		{
			"buffer":0,
			"byteLength":32176,
			"byteOffset":96528,
			"target":34962
		},
		{
			"buffer":0,
			"byteLength":18000,
			"byteOffset":128704,
			"target":34963
		},
		{
			"buffer":0,
			"byteLength":14412,
			"byteOffset":146704,
			"target":34962
		},
		{
			"buffer":0,
			"byteLength":14412,
			"byteOffset":161116,
			"target":34962
		},
		{
			"buffer":0,
			"byteLength":9608,
			"byteOffset":175528,
			"target":34962
		},
		{
			"buffer":0,
			"byteLength":10560,
			"byteOffset":185136,
			"target":34963
		},
		{
			"buffer":0,
			"byteLength":44196,
			"byteOffset":195696,
			"target":34962
		},
		{
			"buffer":0,
			"byteLength":44196,
			"byteOffset":239892,
			"target":34962
		},
		{
			"buffer":0,
			"byteLength":29464,
			"byteOffset":284088,
			"target":34962
		},
		{
			"buffer":0,
			"byteLength":18000,
			"byteOffset":313552,
			"target":34963
		}
	],
	"samplers":[
		{
			"magFilter":9729,
			"minFilter":9987
		}
	],
	"buffers":[
		{
			"byteLength":331552,
			"uri":"CoffeeCart_01.bin"
		}
	]
}
