{
	"asset":{
		"generator":"Khronos glTF Blender I/O v5.2.40",
		"version":"2.0"
	},
	"scene":0,
	"scenes":[
		{
			"name":"Scene",
			"nodes":[
				0
			]
		}
	],
	"nodes":[
		{
			"mesh":0,
			"name":"planter_box_02"
		}
	],
	"materials":[
		{
			"doubleSided":true,
			"name":"planter_box_02",
			"normalTexture":{
				"index":0
			},
			"pbrMetallicRoughness":{
				"baseColorTexture":{
					"index":1
				},
				"metallicRoughnessTexture":{
					"index":2
				}
			}
		}
	],
	"meshes":[
		{
			"name":"Plane.001",
			"primitives":[
				{
					"attributes":{
						"POSITION":0,
						"NORMAL":1,
						"TEXCOORD_0":2
					},
					"indices":3,
					"material":0
				}
			]
		}
	],
	"textures":[
		{
			"sampler":0,
			"source":0
		},
		{
			"sampler":0,
			"source":1
		},
		{
			"sampler":0,
			"source":2
		}
	],
	"images":[
		{
			"mimeType":"image/jpeg",
			"name":"planter_box_02_nor_gl",
			"uri":"textures/planter_box_02_nor_gl_1k.jpg"
		},
		{
			"mimeType":"image/jpeg",
			"name":"planter_box_02_diff",
			"uri":"textures/planter_box_02_diff_1k.jpg"
		},
		{
			"mimeType":"image/jpeg",
			"name":"planter_box_02_metal-planter_box_02_rough",
			"uri":"textures/planter_box_02_arm_1k.jpg"
		}
	],
	"accessors":[
		{
			"bufferView":0,
			"componentType":5126,
			"count":3359,
			"max":[
				0.6269854307174683,
				0.4518197476863861,
				0.2325977236032486
			],
			"min":[
				-0.6247907280921936,
				-0.0017563452711328864,
				-0.23638205230236053
			],
			"type":"VEC3"
		},
		{
			"bufferView":1,
			"componentType":5126,
			"count":3359,
			"type":"VEC3"
		},
		{
			"bufferView":2,
			"componentType":5126,
			"count":3359,
			"type":"VEC2"
		},
		{
			"bufferView":3,
			"componentType":5123,
			"count":9000,
			"type":"SCALAR"
		}
	],
	"bufferViews":[
		{
			"buffer":0,
			"byteLength":40308,
			"byteOffset":0,
			"target":34962
		},
		{
			"buffer":0,
			"byteLength":40308,
			"byteOffset":40308,
			"target":34962
		},
		{
			"buffer":0,
			"byteLength":26872,
			"byteOffset":80616,
			"target":34962
		},
		{
			"buffer":0,
			"byteLength":18000,
			"byteOffset":107488,
			"target":34963
		}
	],
	"samplers":[
		{
			"magFilter":9729,
			"minFilter":9987
		}
	],
	"buffers":[
		{
			"byteLength":125488,
			"uri":"planter_box_02.bin"
		}
	]
}
