{
	"asset":{
		"generator":"Khronos glTF Blender I/O v5.2.40",
		"version":"2.0"
	},
	"extensionsUsed":[
		"KHR_materials_specular",
		"KHR_materials_ior"
	],
	"scene":0,
	"scenes":[
		{
			"name":"Scene",
			"nodes":[
				0
			]
		}
	],
	"nodes":[
		{
			"mesh":0,
			"name":"anthurium_botany_01_a"
		}
	],
	"materials":[
		{
			"alphaMode":"MASK",
			"doubleSided":true,
			"extensions":{
				"KHR_materials_specular":{
					"specularFactor":0.7100000381469727
				},
				"KHR_materials_ior":{
					"ior":1.4500000476837158
				}
			},
			"name":"anthurium_botany_01",
			"normalTexture":{
				"index":0
			},
			"pbrMetallicRoughness":{
				"baseColorTexture":{
					"index":1
				},
				"metallicFactor":0,
				"metallicRoughnessTexture":{
					"index":2
				}
			}
		}
	],
	"meshes":[
		{
			"name":"Plane.016",
			"primitives":[
				{
					"attributes":{
						"POSITION":0,
						"NORMAL":1,
						"TEXCOORD_0":2
					},
					"indices":3,
					"material":0
				}
			]
		}
	],
	"textures":[
		{
			"sampler":0,
			"source":0
		},
		{
			"sampler":0,
			"source":1
		},
		{
			"sampler":0,
			"source":2
		}
	],
	"images":[
		{
			"mimeType":"image/jpeg",
			"name":"anthurium_botany_01_nor_gl",
			"uri":"textures/anthurium_botany_01_nor_gl_1k.jpg"
		},
		{
			"mimeType":"image/png",
			"name":"anthurium_botany_01_diff",
			"uri":"textures/anthurium_botany_01_diff_1k.jpg"
		},
		{
			"mimeType":"image/jpeg",
			"name":"anthurium_botany_01_rough",
			"uri":"textures/anthurium_botany_01_arm_1k.jpg"
		}
	],
	"accessors":[
		{
			"bufferView":0,
			"componentType":5126,
			"count":1829,
			"max":[
				0.47636568546295166,
				0.4907328188419342,
				0.6519953012466431
			],
			"min":[
				-0.42011889815330505,
				-0.010151548311114311,
				-0.49014970660209656
			],
			"type":"VEC3"
		},
		{
			"bufferView":1,
			"componentType":5126,
			"count":1829,
			"type":"VEC3"
		},
		{
			"bufferView":2,
			"componentType":5126,
			"count":1829,
			"type":"VEC2"
		},
		{
			"bufferView":3,
			"componentType":5123,
			"count":6000,
			"type":"SCALAR"
		}
	],
	"bufferViews":[
		{
			"buffer":0,
			"byteLength":21948,
			"byteOffset":0,
			"target":34962
		},
		{
			"buffer":0,
			"byteLength":21948,
			"byteOffset":21948,
			"target":34962
		},
		{
			"buffer":0,
			"byteLength":14632,
			"byteOffset":43896,
			"target":34962
		},
		{
			"buffer":0,
			"byteLength":12000,
			"byteOffset":58528,
			"target":34963
		}
	],
	"samplers":[
		{
			"magFilter":9729,
			"minFilter":9987
		}
	],
	"buffers":[
		{
			"byteLength":70528,
			"uri":"anthurium_botany_01.bin"
		}
	]
}
