{
	"asset":{
		"generator":"Khronos glTF Blender I/O v5.2.40",
		"version":"2.0"
	},
	"scene":0,
	"scenes":[
		{
			"name":"Scene",
			"nodes":[
				0
			]
		}
	],
	"nodes":[
		{
			"mesh":0,
			"name":"modern_ceiling_lamp_01"
		}
	],
	"materials":[
		{
			"doubleSided":true,
			"name":"modern_ceiling_lamp_01_glass",
			"normalTexture":{
				"index":0
			},
			"pbrMetallicRoughness":{
				"baseColorTexture":{
					"index":1
				},
				"metallicRoughnessTexture":{
					"index":2
				}
			}
		},
		{
			"doubleSided":true,
			"name":"modern_ceiling_lamp_01",
			"normalTexture":{
				"index":3
			},
			"pbrMetallicRoughness":{
				"baseColorTexture":{
					"index":4
				},
				"metallicRoughnessTexture":{
					"index":5
				}
			}
		},
		{
			"doubleSided":true,
			"emissiveFactor":[
				0.6229580640792847,
				0.5416215658187866,
				0.4745504856109619
			],
			"name":"modern_ceiling_globe",
			"normalTexture":{
				"index":6
			},
			"pbrMetallicRoughness":{
				"baseColorTexture":{
					"index":7
				},
				"metallicRoughnessTexture":{
					"index":8
				}
			}
		}
	],
	"meshes":[
		{
			"name":"Cylinder.003",
			"primitives":[
				{
					"attributes":{
						"POSITION":0,
						"NORMAL":1,
						"TEXCOORD_0":2
					},
					"indices":3,
					"material":0
				},
				{
					"attributes":{
						"POSITION":4,
						"NORMAL":5,
						"TEXCOORD_0":6
					},
					"indices":7,
					"material":1
				},
				{
					"attributes":{
						"POSITION":8,
						"NORMAL":9,
						"TEXCOORD_0":10
					},
					"indices":11,
					"material":2
				}
			]
		}
	],
	"textures":[
		{
			"sampler":0,
			"source":0
		},
		{
			"sampler":0,
			"source":1
		},
		{
			"sampler":0,
			"source":2
		},
		{
			"sampler":0,
			"source":0
		},
		{
			"sampler":0,
			"source":1
		},
		{
			"sampler":0,
			"source":2
		},
		{
			"sampler":0,
			"source":0
		},
		{
			"sampler":0,
			"source":1
		},
		{
			"sampler":0,
			"source":2
		}
	],
	"images":[
		{
			"mimeType":"image/jpeg",
			"name":"modern_ceiling_lamp_01_gl_normal",
			"uri":"textures/modern_ceiling_lamp_01_nor_gl_1k.jpg"
		},
		{
			"mimeType":"image/jpeg",
			"name":"modern_ceiling_lamp_01_basecolor",
			"uri":"textures/modern_ceiling_lamp_01_diff_1k.jpg"
		},
		{
			"mimeType":"image/jpeg",
			"name":"modern_ceiling_lamp_01_metallic-modern_ceiling_lamp_01_roughness",
			"uri":"textures/modern_ceiling_lamp_01_arm_1k.jpg"
		}
	],
	"accessors":[
		{
			"bufferView":0,
			"componentType":5126,
			"count":1005,
			"max":[
				0.21584942936897278,
				0.5282871723175049,
				0.21741095185279846
			],
			"min":[
				-0.2157929390668869,
				0.22063088417053223,
				-0.21432414650917053
			],
			"type":"VEC3"
		},
		{
			"bufferView":1,
			"componentType":5126,
			"count":1005,
			"type":"VEC3"
		},
		{
			"bufferView":2,
			"componentType":5126,
			"count":1005,
			"type":"VEC2"
		},
		{
			"bufferView":3,
			"componentType":5123,
			"count":5091,
			"type":"SCALAR"
		},
		{
			"bufferView":4,
			"componentType":5126,
			"count":1009,
			"max":[
				0.1473923921585083,
				1.1726436614990234,
				0.14887076616287231
			],
			"min":[
				-0.14733590185642242,
				0.4579848647117615,
				-0.1458652913570404
			],
			"type":"VEC3"
		},
		{
			"bufferView":5,
			"componentType":5126,
			"count":1009,
			"type":"VEC3"
		},
		{
			"bufferView":6,
			"componentType":5126,
			"count":1009,
			"type":"VEC2"
		},
		{
			"bufferView":7,
			"componentType":5123,
			"count":3411,
			"type":"SCALAR"
		},
		{
			"bufferView":8,
			"componentType":5126,
			"count":108,
			"max":[
				0.03556819260120392,
				0.462555468082428,
				0.03704262897372246
			],
			"min":[
				-0.03551149368286133,
				0.37690940499305725,
				-0.034056030213832855
			],
			"type":"VEC3"
		},
		{
			"bufferView":9,
			"componentType":5126,
			"count":108,
			"type":"VEC3"
		},
		{
			"bufferView":10,
			"componentType":5126,
			"count":108,
			"type":"VEC2"
		},
		{
			"bufferView":11,
			"componentType":5123,
			"count":498,
			"type":"SCALAR"
		}
	],
	"bufferViews":[
		{
			"buffer":0,
			"byteLength":12060,
			"byteOffset":0,
			"target":34962
		},
		{
			"buffer":0,
			"byteLength":12060,
			"byteOffset":12060,
			"target":34962
		},
		{
			"buffer":0,
			"byteLength":8040,
			"byteOffset":24120,
			"target":34962
		},
		{
			"buffer":0,
			"byteLength":10182,
			"byteOffset":32160,
			"target":34963
		},
		{
			"buffer":0,
			"byteLength":12108,
			"byteOffset":42344,
			"target":34962
		},
		{
			"buffer":0,
			"byteLength":12108,
			"byteOffset":54452,
			"target":34962
		},
		{
			"buffer":0,
			"byteLength":8072,
			"byteOffset":66560,
			"target":34962
		},
		{
			"buffer":0,
			"byteLength":6822,
			"byteOffset":74632,
			"target":34963
		},
		{
			"buffer":0,
			"byteLength":1296,
			"byteOffset":81456,
			"target":34962
		},
		{
			"buffer":0,
			"byteLength":1296,
			"byteOffset":82752,
			"target":34962
		},
		{
			"buffer":0,
			"byteLength":864,
			"byteOffset":84048,
			"target":34962
		},
		{
			"buffer":0,
			"byteLength":996,
			"byteOffset":84912,
			"target":34963
		}
	],
	"samplers":[
		{
			"magFilter":9729,
			"minFilter":9987
		}
	],
	"buffers":[
		{
			"byteLength":85908,
			"uri":"modern_ceiling_lamp_01.bin"
		}
	]
}
