{
	"asset":{
		"generator":"Khronos glTF Blender I/O v5.2.40",
		"version":"2.0"
	},
	"scene":0,
	"scenes":[
		{
			"name":"Scene",
			"nodes":[
				0
			]
		}
	],
	"nodes":[
		{
			"mesh":0,
			"name":"steel_frame_shelves_02"
		}
	],
	"materials":[
		{
			"doubleSided":true,
			"name":"steel_frame_shelves_02",
			"normalTexture":{
				"index":0
			},
			"pbrMetallicRoughness":{
				"baseColorTexture":{
					"index":1
				},
				"metallicRoughnessTexture":{
					"index":2
				}
			}
		}
	],
	"meshes":[
		{
			"name":"Cylinder.007",
			"primitives":[
				{
					"attributes":{
						"POSITION":0,
						"NORMAL":1,
						"TEXCOORD_0":2
					},
					"indices":3,
					"material":0
				}
			]
		}
	],
	"textures":[
		{
			"sampler":0,
			"source":0
		},
		{
			"sampler":0,
			"source":1
		},
		{
			"sampler":0,
			"source":2
		}
	],
	"images":[
		{
			"mimeType":"image/jpeg",
			"name":"steel_frame_shelves_02_nor_gl",
			"uri":"textures/steel_frame_shelves_02_nor_gl_1k.jpg"
		},
		{
			"mimeType":"image/jpeg",
			"name":"steel_frame_shelves_02_diff",
			"uri":"textures/steel_frame_shelves_02_diff_1k.jpg"
		},
		{
			"mimeType":"image/jpeg",
			"name":"steel_frame_shelves_02_metal-steel_frame_shelves_02_rough",
			"uri":"textures/steel_frame_shelves_02_arm_1k.jpg"
		}
	],
	"accessors":[
		{
			"bufferView":0,
			"componentType":5126,
			"count":2834,
			"max":[
				0.29662758111953735,
				2.140542984008789,
				0.25118905305862427
			],
			"min":[
				-0.29662373661994934,
				-0.0010684445733204484,
				-0.25118905305862427
			],
			"type":"VEC3"
		},
		{
			"bufferView":1,
			"componentType":5126,
			"count":2834,
			"type":"VEC3"
		},
		{
			"bufferView":2,
			"componentType":5126,
			"count":2834,
			"type":"VEC2"
		},
		{
			"bufferView":3,
			"componentType":5123,
			"count":9000,
			"type":"SCALAR"
		}
	],
	"bufferViews":[
		{
			"buffer":0,
			"byteLength":34008,
			"byteOffset":0,
			"target":34962
		},
		{
			"buffer":0,
			"byteLength":34008,
			"byteOffset":34008,
			"target":34962
		},
		{
			"buffer":0,
			"byteLength":22672,
			"byteOffset":68016,
			"target":34962
		},
		{
			"buffer":0,
			"byteLength":18000,
			"byteOffset":90688,
			"target":34963
		}
	],
	"samplers":[
		{
			"magFilter":9729,
			"minFilter":9987
		}
	],
	"buffers":[
		{
			"byteLength":108688,
			"uri":"steel_frame_shelves_02.bin"
		}
	]
}
