{
	"asset":{
		"generator":"Khronos glTF Blender I/O v5.2.40",
		"version":"2.0"
	},
	"scene":0,
	"scenes":[
		{
			"name":"Scene",
			"nodes":[
				0
			]
		}
	],
	"nodes":[
		{
			"mesh":0,
			"name":"modern_coffee_table_01"
		}
	],
	"materials":[
		{
			"doubleSided":true,
			"name":"modern_coffee_table_01",
			"normalTexture":{
				"index":0
			},
			"pbrMetallicRoughness":{
				"baseColorTexture":{
					"index":1
				},
				"metallicFactor":0,
				"metallicRoughnessTexture":{
					"index":2
				}
			}
		}
	],
	"meshes":[
		{
			"name":"Cube.003",
			"primitives":[
				{
					"attributes":{
						"POSITION":0,
						"NORMAL":1,
						"TEXCOORD_0":2
					},
					"indices":3,
					"material":0
				}
			]
		}
	],
	"textures":[
		{
			"sampler":0,
			"source":0
		},
		{
			"sampler":0,
			"source":1
		},
		{
			"sampler":0,
			"source":2
		}
	],
	"images":[
		{
			"mimeType":"image/jpeg",
			"name":"modern_coffee_table_01_nor_gl",
			"uri":"textures/modern_coffee_table_01_nor_gl_1k.jpg"
		},
		{
			"mimeType":"image/jpeg",
			"name":"modern_coffee_table_01_diff",
			"uri":"textures/modern_coffee_table_01_diff_1k.jpg"
		},
		{
			"mimeType":"image/jpeg",
			"name":"modern_coffee_table_01_rough",
			"uri":"textures/modern_coffee_table_01_rough_1k.jpg"
		}
	],
	"accessors":[
		{
			"bufferView":0,
			"componentType":5126,
			"count":2910,
			"max":[
				0.3000001609325409,
				0.3898908495903015,
				0.601161003112793
			],
			"min":[
				-0.2999999225139618,
				-0.00011512637138366699,
				-0.6006690263748169
			],
			"type":"VEC3"
		},
		{
			"bufferView":1,
			"componentType":5126,
			"count":2910,
			"type":"VEC3"
		},
		{
			"bufferView":2,
			"componentType":5126,
			"count":2910,
			"type":"VEC2"
		},
		{
			"bufferView":3,
			"componentType":5123,
			"count":9000,
			"type":"SCALAR"
		}
	],
	"bufferViews":[
		{
			"buffer":0,
			"byteLength":34920,
			"byteOffset":0,
			"target":34962
		},
		{
			"buffer":0,
			"byteLength":34920,
			"byteOffset":34920,
			"target":34962
		},
		{
			"buffer":0,
			"byteLength":23280,
			"byteOffset":69840,
			"target":34962
		},
		{
			"buffer":0,
			"byteLength":18000,
			"byteOffset":93120,
			"target":34963
		}
	],
	"samplers":[
		{
			"magFilter":9729,
			"minFilter":9987
		}
	],
	"buffers":[
		{
			"byteLength":111120,
			"uri":"modern_coffee_table_01.bin"
		}
	]
}
