{
	"asset":{
		"generator":"Khronos glTF Blender I/O v5.2.40",
		"version":"2.0"
	},
	"scene":0,
	"scenes":[
		{
			"name":"Scene",
			"nodes":[
				0
			]
		}
	],
	"nodes":[
		{
			"mesh":0,
			"name":"marble_bust_01",
			"translation":[
				0,
				0.028335653245449066,
				0
			]
		}
	],
	"materials":[
		{
			"doubleSided":true,
			"name":"marble_bust_01",
			"normalTexture":{
				"index":0
			},
			"pbrMetallicRoughness":{
				"baseColorTexture":{
					"index":1
				},
				"metallicFactor":0,
				"metallicRoughnessTexture":{
					"index":2
				}
			}
		}
	],
	"meshes":[
		{
			"name":"marble_bust_01",
			"primitives":[
				{
					"attributes":{
						"POSITION":0,
						"NORMAL":1,
						"TEXCOORD_0":2
					},
					"indices":3,
					"material":0
				}
			]
		}
	],
	"textures":[
		{
			"sampler":0,
			"source":0
		},
		{
			"sampler":0,
			"source":1
		},
		{
			"sampler":0,
			"source":2
		}
	],
	"images":[
		{
			"mimeType":"image/jpeg",
			"name":"marble_bust_01_nor_gl",
			"uri":"textures/marble_bust_01_nor_gl_1k.jpg"
		},
		{
			"mimeType":"image/jpeg",
			"name":"marble_bust_01_diff",
			"uri":"textures/marble_bust_01_diff_1k.jpg"
		},
		{
			"mimeType":"image/jpeg",
			"name":"marble_bust_01_arm",
			"uri":"textures/marble_bust_01_rough_1k.jpg"
		}
	],
	"accessors":[
		{
			"bufferView":0,
			"componentType":5126,
			"count":2047,
			"max":[
				0.14886942505836487,
				0.4865996539592743,
				0.15511472523212433
			],
			"min":[
				-0.12261760979890823,
				-0.028367016464471817,
				-0.14441050589084625
			],
			"type":"VEC3"
		},
		{
			"bufferView":1,
			"componentType":5126,
			"count":2047,
			"type":"VEC3"
		},
		{
			"bufferView":2,
			"componentType":5126,
			"count":2047,
			"type":"VEC2"
		},
		{
			"bufferView":3,
			"componentType":5123,
			"count":9000,
			"type":"SCALAR"
		}
	],
	"bufferViews":[
		{
			"buffer":0,
			"byteLength":24564,
			"byteOffset":0,
			"target":34962
		},
		{
			"buffer":0,
			"byteLength":24564,
			"byteOffset":24564,
			"target":34962
		},
		{
			"buffer":0,
			"byteLength":16376,
			"byteOffset":49128,
			"target":34962
		},
		{
			"buffer":0,
			"byteLength":18000,
			"byteOffset":65504,
			"target":34963
		}
	],
	"samplers":[
		{
			"magFilter":9729,
			"minFilter":9987
		}
	],
	"buffers":[
		{
			"byteLength":83504,
			"uri":"marble_bust_01.bin"
		}
	]
}
