{
	"asset":{
		"generator":"Khronos glTF Blender I/O v5.2.40",
		"version":"2.0"
	},
	"scene":0,
	"scenes":[
		{
			"name":"Scene",
			"nodes":[
				0
			]
		}
	],
	"nodes":[
		{
			"mesh":0,
			"name":"Ottoman_01"
		}
	],
	"materials":[
		{
			"doubleSided":true,
			"name":"Ottoman_01",
			"normalTexture":{
				"index":0
			},
			"pbrMetallicRoughness":{
				"baseColorTexture":{
					"index":1
				},
				"metallicRoughnessTexture":{
					"index":2
				}
			}
		}
	],
	"meshes":[
		{
			"name":"Mesh",
			"primitives":[
				{
					"attributes":{
						"POSITION":0,
						"NORMAL":1,
						"TEXCOORD_0":2
					},
					"indices":3,
					"material":0
				}
			]
		}
	],
	"textures":[
		{
			"sampler":0,
			"source":0
		},
		{
			"sampler":0,
			"source":1
		},
		{
			"sampler":0,
			"source":2
		}
	],
	"images":[
		{
			"mimeType":"image/jpeg",
			"name":"Ottoman_01_nor_gl",
			"uri":"textures/Ottoman_01_nor_gl_1k.jpg"
		},
		{
			"mimeType":"image/jpeg",
			"name":"Ottoman_01_diff",
			"uri":"textures/Ottoman_01_diff_1k.jpg"
		},
		{
			"mimeType":"image/jpeg",
			"name":"Ottoman_01_metallic-Ottoman_01_roughness",
			"uri":"textures/Ottoman_01_arm_1k.jpg"
		}
	],
	"accessors":[
		{
			"bufferView":0,
			"componentType":5126,
			"count":2144,
			"max":[
				0.44431084394454956,
				0.6243147253990173,
				0.31149476766586304
			],
			"min":[
				-0.44026535749435425,
				-3.309562089270912e-05,
				-0.30965369939804077
			],
			"type":"VEC3"
		},
		{
			"bufferView":1,
			"componentType":5126,
			"count":2144,
			"type":"VEC3"
		},
		{
			"bufferView":2,
			"componentType":5126,
			"count":2144,
			"type":"VEC2"
		},
		{
			"bufferView":3,
			"componentType":5123,
			"count":9000,
			"type":"SCALAR"
		}
	],
	"bufferViews":[
		{
			"buffer":0,
			"byteLength":25728,
			"byteOffset":0,
			"target":34962
		},
		{
			"buffer":0,
			"byteLength":25728,
			"byteOffset":25728,
			"target":34962
		},
		{
			"buffer":0,
			"byteLength":17152,
			"byteOffset":51456,
			"target":34962
		},
		{
			"buffer":0,
			"byteLength":18000,
			"byteOffset":68608,
			"target":34963
		}
	],
	"samplers":[
		{
			"magFilter":9729,
			"minFilter":9987
		}
	],
	"buffers":[
		{
			"byteLength":86608,
			"uri":"Ottoman_01.bin"
		}
	]
}
