{
	"asset":{
		"generator":"Khronos glTF Blender I/O v5.2.40",
		"version":"2.0"
	},
	"scene":0,
	"scenes":[
		{
			"name":"Scene",
			"nodes":[
				0,
				1,
				2,
				3,
				4,
				5,
				6,
				7,
				8,
				9,
				10,
				11,
				12,
				13,
				14,
				15,
				16,
				17,
				18,
				19,
				20,
				21,
				22,
				23,
				24,
				25,
				26,
				27,
				28,
				29,
				30,
				31,
				32
			]
		}
	],
	"nodes":[
		{
			"mesh":0,
			"name":"board"
		},
		{
			"mesh":1,
			"name":"piece_bishop_black_01",
			"translation":[
				-0.08683212101459503,
				0.017392655834555626,
				0.2018999457359314
			]
		},
		{
			"mesh":2,
			"name":"piece_bishop_black_02",
			"translation":[
				0.08683212101459503,
				0.017392655834555626,
				0.2018999457359314
			]
		},
		{
			"mesh":3,
			"name":"piece_bishop_white_01",
			"translation":[
				0.08683212101459503,
				0.017392655834555626,
				-0.20260828733444214
			]
		},
		{
			"mesh":4,
			"name":"piece_bishop_white_02",
			"translation":[
				-0.08683212101459503,
				0.017392655834555626,
				-0.20260828733444214
			]
		},
		{
			"mesh":5,
			"name":"piece_king_black",
			"translation":[
				0.028944021090865135,
				0.017392585054039955,
				0.2026081383228302
			]
		},
		{
			"mesh":6,
			"name":"piece_king_white",
			"translation":[
				0.028944039717316628,
				0.017392655834555626,
				-0.20260828733444214
			]
		},
		{
			"mesh":7,
			"name":"piece_knight_black_01",
			"translation":[
				-0.144720196723938,
				0.017392655834555626,
				0.2018999457359314
			]
		},
		{
			"mesh":8,
			"name":"piece_knight_black_02",
			"translation":[
				0.144720196723938,
				0.017392655834555626,
				0.2018999457359314
			]
		},
		{
			"mesh":9,
			"name":"piece_knight_white_01",
			"translation":[
				0.144720196723938,
				0.017392655834555626,
				-0.20260828733444214
			]
		},
		{
			"mesh":10,
			"name":"piece_knight_white_02",
			"translation":[
				-0.144720196723938,
				0.017392655834555626,
				-0.20260828733444214
			]
		},
		{
			"mesh":11,
			"name":"piece_pawn_black_01",
			"translation":[
				-0.20260828733444214,
				0.017392655834555626,
				0.14401185512542725
			]
		},
		{
			"mesh":12,
			"name":"piece_pawn_black_02",
			"translation":[
				-0.144720196723938,
				0.017392655834555626,
				0.14401185512542725
			]
		},
		{
			"mesh":13,
			"name":"piece_pawn_black_03",
			"translation":[
				-0.08683212101459503,
				0.017392655834555626,
				0.14401185512542725
			]
		},
		{
			"mesh":14,
			"name":"piece_pawn_black_04",
			"translation":[
				-0.028944039717316628,
				0.017392655834555626,
				0.14401185512542725
			]
		},
		{
			"mesh":15,
			"name":"piece_pawn_black_05",
			"translation":[
				0.028944039717316628,
				0.017392655834555626,
				0.14401185512542725
			]
		},
		{
			"mesh":16,
			"name":"piece_pawn_black_06",
			"translation":[
				0.08683212101459503,
				0.017392655834555626,
				0.14401185512542725
			]
		},
		{
			"mesh":17,
			"name":"piece_pawn_black_07",
			"translation":[
				0.144720196723938,
				0.017392655834555626,
				0.14401185512542725
			]
		},
		{
			"mesh":18,
			"name":"piece_pawn_black_08",
			"translation":[
				0.20260828733444214,
				0.017392655834555626,
				0.14401185512542725
			]
		},
		{
			"mesh":19,
			"name":"piece_pawn_white_01",
			"translation":[
				0.20260828733444214,
				0.017392655834555626,
				-0.144720196723938
			]
		},
		{
			"mesh":20,
			"name":"piece_pawn_white_02",
			"translation":[
				0.144720196723938,
				0.017392655834555626,
				-0.144720196723938
			]
		},
		{
			"mesh":21,
			"name":"piece_pawn_white_03",
			"translation":[
				0.08683212101459503,
				0.017392655834555626,
				-0.144720196723938
			]
		},
		{
			"mesh":22,
			"name":"piece_pawn_white_04",
			"translation":[
				0.028944039717316628,
				0.017392655834555626,
				-0.144720196723938
			]
		},
		{
			"mesh":23,
			"name":"piece_pawn_white_05",
			"translation":[
				-0.028944039717316628,
				0.017392655834555626,
				-0.144720196723938
			]
		},
		{
			"mesh":24,
			"name":"piece_pawn_white_06",
			"translation":[
				-0.08683212101459503,
				0.017392655834555626,
				-0.144720196723938
			]
		},
		{
			"mesh":25,
			"name":"piece_pawn_white_07",
			"translation":[
				-0.144720196723938,
				0.017392655834555626,
				-0.144720196723938
			]
		},
		{
			"mesh":26,
			"name":"piece_pawn_white_08",
			"translation":[
				-0.20260828733444214,
				0.017392655834555626,
				-0.144720196723938
			]
		},
		{
			"mesh":27,
			"name":"piece_queen_black",
			"translation":[
				-0.028944039717316628,
				0.017392655834555626,
				0.2018999457359314
			]
		},
		{
			"mesh":28,
			"name":"piece_queen_white",
			"translation":[
				-0.028944039717316628,
				0.017392655834555626,
				-0.20260828733444214
			]
		},
		{
			"mesh":29,
			"name":"piece_rook_black_01",
			"translation":[
				-0.20260828733444214,
				0.017392655834555626,
				0.2018999457359314
			]
		},
		{
			"mesh":30,
			"name":"piece_rook_black_02",
			"translation":[
				0.20260828733444214,
				0.017392655834555626,
				0.2018999457359314
			]
		},
		{
			"mesh":31,
			"name":"piece_rook_white_01",
			"translation":[
				0.20260828733444214,
				0.017392655834555626,
				-0.20260828733444214
			]
		},
		{
			"mesh":32,
			"name":"piece_rook_white_02",
			"translation":[
				-0.20260828733444214,
				0.017392655834555626,
				-0.20260828733444214
			]
		}
	],
	"materials":[
		{
			"doubleSided":true,
			"name":"chess_set_board",
			"normalTexture":{
				"index":0
			},
			"pbrMetallicRoughness":{
				"baseColorTexture":{
					"index":1
				},
				"metallicFactor":0,
				"metallicRoughnessTexture":{
					"index":2
				}
			}
		},
		{
			"doubleSided":true,
			"name":"chess_set_pieces_black",
			"normalTexture":{
				"index":3
			},
			"pbrMetallicRoughness":{
				"baseColorTexture":{
					"index":4
				},
				"metallicFactor":0,
				"metallicRoughnessTexture":{
					"index":5
				}
			}
		},
		{
			"doubleSided":true,
			"name":"chess_set_pieces_white",
			"normalTexture":{
				"index":6
			},
			"pbrMetallicRoughness":{
				"baseColorTexture":{
					"index":7
				},
				"metallicFactor":0,
				"metallicRoughnessTexture":{
					"index":8
				}
			}
		}
	],
	"meshes":[
		{
			"name":"Cube.004",
			"primitives":[
				{
					"attributes":{
						"POSITION":0,
						"NORMAL":1,
						"TEXCOORD_0":2
					},
					"indices":3,
					"material":0
				}
			]
		},
		{
			"name":"Cylinder.022",
			"primitives":[
				{
					"attributes":{
						"POSITION":4,
						"NORMAL":5,
						"TEXCOORD_0":6
					},
					"indices":7,
					"material":1
				}
			]
		},
		{
			"name":"Cylinder.025",
			"primitives":[
				{
					"attributes":{
						"POSITION":8,
						"NORMAL":9,
						"TEXCOORD_0":10
					},
					"indices":7,
					"material":1
				}
			]
		},
		{
			"name":"Cylinder.003",
			"primitives":[
				{
					"attributes":{
						"POSITION":11,
						"NORMAL":12,
						"TEXCOORD_0":13
					},
					"indices":14,
					"material":2
				}
			]
		},
		{
			"name":"Cylinder.001",
			"primitives":[
				{
					"attributes":{
						"POSITION":15,
						"NORMAL":16,
						"TEXCOORD_0":17
					},
					"indices":14,
					"material":2
				}
			]
		},
		{
			"name":"Cylinder.024",
			"primitives":[
				{
					"attributes":{
						"POSITION":18,
						"NORMAL":19,
						"TEXCOORD_0":20,
						"TEXCOORD_1":21
					},
					"indices":22,
					"material":1
				}
			]
		},
		{
			"name":"Cylinder.006",
			"primitives":[
				{
					"attributes":{
						"POSITION":23,
						"NORMAL":24,
						"TEXCOORD_0":25,
						"TEXCOORD_1":26
					},
					"indices":22,
					"material":2
				}
			]
		},
		{
			"name":"mesh.007",
			"primitives":[
				{
					"attributes":{
						"POSITION":27,
						"NORMAL":28,
						"TEXCOORD_0":29
					},
					"indices":30,
					"material":1
				}
			]
		},
		{
			"name":"mesh.008",
			"primitives":[
				{
					"attributes":{
						"POSITION":31,
						"NORMAL":32,
						"TEXCOORD_0":33
					},
					"indices":30,
					"material":1
				}
			]
		},
		{
			"name":"mesh.025",
			"primitives":[
				{
					"attributes":{
						"POSITION":34,
						"NORMAL":35,
						"TEXCOORD_0":36
					},
					"indices":37,
					"material":2
				}
			]
		},
		{
			"name":"mesh.006",
			"primitives":[
				{
					"attributes":{
						"POSITION":38,
						"NORMAL":39,
						"TEXCOORD_0":40
					},
					"indices":37,
					"material":2
				}
			]
		},
		{
			"name":"Cylinder.021",
			"primitives":[
				{
					"attributes":{
						"POSITION":41,
						"NORMAL":42,
						"TEXCOORD_0":43
					},
					"indices":44,
					"material":1
				}
			]
		},
		{
			"name":"Cylinder.026",
			"primitives":[
				{
					"attributes":{
						"POSITION":45,
						"NORMAL":46,
						"TEXCOORD_0":47
					},
					"indices":44,
					"material":1
				}
			]
		},
		{
			"name":"Cylinder.027",
			"primitives":[
				{
					"attributes":{
						"POSITION":48,
						"NORMAL":49,
						"TEXCOORD_0":50
					},
					"indices":44,
					"material":1
				}
			]
		},
		{
			"name":"Cylinder.028",
			"primitives":[
				{
					"attributes":{
						"POSITION":51,
						"NORMAL":52,
						"TEXCOORD_0":53
					},
					"indices":44,
					"material":1
				}
			]
		},
		{
			"name":"Cylinder.029",
			"primitives":[
				{
					"attributes":{
						"POSITION":54,
						"NORMAL":55,
						"TEXCOORD_0":56
					},
					"indices":44,
					"material":1
				}
			]
		},
		{
			"name":"Cylinder.030",
			"primitives":[
				{
					"attributes":{
						"POSITION":57,
						"NORMAL":58,
						"TEXCOORD_0":59
					},
					"indices":44,
					"material":1
				}
			]
		},
		{
			"name":"Cylinder.031",
			"primitives":[
				{
					"attributes":{
						"POSITION":60,
						"NORMAL":61,
						"TEXCOORD_0":62
					},
					"indices":44,
					"material":1
				}
			]
		},
		{
			"name":"Cylinder.032",
			"primitives":[
				{
					"attributes":{
						"POSITION":63,
						"NORMAL":64,
						"TEXCOORD_0":65
					},
					"indices":44,
					"material":1
				}
			]
		},
		{
			"name":"Cylinder.002",
			"primitives":[
				{
					"attributes":{
						"POSITION":66,
						"NORMAL":67,
						"TEXCOORD_0":68
					},
					"indices":69,
					"material":2
				}
			]
		},
		{
			"name":"Cylinder.014",
			"primitives":[
				{
					"attributes":{
						"POSITION":70,
						"NORMAL":71,
						"TEXCOORD_0":72
					},
					"indices":69,
					"material":2
				}
			]
		},
		{
			"name":"Cylinder.015",
			"primitives":[
				{
					"attributes":{
						"POSITION":73,
						"NORMAL":74,
						"TEXCOORD_0":75
					},
					"indices":69,
					"material":2
				}
			]
		},
		{
			"name":"Cylinder.016",
			"primitives":[
				{
					"attributes":{
						"POSITION":76,
						"NORMAL":77,
						"TEXCOORD_0":78
					},
					"indices":69,
					"material":2
				}
			]
		},
		{
			"name":"Cylinder.017",
			"primitives":[
				{
					"attributes":{
						"POSITION":79,
						"NORMAL":80,
						"TEXCOORD_0":81
					},
					"indices":69,
					"material":2
				}
			]
		},
		{
			"name":"Cylinder.018",
			"primitives":[
				{
					"attributes":{
						"POSITION":82,
						"NORMAL":83,
						"TEXCOORD_0":84
					},
					"indices":69,
					"material":2
				}
			]
		},
		{
			"name":"Cylinder.019",
			"primitives":[
				{
					"attributes":{
						"POSITION":85,
						"NORMAL":86,
						"TEXCOORD_0":87
					},
					"indices":69,
					"material":2
				}
			]
		},
		{
			"name":"Cylinder.020",
			"primitives":[
				{
					"attributes":{
						"POSITION":88,
						"NORMAL":89,
						"TEXCOORD_0":90
					},
					"indices":69,
					"material":2
				}
			]
		},
		{
			"name":"Cylinder.023",
			"primitives":[
				{
					"attributes":{
						"POSITION":91,
						"NORMAL":92,
						"TEXCOORD_0":93
					},
					"indices":94,
					"material":1
				}
			]
		},
		{
			"name":"Cylinder.005",
			"primitives":[
				{
					"attributes":{
						"POSITION":95,
						"NORMAL":96,
						"TEXCOORD_0":97
					},
					"indices":94,
					"material":2
				}
			]
		},
		{
			"name":"ChessRook.007",
			"primitives":[
				{
					"attributes":{
						"POSITION":98,
						"NORMAL":99,
						"TEXCOORD_0":100
					},
					"indices":101,
					"material":1
				}
			]
		},
		{
			"name":"ChessRook.008",
			"primitives":[
				{
					"attributes":{
						"POSITION":102,
						"NORMAL":103,
						"TEXCOORD_0":104
					},
					"indices":105,
					"material":1
				}
			]
		},
		{
			"name":"ChessRook.003",
			"primitives":[
				{
					"attributes":{
						"POSITION":106,
						"NORMAL":107,
						"TEXCOORD_0":108
					},
					"indices":109,
					"material":2
				}
			]
		},
		{
			"name":"ChessRook.002",
			"primitives":[
				{
					"attributes":{
						"POSITION":110,
						"NORMAL":111,
						"TEXCOORD_0":112
					},
					"indices":109,
					"material":2
				}
			]
		}
	],
	"textures":[
		{
			"sampler":0,
			"source":0
		},
		{
			"sampler":0,
			"source":1
		},
		{
			"sampler":0,
			"source":2
		},
		{
			"sampler":0,
			"source":3
		},
		{
			"sampler":0,
			"source":4
		},
		{
			"sampler":0,
			"source":5
		},
		{
			"sampler":0,
			"source":6
		},
		{
			"sampler":0,
			"source":7
		},
		{
			"sampler":0,
			"source":8
		}
	],
	"images":[
		{
			"mimeType":"image/jpeg",
			"name":"chess_set_board_nor_gl",
			"uri":"textures/chess_set_board_nor_gl_1k.jpg"
		},
		{
			"mimeType":"image/jpeg",
			"name":"chess_set_board_diff",
			"uri":"textures/chess_set_board_diff_1k.jpg"
		},
		{
			"mimeType":"image/jpeg",
			"name":"chess_set_board_rough",
			"uri":"textures/chess_set_board_arm_1k.jpg"
		},
		{
			"mimeType":"image/jpeg",
			"name":"chess_set_pieces_black_nor_gl",
			"uri":"textures/chess_set_pieces_black_nor_gl_1k.jpg"
		},
		{
			"mimeType":"image/jpeg",
			"name":"chess_set_pieces_black_diff",
			"uri":"textures/chess_set_pieces_black_diff_1k.jpg"
		},
		{
			"mimeType":"image/jpeg",
			"name":"chess_set_pieces_black_rough",
			"uri":"textures/chess_set_pieces_black_arm_1k.jpg"
		},
		{
			"mimeType":"image/jpeg",
			"name":"chess_set_pieces_white_nor_gl",
			"uri":"textures/chess_set_pieces_white_nor_gl_1k.jpg"
		},
		{
			"mimeType":"image/jpeg",
			"name":"chess_set_pieces_white_diff",
			"uri":"textures/chess_set_pieces_white_diff_1k.jpg"
		},
		{
			"mimeType":"image/jpeg",
			"name":"chess_set_pieces_white_rough",
			"uri":"textures/chess_set_pieces_white_arm_1k.jpg"
		}
	],
	"accessors":[
		{
			"bufferView":0,
			"componentType":5126,
			"count":519,
			"max":[
				0.2766224145889282,
				0.01739278994500637,
				0.2766219973564148
			],
			"min":[
				-0.2766224145889282,
				7.558097422588617e-05,
				-0.2766219973564148
			],
			"type":"VEC3"
		},
		{
			"bufferView":1,
			"componentType":5126,
			"count":519,
			"type":"VEC3"
		},
		{
			"bufferView":2,
			"componentType":5126,
			"count":519,
			"type":"VEC2"
		},
		{
			"bufferView":3,
			"componentType":5123,
			"count":1065,
			"type":"SCALAR"
		},
		{
			"bufferView":4,
			"componentType":5126,
			"count":422,
			"max":[
				0.016221890226006508,
				0.08555403351783752,
				0.016075003892183304
			],
			"min":[
				-0.016107864677906036,
				-0.00010517165355850011,
				-0.01593024842441082
			],
			"type":"VEC3"
		},
		{
			"bufferView":5,
			"componentType":5126,
			"count":422,
			"type":"VEC3"
		},
		{
			"bufferView":6,
			"componentType":5126,
			"count":422,
			"type":"VEC2"
		},
		{
			"bufferView":7,
			"componentType":5123,
			"count":1410,
			"type":"SCALAR"
		},
		{
			"bufferView":8,
			"componentType":5126,
			"count":422,
			"max":[
				0.016221890226006508,
				0.08555403351783752,
				0.016075003892183304
			],
			"min":[
				-0.016107864677906036,
				-0.00010517165355850011,
				-0.01593024842441082
			],
			"type":"VEC3"
		},
		{
			"bufferView":9,
			"componentType":5126,
			"count":422,
			"type":"VEC3"
		},
		{
			"bufferView":10,
			"componentType":5126,
			"count":422,
			"type":"VEC2"
		},
		{
			"bufferView":11,
			"componentType":5126,
			"count":422,
			"max":[
				0.016107864677906036,
				0.08555403351783752,
				0.01593024842441082
			],
			"min":[
				-0.01622188836336136,
				-0.00010517422197153792,
				-0.016075003892183304
			],
			"type":"VEC3"
		},
		{
			"bufferView":12,
			"componentType":5126,
			"count":422,
			"type":"VEC3"
		},
		{
			"bufferView":13,
			"componentType":5126,
			"count":422,
			"type":"VEC2"
		},
		{
			"bufferView":14,
			"componentType":5123,
			"count":1410,
			"type":"SCALAR"
		},
		{
			"bufferView":15,
			"componentType":5126,
			"count":422,
			"max":[
				0.016107864677906036,
				0.08555403351783752,
				0.01593024842441082
			],
			"min":[
				-0.01622188836336136,
				-0.00010517422197153792,
				-0.016075003892183304
			],
			"type":"VEC3"
		},
		{
			"bufferView":16,
			"componentType":5126,
			"count":422,
			"type":"VEC3"
		},
		{
			"bufferView":17,
			"componentType":5126,
			"count":422,
			"type":"VEC2"
		},
		{
			"bufferView":18,
			"componentType":5126,
			"count":439,
			"max":[
				0.02100030891597271,
				0.09478509426116943,
				0.02078908681869507
			],
			"min":[
				-0.020970160141587257,
				-9.418199624633417e-05,
				-0.02096579037606716
			],
			"type":"VEC3"
		},
		{
			"bufferView":19,
			"componentType":5126,
			"count":439,
			"type":"VEC3"
		},
		{
			"bufferView":20,
			"componentType":5126,
			"count":439,
			"type":"VEC2"
		},
		{
			"bufferView":21,
			"componentType":5126,
			"count":439,
			"type":"VEC2"
		},
		{
			"bufferView":22,
			"componentType":5123,
			"count":1446,
			"type":"SCALAR"
		},
		{
			"bufferView":23,
			"componentType":5126,
			"count":439,
			"max":[
				0.020970162004232407,
				0.09478509426116943,
				0.02096579223871231
			],
			"min":[
				-0.02100030705332756,
				-9.418167610419914e-05,
				-0.020789090543985367
			],
			"type":"VEC3"
		},
		{
			"bufferView":24,
			"componentType":5126,
			"count":439,
			"type":"VEC3"
		},
		{
			"bufferView":25,
			"componentType":5126,
			"count":439,
			"type":"VEC2"
		},
		{
			"bufferView":26,
			"componentType":5126,
			"count":439,
			"type":"VEC2"
		},
		{
			"bufferView":27,
			"componentType":5126,
			"count":418,
			"max":[
				0.01965339109301567,
				0.07491718977689743,
				0.02091773971915245
			],
			"min":[
				-0.019693654030561447,
				2.1078965801279992e-05,
				-0.02479919046163559
			],
			"type":"VEC3"
		},
		{
			"bufferView":28,
			"componentType":5126,
			"count":418,
			"type":"VEC3"
		},
		{
			"bufferView":29,
			"componentType":5126,
			"count":418,
			"type":"VEC2"
		},
		{
			"bufferView":30,
			"componentType":5123,
			"count":1284,
			"type":"SCALAR"
		},
		{
			"bufferView":31,
			"componentType":5126,
			"count":418,
			"max":[
				0.01965339109301567,
				0.07491718977689743,
				0.02091773971915245
			],
			"min":[
				-0.019693654030561447,
				2.1078965801279992e-05,
				-0.02479919046163559
			],
			"type":"VEC3"
		},
		{
			"bufferView":32,
			"componentType":5126,
			"count":418,
			"type":"VEC3"
		},
		{
			"bufferView":33,
			"componentType":5126,
			"count":418,
			"type":"VEC2"
		},
		{
			"bufferView":34,
			"componentType":5126,
			"count":418,
			"max":[
				0.019693654030561447,
				0.07491718977689743,
				0.02479919046163559
			],
			"min":[
				-0.01965339109301567,
				2.107900036207866e-05,
				-0.02091773971915245
			],
			"type":"VEC3"
		},
		{
			"bufferView":35,
			"componentType":5126,
			"count":418,
			"type":"VEC3"
		},
		{
			"bufferView":36,
			"componentType":5126,
			"count":418,
			"type":"VEC2"
		},
		{
			"bufferView":37,
			"componentType":5123,
			"count":1284,
			"type":"SCALAR"
		},
		{
			"bufferView":38,
			"componentType":5126,
			"count":418,
			"max":[
				0.019693654030561447,
				0.07491718977689743,
				0.02479919046163559
			],
			"min":[
				-0.01965339109301567,
				2.107900036207866e-05,
				-0.02091773971915245
			],
			"type":"VEC3"
		},
		{
			"bufferView":39,
			"componentType":5126,
			"count":418,
			"type":"VEC3"
		},
		{
			"bufferView":40,
			"componentType":5126,
			"count":418,
			"type":"VEC2"
		},
		{
			"bufferView":41,
			"componentType":5126,
			"count":267,
			"max":[
				0.014774211682379246,
				0.05366027355194092,
				0.014937120489776134
			],
			"min":[
				-0.01476969849318266,
				-0.0004389996756799519,
				-0.014375874772667885
			],
			"type":"VEC3"
		},
		{
			"bufferView":42,
			"componentType":5126,
			"count":267,
			"type":"VEC3"
		},
		{
			"bufferView":43,
			"componentType":5126,
			"count":267,
			"type":"VEC2"
		},
		{
			"bufferView":44,
			"componentType":5123,
			"count":789,
			"type":"SCALAR"
		},
		{
			"bufferView":45,
			"componentType":5126,
			"count":267,
			"max":[
				0.014774211682379246,
				0.05366027355194092,
				0.014937120489776134
			],
			"min":[
				-0.01476969849318266,
				-0.0004389996756799519,
				-0.014375874772667885
			],
			"type":"VEC3"
		},
		{
			"bufferView":46,
			"componentType":5126,
			"count":267,
			"type":"VEC3"
		},
		{
			"bufferView":47,
			"componentType":5126,
			"count":267,
			"type":"VEC2"
		},
		{
			"bufferView":48,
			"componentType":5126,
			"count":267,
			"max":[
				0.014774211682379246,
				0.05366027355194092,
				0.014937120489776134
			],
			"min":[
				-0.01476969849318266,
				-0.0004389996756799519,
				-0.014375874772667885
			],
			"type":"VEC3"
		},
		{
			"bufferView":49,
			"componentType":5126,
			"count":267,
			"type":"VEC3"
		},
		{
			"bufferView":50,
			"componentType":5126,
			"count":267,
			"type":"VEC2"
		},
		{
			"bufferView":51,
			"componentType":5126,
			"count":267,
			"max":[
				0.014774211682379246,
				0.05366027355194092,
				0.014937120489776134
			],
			"min":[
				-0.01476969849318266,
				-0.0004389996756799519,
				-0.014375874772667885
			],
			"type":"VEC3"
		},
		{
			"bufferView":52,
			"componentType":5126,
			"count":267,
			"type":"VEC3"
		},
		{
			"bufferView":53,
			"componentType":5126,
			"count":267,
			"type":"VEC2"
		},
		{
			"bufferView":54,
			"componentType":5126,
			"count":267,
			"max":[
				0.014774211682379246,
				0.05366027355194092,
				0.014937120489776134
			],
			"min":[
				-0.01476969849318266,
				-0.0004389996756799519,
				-0.014375874772667885
			],
			"type":"VEC3"
		},
		{
			"bufferView":55,
			"componentType":5126,
			"count":267,
			"type":"VEC3"
		},
		{
			"bufferView":56,
			"componentType":5126,
			"count":267,
			"type":"VEC2"
		},
		{
			"bufferView":57,
			"componentType":5126,
			"count":267,
			"max":[
				0.014774211682379246,
				0.05366027355194092,
				0.014937120489776134
			],
			"min":[
				-0.01476969849318266,
				-0.0004389996756799519,
				-0.014375874772667885
			],
			"type":"VEC3"
		},
		{
			"bufferView":58,
			"componentType":5126,
			"count":267,
			"type":"VEC3"
		},
		{
			"bufferView":59,
			"componentType":5126,
			"count":267,
			"type":"VEC2"
		},
		{
			"bufferView":60,
			"componentType":5126,
			"count":267,
			"max":[
				0.014774211682379246,
				0.05366027355194092,
				0.014937120489776134
			],
			"min":[
				-0.01476969849318266,
				-0.0004389996756799519,
				-0.014375874772667885
			],
			"type":"VEC3"
		},
		{
			"bufferView":61,
			"componentType":5126,
			"count":267,
			"type":"VEC3"
		},
		{
			"bufferView":62,
			"componentType":5126,
			"count":267,
			"type":"VEC2"
		},
		{
			"bufferView":63,
			"componentType":5126,
			"count":267,
			"max":[
				0.014774211682379246,
				0.05366027355194092,
				0.014937120489776134
			],
			"min":[
				-0.01476969849318266,
				-0.0004389996756799519,
				-0.014375874772667885
			],
			"type":"VEC3"
		},
		{
			"bufferView":64,
			"componentType":5126,
			"count":267,
			"type":"VEC3"
		},
		{
			"bufferView":65,
			"componentType":5126,
			"count":267,
			"type":"VEC2"
		},
		{
			"bufferView":66,
			"componentType":5126,
			"count":268,
			"max":[
				0.01476969849318266,
				0.05366027355194092,
				0.01437587384134531
			],
			"min":[
				-0.014774211682379246,
				-0.00043899897718802094,
				-0.01493711955845356
			],
			"type":"VEC3"
		},
		{
			"bufferView":67,
			"componentType":5126,
			"count":268,
			"type":"VEC3"
		},
		{
			"bufferView":68,
			"componentType":5126,
			"count":268,
			"type":"VEC2"
		},
		{
			"bufferView":69,
			"componentType":5123,
			"count":789,
			"type":"SCALAR"
		},
		{
			"bufferView":70,
			"componentType":5126,
			"count":268,
			"max":[
				0.01476969849318266,
				0.05366027355194092,
				0.01437587384134531
			],
			"min":[
				-0.014774211682379246,
				-0.00043899897718802094,
				-0.01493711955845356
			],
			"type":"VEC3"
		},
		{
			"bufferView":71,
			"componentType":5126,
			"count":268,
			"type":"VEC3"
		},
		{
			"bufferView":72,
			"componentType":5126,
			"count":268,
			"type":"VEC2"
		},
		{
			"bufferView":73,
			"componentType":5126,
			"count":268,
			"max":[
				0.01476969849318266,
				0.05366027355194092,
				0.01437587384134531
			],
			"min":[
				-0.014774211682379246,
				-0.00043899897718802094,
				-0.01493711955845356
			],
			"type":"VEC3"
		},
		{
			"bufferView":74,
			"componentType":5126,
			"count":268,
			"type":"VEC3"
		},
		{
			"bufferView":75,
			"componentType":5126,
			"count":268,
			"type":"VEC2"
		},
		{
			"bufferView":76,
			"componentType":5126,
			"count":268,
			"max":[
				0.01476969849318266,
				0.05366027355194092,
				0.01437587384134531
			],
			"min":[
				-0.014774211682379246,
				-0.00043899897718802094,
				-0.01493711955845356
			],
			"type":"VEC3"
		},
		{
			"bufferView":77,
			"componentType":5126,
			"count":268,
			"type":"VEC3"
		},
		{
			"bufferView":78,
			"componentType":5126,
			"count":268,
			"type":"VEC2"
		},
		{
			"bufferView":79,
			"componentType":5126,
			"count":268,
			"max":[
				0.01476969849318266,
				0.05366027355194092,
				0.01437587384134531
			],
			"min":[
				-0.014774211682379246,
				-0.00043899897718802094,
				-0.01493711955845356
			],
			"type":"VEC3"
		},
		{
			"bufferView":80,
			"componentType":5126,
			"count":268,
			"type":"VEC3"
		},
		{
			"bufferView":81,
			"componentType":5126,
			"count":268,
			"type":"VEC2"
		},
		{
			"bufferView":82,
			"componentType":5126,
			"count":268,
			"max":[
				0.01476969849318266,
				0.05366027355194092,
				0.01437587384134531
			],
			"min":[
				-0.014774211682379246,
				-0.00043899897718802094,
				-0.01493711955845356
			],
			"type":"VEC3"
		},
		{
			"bufferView":83,
			"componentType":5126,
			"count":268,
			"type":"VEC3"
		},
		{
			"bufferView":84,
			"componentType":5126,
			"count":268,
			"type":"VEC2"
		},
		{
			"bufferView":85,
			"componentType":5126,
			"count":268,
			"max":[
				0.01476969849318266,
				0.05366027355194092,
				0.01437587384134531
			],
			"min":[
				-0.014774211682379246,
				-0.00043899897718802094,
				-0.01493711955845356
			],
			"type":"VEC3"
		},
		{
			"bufferView":86,
			"componentType":5126,
			"count":268,
			"type":"VEC3"
		},
		{
			"bufferView":87,
			"componentType":5126,
			"count":268,
			"type":"VEC2"
		},
		{
			"bufferView":88,
			"componentType":5126,
			"count":268,
			"max":[
				0.01476969849318266,
				0.05366027355194092,
				0.01437587384134531
			],
			"min":[
				-0.014774211682379246,
				-0.00043899897718802094,
				-0.01493711955845356
			],
			"type":"VEC3"
		},
		{
			"bufferView":89,
			"componentType":5126,
			"count":268,
			"type":"VEC3"
		},
		{
			"bufferView":90,
			"componentType":5126,
			"count":268,
			"type":"VEC2"
		},
		{
			"bufferView":91,
			"componentType":5126,
			"count":404,
			"max":[
				0.020398031920194626,
				0.0903882309794426,
				0.02058042399585247
			],
			"min":[
				-0.020320137962698936,
				-0.00010474621376488358,
				-0.020745832473039627
			],
			"type":"VEC3"
		},
		{
			"bufferView":92,
			"componentType":5126,
			"count":404,
			"type":"VEC3"
		},
		{
			"bufferView":93,
			"componentType":5126,
			"count":404,
			"type":"VEC2"
		},
		{
			"bufferView":94,
			"componentType":5123,
			"count":1419,
			"type":"SCALAR"
		},
		{
			"bufferView":95,
			"componentType":5126,
			"count":404,
			"max":[
				0.020320141687989235,
				0.0903882309794426,
				0.020745832473039627
			],
			"min":[
				-0.020398033782839775,
				-0.00010474584996700287,
				-0.02058042399585247
			],
			"type":"VEC3"
		},
		{
			"bufferView":96,
			"componentType":5126,
			"count":404,
			"type":"VEC3"
		},
		{
			"bufferView":97,
			"componentType":5126,
			"count":404,
			"type":"VEC2"
		},
		{
			"bufferView":98,
			"componentType":5126,
			"count":547,
			"max":[
				0.017980724573135376,
				0.06049573794007301,
				0.018050501123070717
			],
			"min":[
				-0.018461359664797783,
				-0.00030958742718212306,
				-0.018690863624215126
			],
			"type":"VEC3"
		},
		{
			"bufferView":99,
			"componentType":5126,
			"count":547,
			"type":"VEC3"
		},
		{
			"bufferView":100,
			"componentType":5126,
			"count":547,
			"type":"VEC2"
		},
		{
			"bufferView":101,
			"componentType":5123,
			"count":1434,
			"type":"SCALAR"
		},
		{
			"bufferView":102,
			"componentType":5126,
			"count":545,
			"max":[
				0.017980724573135376,
				0.06049573794007301,
				0.01805032230913639
			],
			"min":[
				-0.018461359664797783,
				-0.0003095855063293129,
				-0.0186906810849905
			],
			"type":"VEC3"
		},
		{
			"bufferView":103,
			"componentType":5126,
			"count":545,
			"type":"VEC3"
		},
		{
			"bufferView":104,
			"componentType":5126,
			"count":545,
			"type":"VEC2"
		},
		{
			"bufferView":105,
			"componentType":5123,
			"count":1434,
			"type":"SCALAR"
		},
		{
			"bufferView":106,
			"componentType":5126,
			"count":545,
			"max":[
				0.018461357802152634,
				0.06049573794007301,
				0.018690863624215126
			],
			"min":[
				-0.017980726435780525,
				-0.00030958675779402256,
				-0.018050501123070717
			],
			"type":"VEC3"
		},
		{
			"bufferView":107,
			"componentType":5126,
			"count":545,
			"type":"VEC3"
		},
		{
			"bufferView":108,
			"componentType":5126,
			"count":545,
			"type":"VEC2"
		},
		{
			"bufferView":109,
			"componentType":5123,
			"count":1431,
			"type":"SCALAR"
		},
		{
			"bufferView":110,
			"componentType":5126,
			"count":545,
			"max":[
				0.018461357802152634,
				0.06049573794007301,
				0.018690863624215126
			],
			"min":[
				-0.017980726435780525,
				-0.00030958675779402256,
				-0.018050501123070717
			],
			"type":"VEC3"
		},
		{
			"bufferView":111,
			"componentType":5126,
			"count":545,
			"type":"VEC3"
		},
		{
			"bufferView":112,
			"componentType":5126,
			"count":545,
			"type":"VEC2"
		}
	],
	"bufferViews":[
		{
			"buffer":0,
			"byteLength":6228,
			"byteOffset":0,
			"target":34962
		},
		{
			"buffer":0,
			"byteLength":6228,
			"byteOffset":6228,
			"target":34962
		},
		{
			"buffer":0,
			"byteLength":4152,
			"byteOffset":12456,
			"target":34962
		},
		{
			"buffer":0,
			"byteLength":2130,
			"byteOffset":16608,
			"target":34963
		},
		{
			"buffer":0,
			"byteLength":5064,
			"byteOffset":18740,
			"target":34962
		},
		{
			"buffer":0,
			"byteLength":5064,
			"byteOffset":23804,
			"target":34962
		},
		{
			"buffer":0,
			"byteLength":3376,
			"byteOffset":28868,
			"target":34962
		},
		{
			"buffer":0,
			"byteLength":2820,
			"byteOffset":32244,
			"target":34963
		},
		{
			"buffer":0,
			"byteLength":5064,
			"byteOffset":35064,
			"target":34962
		},
		{
			"buffer":0,
			"byteLength":5064,
			"byteOffset":40128,
			"target":34962
		},
		{
			"buffer":0,
			"byteLength":3376,
			"byteOffset":45192,
			"target":34962
		},
		{
			"buffer":0,
			"byteLength":5064,
			"byteOffset":48568,
			"target":34962
		},
		{
			"buffer":0,
			"byteLength":5064,
			"byteOffset":53632,
			"target":34962
		},
		{
			"buffer":0,
			"byteLength":3376,
			"byteOffset":58696,
			"target":34962
		},
		{
			"buffer":0,
			"byteLength":2820,
			"byteOffset":62072,
			"target":34963
		},
		{
			"buffer":0,
			"byteLength":5064,
			"byteOffset":64892,
			"target":34962
		},
		{
			"buffer":0,
			"byteLength":5064,
			"byteOffset":69956,
			"target":34962
		},
		{
			"buffer":0,
			"byteLength":3376,
			"byteOffset":75020,
			"target":34962
		},
		{
			"buffer":0,
			"byteLength":5268,
			"byteOffset":78396,
			"target":34962
		},
		{
			"buffer":0,
			"byteLength":5268,
			"byteOffset":83664,
			"target":34962
		},
		{
			"buffer":0,
			"byteLength":3512,
			"byteOffset":88932,
			"target":34962
		},
		{
			"buffer":0,
			"byteLength":3512,
			"byteOffset":92444,
			"target":34962
		},
		{
			"buffer":0,
			"byteLength":2892,
			"byteOffset":95956,
			"target":34963
		},
		{
			"buffer":0,
			"byteLength":5268,
			"byteOffset":98848,
			"target":34962
		},
		{
			"buffer":0,
			"byteLength":5268,
			"byteOffset":104116,
			"target":34962
		},
		{
			"buffer":0,
			"byteLength":3512,
			"byteOffset":109384,
			"target":34962
		},
		{
			"buffer":0,
			"byteLength":3512,
			"byteOffset":112896,
			"target":34962
		},
		{
			"buffer":0,
			"byteLength":5016,
			"byteOffset":116408,
			"target":34962
		},
		{
			"buffer":0,
			"byteLength":5016,
			"byteOffset":121424,
			"target":34962
		},
		{
			"buffer":0,
			"byteLength":3344,
			"byteOffset":126440,
			"target":34962
		},
		{
			"buffer":0,
			"byteLength":2568,
			"byteOffset":129784,
			"target":34963
		},
		{
			"buffer":0,
			"byteLength":5016,
			"byteOffset":132352,
			"target":34962
		},
		{
			"buffer":0,
			"byteLength":5016,
			"byteOffset":137368,
			"target":34962
		},
		{
			"buffer":0,
			"byteLength":3344,
			"byteOffset":142384,
			"target":34962
		},
		{
			"buffer":0,
			"byteLength":5016,
			"byteOffset":145728,
			"target":34962
		},
		{
			"buffer":0,
			"byteLength":5016,
			"byteOffset":150744,
			"target":34962
		},
		{
			"buffer":0,
			"byteLength":3344,
			"byteOffset":155760,
			"target":34962
		},
		{
			"buffer":0,
			"byteLength":2568,
			"byteOffset":159104,
			"target":34963
		},
		{
			"buffer":0,
			"byteLength":5016,
			"byteOffset":161672,
			"target":34962
		},
		{
			"buffer":0,
			"byteLength":5016,
			"byteOffset":166688,
			"target":34962
		},
		{
			"buffer":0,
			"byteLength":3344,
			"byteOffset":171704,
			"target":34962
		},
		{
			"buffer":0,
			"byteLength":3204,
			"byteOffset":175048,
			"target":34962
		},
		{
			"buffer":0,
			"byteLength":3204,
			"byteOffset":178252,
			"target":34962
		},
		{
			"buffer":0,
			"byteLength":2136,
			"byteOffset":181456,
			"target":34962
		},
		{
			"buffer":0,
			"byteLength":1578,
			"byteOffset":183592,
			"target":34963
		},
		{
			"buffer":0,
			"byteLength":3204,
			"byteOffset":185172,
			"target":34962
		},
		{
			"buffer":0,
			"byteLength":3204,
			"byteOffset":188376,
			"target":34962
		},
		{
			"buffer":0,
			"byteLength":2136,
			"byteOffset":191580,
			"target":34962
		},
		{
			"buffer":0,
			"byteLength":3204,
			"byteOffset":193716,
			"target":34962
		},
		{
			"buffer":0,
			"byteLength":3204,
			"byteOffset":196920,
			"target":34962
		},
		{
			"buffer":0,
			"byteLength":2136,
			"byteOffset":200124,
			"target":34962
		},
		{
			"buffer":0,
			"byteLength":3204,
			"byteOffset":202260,
			"target":34962
		},
		{
			"buffer":0,
			"byteLength":3204,
			"byteOffset":205464,
			"target":34962
		},
		{
			"buffer":0,
			"byteLength":2136,
			"byteOffset":208668,
			"target":34962
		},
		{
			"buffer":0,
			"byteLength":3204,
			"byteOffset":210804,
			"target":34962
		},
		{
			"buffer":0,
			"byteLength":3204,
			"byteOffset":214008,
			"target":34962
		},
		{
			"buffer":0,
			"byteLength":2136,
			"byteOffset":217212,
			"target":34962
		},
		{
			"buffer":0,
			"byteLength":3204,
			"byteOffset":219348,
			"target":34962
		},
		{
			"buffer":0,
			"byteLength":3204,
			"byteOffset":222552,
			"target":34962
		},
		{
			"buffer":0,
			"byteLength":2136,
			"byteOffset":225756,
			"target":34962
		},
		{
			"buffer":0,
			"byteLength":3204,
			"byteOffset":227892,
			"target":34962
		},
		{
			"buffer":0,
			"byteLength":3204,
			"byteOffset":231096,
			"target":34962
		},
		{
			"buffer":0,
			"byteLength":2136,
			"byteOffset":234300,
			"target":34962
		},
		{
			"buffer":0,
			"byteLength":3204,
			"byteOffset":236436,
			"target":34962
		},
		{
			"buffer":0,
			"byteLength":3204,
			"byteOffset":239640,
			"target":34962
		},
		{
			"buffer":0,
			"byteLength":2136,
			"byteOffset":242844,
			"target":34962
		},
		{
			"buffer":0,
			"byteLength":3216,
			"byteOffset":244980,
			"target":34962
		},
		{
			"buffer":0,
			"byteLength":3216,
			"byteOffset":248196,
			"target":34962
		},
		{
			"buffer":0,
			"byteLength":2144,
			"byteOffset":251412,
			"target":34962
		},
		{
			"buffer":0,
			"byteLength":1578,
			"byteOffset":253556,
			"target":34963
		},
		{
			"buffer":0,
			"byteLength":3216,
			"byteOffset":255136,
			"target":34962
		},
		{
			"buffer":0,
			"byteLength":3216,
			"byteOffset":258352,
			"target":34962
		},
		{
			"buffer":0,
			"byteLength":2144,
			"byteOffset":261568,
			"target":34962
		},
		{
			"buffer":0,
			"byteLength":3216,
			"byteOffset":263712,
			"target":34962
		},
		{
			"buffer":0,
			"byteLength":3216,
			"byteOffset":266928,
			"target":34962
		},
		{
			"buffer":0,
			"byteLength":2144,
			"byteOffset":270144,
			"target":34962
		},
		{
			"buffer":0,
			"byteLength":3216,
			"byteOffset":272288,
			"target":34962
		},
		{
			"buffer":0,
			"byteLength":3216,
			"byteOffset":275504,
			"target":34962
		},
		{
			"buffer":0,
			"byteLength":2144,
			"byteOffset":278720,
			"target":34962
		},
		{
			"buffer":0,
			"byteLength":3216,
			"byteOffset":280864,
			"target":34962
		},
		{
			"buffer":0,
			"byteLength":3216,
			"byteOffset":284080,
			"target":34962
		},
		{
			"buffer":0,
			"byteLength":2144,
			"byteOffset":287296,
			"target":34962
		},
		{
			"buffer":0,
			"byteLength":3216,
			"byteOffset":289440,
			"target":34962
		},
		{
			"buffer":0,
			"byteLength":3216,
			"byteOffset":292656,
			"target":34962
		},
		{
			"buffer":0,
			"byteLength":2144,
			"byteOffset":295872,
			"target":34962
		},
		{
			"buffer":0,
			"byteLength":3216,
			"byteOffset":298016,
			"target":34962
		},
		{
			"buffer":0,
			"byteLength":3216,
			"byteOffset":301232,
			"target":34962
		},
		{
			"buffer":0,
			"byteLength":2144,
			"byteOffset":304448,
			"target":34962
		},
		{
			"buffer":0,
			"byteLength":3216,
			"byteOffset":306592,
			"target":34962
		},
		{
			"buffer":0,
			"byteLength":3216,
			"byteOffset":309808,
			"target":34962
		},
		{
			"buffer":0,
			"byteLength":2144,
			"byteOffset":313024,
			"target":34962
		},
		{
			"buffer":0,
			"byteLength":4848,
			"byteOffset":315168,
			"target":34962
		},
		{
			"buffer":0,
			"byteLength":4848,
			"byteOffset":320016,
			"target":34962
		},
		{
			"buffer":0,
			"byteLength":3232,
			"byteOffset":324864,
			"target":34962
		},
		{
			"buffer":0,
			"byteLength":2838,
			"byteOffset":328096,
			"target":34963
		},
		{
			"buffer":0,
			"byteLength":4848,
			"byteOffset":330936,
			"target":34962
		},
		{
			"buffer":0,
			"byteLength":4848,
			"byteOffset":335784,
			"target":34962
		},
		{
			"buffer":0,
			"byteLength":3232,
			"byteOffset":340632,
			"target":34962
		},
		{
			"buffer":0,
			"byteLength":6564,
			"byteOffset":343864,
			"target":34962
		},
		{
			"buffer":0,
			"byteLength":6564,
			"byteOffset":350428,
			"target":34962
		},
		{
			"buffer":0,
			"byteLength":4376,
			"byteOffset":356992,
			"target":34962
		},
		{
			"buffer":0,
			"byteLength":2868,
			"byteOffset":361368,
			"target":34963
		},
		{
			"buffer":0,
			"byteLength":6540,
			"byteOffset":364236,
			"target":34962
		},
		{
			"buffer":0,
			"byteLength":6540,
			"byteOffset":370776,
			"target":34962
		},
		{
			"buffer":0,
			"byteLength":4360,
			"byteOffset":377316,
			"target":34962
		},
		{
			"buffer":0,
			"byteLength":2868,
			"byteOffset":381676,
			"target":34963
		},
		{
			"buffer":0,
			"byteLength":6540,
			"byteOffset":384544,
			"target":34962
		},
		{
			"buffer":0,
			"byteLength":6540,
			"byteOffset":391084,
			"target":34962
		},
		{
			"buffer":0,
			"byteLength":4360,
			"byteOffset":397624,
			"target":34962
		},
		{
			"buffer":0,
			"byteLength":2862,
			"byteOffset":401984,
			"target":34963
		},
		{
			"buffer":0,
			"byteLength":6540,
			"byteOffset":404848,
			"target":34962
		},
		{
			"buffer":0,
			"byteLength":6540,
			"byteOffset":411388,
			"target":34962
		},
		{
			"buffer":0,
			"byteLength":4360,
			"byteOffset":417928,
			"target":34962
		}
	],
	"samplers":[
		{
			"magFilter":9729,
			"minFilter":9987
		}
	],
	"buffers":[
		{
			"byteLength":422288,
			"uri":"chess_set.bin"
		}
	]
}
