{
	"asset":{
		"generator":"Khronos glTF Blender I/O v5.2.40",
		"version":"2.0"
	},
	"scene":0,
	"scenes":[
		{
			"name":"Scene",
			"nodes":[
				0
			]
		}
	],
	"nodes":[
		{
			"mesh":0,
			"name":"gallinera_chair"
		}
	],
	"materials":[
		{
			"doubleSided":true,
			"name":"gallinera_chair",
			"normalTexture":{
				"index":0
			},
			"pbrMetallicRoughness":{
				"baseColorTexture":{
					"index":1
				},
				"metallicFactor":0,
				"metallicRoughnessTexture":{
					"index":2
				}
			}
		}
	],
	"meshes":[
		{
			"name":"Cube.021",
			"primitives":[
				{
					"attributes":{
						"POSITION":0,
						"NORMAL":1,
						"TEXCOORD_0":2
					},
					"indices":3,
					"material":0
				}
			]
		}
	],
	"textures":[
		{
			"sampler":0,
			"source":0
		},
		{
			"sampler":0,
			"source":1
		},
		{
			"sampler":0,
			"source":2
		}
	],
	"images":[
		{
			"mimeType":"image/jpeg",
			"name":"gallinera_chair_nor_gl",
			"uri":"textures/gallinera_chair_nor_gl_1k.jpg"
		},
		{
			"mimeType":"image/jpeg",
			"name":"gallinera_chair_diff",
			"uri":"textures/gallinera_chair_diff_1k.jpg"
		},
		{
			"mimeType":"image/jpeg",
			"name":"gallinera_chair_rough",
			"uri":"textures/gallinera_chair_arm_1k.jpg"
		}
	],
	"accessors":[
		{
			"bufferView":0,
			"componentType":5126,
			"count":3934,
			"max":[
				0.2898443341255188,
				1.0333807468414307,
				0.3369080424308777
			],
			"min":[
				-0.29049625992774963,
				-0.00010779048170661554,
				-0.26538822054862976
			],
			"type":"VEC3"
		},
		{
			"bufferView":1,
			"componentType":5126,
			"count":3934,
			"type":"VEC3"
		},
		{
			"bufferView":2,
			"componentType":5126,
			"count":3934,
			"type":"VEC2"
		},
		{
			"bufferView":3,
			"componentType":5123,
			"count":8997,
			"type":"SCALAR"
		}
	],
	"bufferViews":[
		{
			"buffer":0,
			"byteLength":47208,
			"byteOffset":0,
			"target":34962
		},
		{
			"buffer":0,
			"byteLength":47208,
			"byteOffset":47208,
			"target":34962
		},
		{
			"buffer":0,
			"byteLength":31472,
			"byteOffset":94416,
			"target":34962
		},
		{
			"buffer":0,
			"byteLength":17994,
			"byteOffset":125888,
			"target":34963
		}
	],
	"samplers":[
		{
			"magFilter":9729,
			"minFilter":9987
		}
	],
	"buffers":[
		{
			"byteLength":143884,
			"uri":"gallinera_chair.bin"
		}
	]
}
