{
	"asset":{
		"generator":"Khronos glTF Blender I/O v5.2.40",
		"version":"2.0"
	},
	"extensionsUsed":[
		"KHR_materials_clearcoat",
		"KHR_materials_specular",
		"KHR_materials_ior"
	],
	"scene":0,
	"scenes":[
		{
			"name":"Scene",
			"nodes":[
				0,
				1,
				2
			]
		}
	],
	"nodes":[
		{
			"mesh":0,
			"name":"vintage_grandfather_clock_01_body",
			"rotation":[
				0,
				-0.7071068286895752,
				0,
				0.7071067094802856
			],
			"translation":[
				0.0627659484744072,
				0,
				-0.0627659484744072
			]
		},
		{
			"mesh":1,
			"name":"vintage_grandfather_clock_01_houd_hand",
			"translation":[
				0.0627659484744072,
				1.7319388389587402,
				0.0627659484744072
			]
		},
		{
			"mesh":2,
			"name":"vintage_grandfather_clock_01_minute_hand",
			"rotation":[
				0.00989631935954094,
				-0.03510347381234169,
				-0.17700932919979095,
				0.9835332036018372
			],
			"translation":[
				0.0627659484744072,
				1.7319388389587402,
				0.0627659484744072
			]
		}
	],
	"materials":[
		{
			"doubleSided":true,
			"name":"vintage_grandfather_clock_01",
			"normalTexture":{
				"index":0
			},
			"pbrMetallicRoughness":{
				"baseColorTexture":{
					"index":1
				},
				"metallicRoughnessTexture":{
					"index":2
				}
			}
		},
		{
			"alphaMode":"BLEND",
			"doubleSided":true,
			"extensions":{
				"KHR_materials_clearcoat":{
					"clearcoatFactor":0.800000011920929
				},
				"KHR_materials_specular":{
					"specularColorFactor":[
						1.8970861434936523,
						1.8970861434936523,
						1.8970861434936523
					]
				},
				"KHR_materials_ior":{
					"ior":1.4500000476837158
				}
			},
			"name":"vintage_grandfather_clock_01_glass",
			"normalTexture":{
				"index":3
			},
			"pbrMetallicRoughness":{
				"baseColorTexture":{
					"index":4
				},
				"metallicRoughnessTexture":{
					"index":5
				}
			}
		}
	],
	"meshes":[
		{
			"name":"Cylinder.001",
			"primitives":[
				{
					"attributes":{
						"POSITION":0,
						"NORMAL":1,
						"TEXCOORD_0":2
					},
					"indices":3,
					"material":0
				},
				{
					"attributes":{
						"POSITION":4,
						"NORMAL":5,
						"TEXCOORD_0":6
					},
					"indices":7,
					"material":1
				}
			]
		},
		{
			"name":"Cylinder.008",
			"primitives":[
				{
					"attributes":{
						"POSITION":8,
						"NORMAL":9,
						"TEXCOORD_0":10
					},
					"indices":11,
					"material":0
				}
			]
		},
		{
			"name":"Cylinder.007",
			"primitives":[
				{
					"attributes":{
						"POSITION":12,
						"NORMAL":13,
						"TEXCOORD_0":14
					},
					"indices":15,
					"material":0
				}
			]
		}
	],
	"textures":[
		{
			"sampler":0,
			"source":0
		},
		{
			"sampler":0,
			"source":1
		},
		{
			"sampler":0,
			"source":2
		},
		{
			"sampler":0,
			"source":0
		},
		{
			"sampler":0,
			"source":3
		},
		{
			"sampler":0,
			"source":2
		}
	],
	"images":[
		{
			"mimeType":"image/jpeg",
			"name":"vintage_grandfather_clock_01_nor_gl",
			"uri":"textures/vintage_grandfather_clock_01_nor_gl_1k.jpg"
		},
		{
			"mimeType":"image/jpeg",
			"name":"vintage_grandfather_clock_01_diff",
			"uri":"textures/vintage_grandfather_clock_01_diff_1k.jpg"
		},
		{
			"mimeType":"image/jpeg",
			"name":"vintage_grandfather_clock_01_metal-vintage_grandfather_clock_01_rough",
			"uri":"textures/vintage_grandfather_clock_01_arm_1k.jpg"
		},
		{
			"mimeType":"image/png",
			"name":"vintage_grandfather_clock_01_diff",
			"uri":"textures/vintage_grandfather_clock_01_diff_1k.jpg"
		}
	],
	"accessors":[
		{
			"bufferView":0,
			"componentType":5126,
			"count":4265,
			"max":[
				0.23840990662574768,
				2.193983316421509,
				0.3128513693809509
			],
			"min":[
				-0.18830572068691254,
				-6.496906280517578e-05,
				-0.3128513693809509
			],
			"type":"VEC3"
		},
		{
			"bufferView":1,
			"componentType":5126,
			"count":4265,
			"type":"VEC3"
		},
		{
			"bufferView":2,
			"componentType":5126,
			"count":4265,
			"type":"VEC2"
		},
		{
			"bufferView":3,
			"componentType":5123,
			"count":8946,
			"type":"SCALAR"
		},
		{
			"bufferView":4,
			"componentType":5126,
			"count":19,
			"max":[
				0.14483040571212769,
				2.046146869659424,
				0.1870330274105072
			],
			"min":[
				0.1448303908109665,
				1.5593708753585815,
				-0.1870325803756714
			],
			"type":"VEC3"
		},
		{
			"bufferView":5,
			"componentType":5126,
			"count":19,
			"type":"VEC3"
		},
		{
			"bufferView":6,
			"componentType":5126,
			"count":19,
			"type":"VEC2"
		},
		{
			"bufferView":7,
			"componentType":5123,
			"count":51,
			"type":"SCALAR"
		},
		{
			"bufferView":8,
			"componentType":5126,
			"count":133,
			"max":[
				0.0009957024594768882,
				0.048557281494140625,
				-0.0068830400705337524
			],
			"min":[
				-0.07601214200258255,
				-0.0018367767333984375,
				-0.007313560228794813
			],
			"type":"VEC3"
		},
		{
			"bufferView":9,
			"componentType":5126,
			"count":133,
			"type":"VEC3"
		},
		{
			"bufferView":10,
			"componentType":5126,
			"count":133,
			"type":"VEC2"
		},
		{
			"bufferView":11,
			"componentType":5123,
			"count":252,
			"type":"SCALAR"
		},
		{
			"bufferView":12,
			"componentType":5126,
			"count":90,
			"max":[
				0.005181816406548023,
				0.1576986312866211,
				-0.007476486265659332
			],
			"min":[
				-0.004546710290014744,
				-0.007872223854064941,
				-0.007476486265659332
			],
			"type":"VEC3"
		},
		{
			"bufferView":13,
			"componentType":5126,
			"count":90,
			"type":"VEC3"
		},
		{
			"bufferView":14,
			"componentType":5126,
			"count":90,
			"type":"VEC2"
		},
		{
			"bufferView":15,
			"componentType":5123,
			"count":348,
			"type":"SCALAR"
		}
	],
	"bufferViews":[
		{
			"buffer":0,
			"byteLength":51180,
			"byteOffset":0,
			"target":34962
		},
		{
			"buffer":0,
			"byteLength":51180,
			"byteOffset":51180,
			"target":34962
		},
		{
			"buffer":0,
			"byteLength":34120,
			"byteOffset":102360,
			"target":34962
		},
		{
			"buffer":0,
			"byteLength":17892,
			"byteOffset":136480,
			"target":34963
		},
		{
			"buffer":0,
			"byteLength":228,
			"byteOffset":154372,
			"target":34962
		},
		{
			"buffer":0,
			"byteLength":228,
			"byteOffset":154600,
			"target":34962
		},
		{
			"buffer":0,
			"byteLength":152,
			"byteOffset":154828,
			"target":34962
		},
		{
			"buffer":0,
			"byteLength":102,
			"byteOffset":154980,
			"target":34963
		},
		{
			"buffer":0,
			"byteLength":1596,
			"byteOffset":155084,
			"target":34962
		},
		{
			"buffer":0,
			"byteLength":1596,
			"byteOffset":156680,
			"target":34962
		},
		{
			"buffer":0,
			"byteLength":1064,
			"byteOffset":158276,
			"target":34962
		},
		{
			"buffer":0,
			"byteLength":504,
			"byteOffset":159340,
			"target":34963
		},
		{
			"buffer":0,
			"byteLength":1080,
			"byteOffset":159844,
			"target":34962
		},
		{
			"buffer":0,
			"byteLength":1080,
			"byteOffset":160924,
			"target":34962
		},
		{
			"buffer":0,
			"byteLength":720,
			"byteOffset":162004,
			"target":34962
		},
		{
			"buffer":0,
			"byteLength":696,
			"byteOffset":162724,
			"target":34963
		}
	],
	"samplers":[
		{
			"magFilter":9729,
			"minFilter":9987
		}
	],
	"buffers":[
		{
			"byteLength":163420,
			"uri":"vintage_grandfather_clock_01.bin"
		}
	]
}
