{
	"asset":{
		"generator":"Khronos glTF Blender I/O v5.2.40",
		"version":"2.0"
	},
	"scene":0,
	"scenes":[
		{
			"name":"Scene",
			"nodes":[
				0
			]
		}
	],
	"nodes":[
		{
			"mesh":0,
			"name":"Sofa_01"
		}
	],
	"materials":[
		{
			"doubleSided":true,
			"name":"Sofa_01",
			"normalTexture":{
				"index":0
			},
			"pbrMetallicRoughness":{
				"baseColorTexture":{
					"index":1
				},
				"metallicRoughnessTexture":{
					"index":2
				}
			}
		}
	],
	"meshes":[
		{
			"name":"Line1789534131.002",
			"primitives":[
				{
					"attributes":{
						"POSITION":0,
						"NORMAL":1,
						"TEXCOORD_0":2
					},
					"indices":3,
					"material":0
				}
			]
		}
	],
	"textures":[
		{
			"sampler":0,
			"source":0
		},
		{
			"sampler":0,
			"source":1
		},
		{
			"sampler":0,
			"source":2
		}
	],
	"images":[
		{
			"mimeType":"image/jpeg",
			"name":"Sofa_01_nor_gl",
			"uri":"textures/Sofa_01_nor_gl_1k.jpg"
		},
		{
			"mimeType":"image/jpeg",
			"name":"Sofa_01_diff",
			"uri":"textures/Sofa_01_diff_1k.jpg"
		},
		{
			"mimeType":"image/jpeg",
			"name":"Sofa_01_metallic-Sofa_01_roughness",
			"uri":"textures/Sofa_01_arm_1k.jpg"
		}
	],
	"accessors":[
		{
			"bufferView":0,
			"componentType":5126,
			"count":2097,
			"max":[
				0.7933945059776306,
				0.7959280610084534,
				0.29681089520454407
			],
			"min":[
				-0.7781500816345215,
				-0.0005869903834536672,
				-0.36161094903945923
			],
			"type":"VEC3"
		},
		{
			"bufferView":1,
			"componentType":5126,
			"count":2097,
			"type":"VEC3"
		},
		{
			"bufferView":2,
			"componentType":5126,
			"count":2097,
			"type":"VEC2"
		},
		{
			"bufferView":3,
			"componentType":5123,
			"count":9000,
			"type":"SCALAR"
		}
	],
	"bufferViews":[
		{
			"buffer":0,
			"byteLength":25164,
			"byteOffset":0,
			"target":34962
		},
		{
			"buffer":0,
			"byteLength":25164,
			"byteOffset":25164,
			"target":34962
		},
		{
			"buffer":0,
			"byteLength":16776,
			"byteOffset":50328,
			"target":34962
		},
		{
			"buffer":0,
			"byteLength":18000,
			"byteOffset":67104,
			"target":34963
		}
	],
	"samplers":[
		{
			"magFilter":9729,
			"minFilter":9987
		}
	],
	"buffers":[
		{
			"byteLength":85104,
			"uri":"Sofa_01.bin"
		}
	]
}
