{
	"asset":{
		"generator":"Khronos glTF Blender I/O v5.2.40",
		"version":"2.0"
	},
	"extensionsUsed":[
		"KHR_materials_transmission"
	],
	"scene":0,
	"scenes":[
		{
			"name":"Scene",
			"nodes":[
				0,
				1,
				2,
				3
			]
		}
	],
	"nodes":[
		{
			"mesh":0,
			"name":"wall_clock"
		},
		{
			"mesh":1,
			"name":"wall_clock_hours_hand"
		},
		{
			"mesh":2,
			"name":"wall_clock_minute_hand"
		},
		{
			"mesh":3,
			"name":"wall_clock_second_hand"
		}
	],
	"materials":[
		{
			"doubleSided":true,
			"name":"wall_clock",
			"normalTexture":{
				"index":0
			},
			"pbrMetallicRoughness":{
				"baseColorTexture":{
					"index":1
				},
				"metallicRoughnessTexture":{
					"index":2
				}
			}
		},
		{
			"alphaMode":"BLEND",
			"doubleSided":true,
			"extensions":{
				"KHR_materials_transmission":{
					"transmissionFactor":1
				}
			},
			"name":"wall_clock_glass",
			"pbrMetallicRoughness":{
				"baseColorFactor":[
					0.800000011920929,
					0.800000011920929,
					0.800000011920929,
					0.4000000059604645
				],
				"metallicFactor":0,
				"metallicRoughnessTexture":{
					"index":3
				}
			}
		}
	],
	"meshes":[
		{
			"name":"frame.001",
			"primitives":[
				{
					"attributes":{
						"POSITION":0,
						"NORMAL":1,
						"TEXCOORD_0":2
					},
					"indices":3,
					"material":0
				},
				{
					"attributes":{
						"POSITION":4,
						"NORMAL":5,
						"TEXCOORD_0":6
					},
					"indices":7,
					"material":1
				}
			]
		},
		{
			"name":"hours.001",
			"primitives":[
				{
					"attributes":{
						"POSITION":8,
						"NORMAL":9,
						"TEXCOORD_0":10
					},
					"indices":11,
					"material":0
				}
			]
		},
		{
			"name":"minutes.001",
			"primitives":[
				{
					"attributes":{
						"POSITION":12,
						"NORMAL":13,
						"TEXCOORD_0":14
					},
					"indices":15,
					"material":0
				}
			]
		},
		{
			"name":"hub.001",
			"primitives":[
				{
					"attributes":{
						"POSITION":16,
						"NORMAL":17,
						"TEXCOORD_0":18
					},
					"indices":19,
					"material":0
				}
			]
		}
	],
	"textures":[
		{
			"sampler":0,
			"source":0
		},
		{
			"sampler":0,
			"source":1
		},
		{
			"sampler":0,
			"source":2
		},
		{
			"sampler":0,
			"source":3
		}
	],
	"images":[
		{
			"mimeType":"image/jpeg",
			"name":"wall_clock_nor_gl",
			"uri":"textures/wall_clock_nor_gl_1k.jpg"
		},
		{
			"mimeType":"image/jpeg",
			"name":"wall_clock_diff",
			"uri":"textures/wall_clock_diff_1k.jpg"
		},
		{
			"mimeType":"image/jpeg",
			"name":"wall_clock_metal-wall_clock_rough",
			"uri":"textures/wall_clock_arm_1k.jpg"
		},
		{
			"mimeType":"image/jpeg",
			"name":"wall_clock_glass_rough",
			"uri":"textures/wall_clock_glass_arm_1k.jpg"
		}
	],
	"accessors":[
		{
			"bufferView":0,
			"componentType":5126,
			"count":2929,
			"max":[
				0.16024549305438995,
				0.16024549305438995,
				0.03540468588471413
			],
			"min":[
				-0.16024549305438995,
				-0.16024549305438995,
				-1.832621521202782e-08
			],
			"type":"VEC3"
		},
		{
			"bufferView":1,
			"componentType":5126,
			"count":2929,
			"type":"VEC3"
		},
		{
			"bufferView":2,
			"componentType":5126,
			"count":2929,
			"type":"VEC2"
		},
		{
			"bufferView":3,
			"componentType":5123,
			"count":7968,
			"type":"SCALAR"
		},
		{
			"bufferView":4,
			"componentType":5126,
			"count":221,
			"max":[
				0.142658531665802,
				0.142658531665802,
				0.04722250625491142
			],
			"min":[
				-0.142658531665802,
				-0.142658531665802,
				0.03527072072029114
			],
			"type":"VEC3"
		},
		{
			"bufferView":5,
			"componentType":5126,
			"count":221,
			"type":"VEC3"
		},
		{
			"bufferView":6,
			"componentType":5126,
			"count":221,
			"type":"VEC2"
		},
		{
			"bufferView":7,
			"componentType":5123,
			"count":1032,
			"type":"SCALAR"
		},
		{
			"bufferView":8,
			"componentType":5126,
			"count":24,
			"max":[
				0.01217734720557928,
				0.054585717618465424,
				0.028346188366413116
			],
			"min":[
				-0.0766337662935257,
				-0.009838372468948364,
				0.028000688180327415
			],
			"type":"VEC3"
		},
		{
			"bufferView":9,
			"componentType":5126,
			"count":24,
			"type":"VEC3"
		},
		{
			"bufferView":10,
			"componentType":5126,
			"count":24,
			"type":"VEC2"
		},
		{
			"bufferView":11,
			"componentType":5123,
			"count":30,
			"type":"SCALAR"
		},
		{
			"bufferView":12,
			"componentType":5126,
			"count":20,
			"max":[
				0.10049860179424286,
				0.06411121785640717,
				0.029295315966010094
			],
			"min":[
				-0.017366545274853706,
				-0.011780574917793274,
				0.02895045094192028
			],
			"type":"VEC3"
		},
		{
			"bufferView":13,
			"componentType":5126,
			"count":20,
			"type":"VEC3"
		},
		{
			"bufferView":14,
			"componentType":5126,
			"count":20,
			"type":"VEC2"
		},
		{
			"bufferView":15,
			"componentType":5123,
			"count":30,
			"type":"SCALAR"
		},
		{
			"bufferView":16,
			"componentType":5126,
			"count":267,
			"max":[
				0.022757895290851593,
				0.028505710884928703,
				0.03128935396671295
			],
			"min":[
				-0.007221389561891556,
				-0.13276496529579163,
				0.025152185931801796
			],
			"type":"VEC3"
		},
		{
			"bufferView":17,
			"componentType":5126,
			"count":267,
			"type":"VEC3"
		},
		{
			"bufferView":18,
			"componentType":5126,
			"count":267,
			"type":"VEC2"
		},
		{
			"bufferView":19,
			"componentType":5123,
			"count":774,
			"type":"SCALAR"
		}
	],
	"bufferViews":[
		{
			"buffer":0,
			"byteLength":35148,
			"byteOffset":0,
			"target":34962
		},
		{
			"buffer":0,
			"byteLength":35148,
			"byteOffset":35148,
			"target":34962
		},
		{
			"buffer":0,
			"byteLength":23432,
			"byteOffset":70296,
			"target":34962
		},
		{
			"buffer":0,
			"byteLength":15936,
			"byteOffset":93728,
			"target":34963
		},
		{
			"buffer":0,
			"byteLength":2652,
			"byteOffset":109664,
			"target":34962
		},
		{
			"buffer":0,
			"byteLength":2652,
			"byteOffset":112316,
			"target":34962
		},
		{
			"buffer":0,
			"byteLength":1768,
			"byteOffset":114968,
			"target":34962
		},
		{
			"buffer":0,
			"byteLength":2064,
			"byteOffset":116736,
			"target":34963
		},
		{
			"buffer":0,
			"byteLength":288,
			"byteOffset":118800,
			"target":34962
		},
		{
			"buffer":0,
			"byteLength":288,
			"byteOffset":119088,
			"target":34962
		},
		{
			"buffer":0,
			"byteLength":192,
			"byteOffset":119376,
			"target":34962
		},
		{
			"buffer":0,
			"byteLength":60,
			"byteOffset":119568,
			"target":34963
		},
		{
			"buffer":0,
			"byteLength":240,
			"byteOffset":119628,
			"target":34962
		},
		{
			"buffer":0,
			"byteLength":240,
			"byteOffset":119868,
			"target":34962
		},
		{
			"buffer":0,
			"byteLength":160,
			"byteOffset":120108,
			"target":34962
		},
		{
			"buffer":0,
			"byteLength":60,
			"byteOffset":120268,
			"target":34963
		},
		{
			"buffer":0,
			"byteLength":3204,
			"byteOffset":120328,
			"target":34962
		},
		{
			"buffer":0,
			"byteLength":3204,
			"byteOffset":123532,
			"target":34962
		},
		{
			"buffer":0,
			"byteLength":2136,
			"byteOffset":126736,
			"target":34962
		},
		{
			"buffer":0,
			"byteLength":1548,
			"byteOffset":128872,
			"target":34963
		}
	],
	"samplers":[
		{
			"magFilter":9729,
			"minFilter":9987
		}
	],
	"buffers":[
		{
			"byteLength":130420,
			"uri":"wall_clock.bin"
		}
	]
}
