{
	"asset":{
		"generator":"Khronos glTF Blender I/O v5.2.40",
		"version":"2.0"
	},
	"scene":0,
	"scenes":[
		{
			"name":"Scene",
			"nodes":[
				0,
				1,
				2,
				3,
				4,
				5,
				6,
				7,
				8
			]
		}
	],
	"nodes":[
		{
			"mesh":0,
			"name":"metal_office_desk"
		},
		{
			"mesh":1,
			"name":"metal_office_desk_drawer_01"
		},
		{
			"mesh":2,
			"name":"metal_office_desk_drawer_02"
		},
		{
			"mesh":3,
			"name":"metal_office_desk_drawer_03"
		},
		{
			"mesh":4,
			"name":"metal_office_desk_drawer_04"
		},
		{
			"mesh":5,
			"name":"metal_office_desk_drawer_05"
		},
		{
			"mesh":6,
			"name":"metal_office_desk_drawer_06"
		},
		{
			"mesh":7,
			"name":"metal_office_desk_tray_01"
		},
		{
			"mesh":8,
			"name":"metal_office_desk_tray_02"
		}
	],
	"materials":[
		{
			"doubleSided":true,
			"name":"metal_office_desk",
			"normalTexture":{
				"index":0
			},
			"pbrMetallicRoughness":{
				"baseColorTexture":{
					"index":1
				},
				"metallicRoughnessTexture":{
					"index":2
				}
			}
		}
	],
	"meshes":[
		{
			"name":"Plane.006",
			"primitives":[
				{
					"attributes":{
						"POSITION":0,
						"NORMAL":1,
						"TEXCOORD_0":2
					},
					"indices":3,
					"material":0
				}
			]
		},
		{
			"name":"Cube.012",
			"primitives":[
				{
					"attributes":{
						"POSITION":4,
						"NORMAL":5,
						"TEXCOORD_0":6
					},
					"indices":7,
					"material":0
				}
			]
		},
		{
			"name":"Cube.008",
			"primitives":[
				{
					"attributes":{
						"POSITION":8,
						"NORMAL":9,
						"TEXCOORD_0":10
					},
					"indices":11,
					"material":0
				}
			]
		},
		{
			"name":"Cube.004",
			"primitives":[
				{
					"attributes":{
						"POSITION":12,
						"NORMAL":13,
						"TEXCOORD_0":14
					},
					"indices":15,
					"material":0
				}
			]
		},
		{
			"name":"Cube.002",
			"primitives":[
				{
					"attributes":{
						"POSITION":16,
						"NORMAL":17,
						"TEXCOORD_0":18
					},
					"indices":19,
					"material":0
				}
			]
		},
		{
			"name":"Cube.006",
			"primitives":[
				{
					"attributes":{
						"POSITION":20,
						"NORMAL":21,
						"TEXCOORD_0":22
					},
					"indices":23,
					"material":0
				}
			]
		},
		{
			"name":"Cube.009",
			"primitives":[
				{
					"attributes":{
						"POSITION":24,
						"NORMAL":25,
						"TEXCOORD_0":26
					},
					"indices":27,
					"material":0
				}
			]
		},
		{
			"name":"Cube.011",
			"primitives":[
				{
					"attributes":{
						"POSITION":28,
						"NORMAL":29,
						"TEXCOORD_0":30
					},
					"indices":31,
					"material":0
				}
			]
		},
		{
			"name":"Cube.014",
			"primitives":[
				{
					"attributes":{
						"POSITION":32,
						"NORMAL":33,
						"TEXCOORD_0":34
					},
					"indices":31,
					"material":0
				}
			]
		}
	],
	"textures":[
		{
			"sampler":0,
			"source":0
		},
		{
			"sampler":0,
			"source":1
		},
		{
			"sampler":0,
			"source":2
		}
	],
	"images":[
		{
			"mimeType":"image/jpeg",
			"name":"metal_office_desk_nor_gl",
			"uri":"textures/metal_office_desk_nor_gl_1k.jpg"
		},
		{
			"mimeType":"image/jpeg",
			"name":"metal_office_desk_diff",
			"uri":"textures/metal_office_desk_diff_1k.jpg"
		},
		{
			"mimeType":"image/jpeg",
			"name":"metal_office_desk_metal-metal_office_desk_rough",
			"uri":"textures/metal_office_desk_arm_1k.jpg"
		}
	],
	"accessors":[
		{
			"bufferView":0,
			"componentType":5126,
			"count":2507,
			"max":[
				0.9999995231628418,
				0.7875000238418579,
				0.4479723274707794
			],
			"min":[
				-1.0000008344650269,
				-5.802750280281543e-09,
				-0.4691101908683777
			],
			"type":"VEC3"
		},
		{
			"bufferView":1,
			"componentType":5126,
			"count":2507,
			"type":"VEC3"
		},
		{
			"bufferView":2,
			"componentType":5126,
			"count":2507,
			"type":"VEC2"
		},
		{
			"bufferView":3,
			"componentType":5123,
			"count":9000,
			"type":"SCALAR"
		},
		{
			"bufferView":4,
			"componentType":5126,
			"count":438,
			"max":[
				0.9235686659812927,
				0.7122595310211182,
				0.478103369474411
			],
			"min":[
				0.512235701084137,
				0.5503316521644592,
				-0.30058202147483826
			],
			"type":"VEC3"
		},
		{
			"bufferView":5,
			"componentType":5126,
			"count":438,
			"type":"VEC3"
		},
		{
			"bufferView":6,
			"componentType":5126,
			"count":438,
			"type":"VEC2"
		},
		{
			"bufferView":7,
			"componentType":5123,
			"count":1104,
			"type":"SCALAR"
		},
		{
			"bufferView":8,
			"componentType":5126,
			"count":429,
			"max":[
				0.9245993494987488,
				0.5488352179527283,
				0.4764499366283417
			],
			"min":[
				0.513266384601593,
				0.38690727949142456,
				-0.30223533511161804
			],
			"type":"VEC3"
		},
		{
			"bufferView":9,
			"componentType":5126,
			"count":429,
			"type":"VEC3"
		},
		{
			"bufferView":10,
			"componentType":5126,
			"count":429,
			"type":"VEC2"
		},
		{
			"bufferView":11,
			"componentType":5123,
			"count":1104,
			"type":"SCALAR"
		},
		{
			"bufferView":12,
			"componentType":5126,
			"count":417,
			"max":[
				0.9234526753425598,
				0.38375240564346313,
				0.47354596853256226
			],
			"min":[
				0.512119710445404,
				0.22182446718215942,
				-0.3051392734050751
			],
			"type":"VEC3"
		},
		{
			"bufferView":13,
			"componentType":5126,
			"count":417,
			"type":"VEC3"
		},
		{
			"bufferView":14,
			"componentType":5126,
			"count":417,
			"type":"VEC2"
		},
		{
			"bufferView":15,
			"componentType":5123,
			"count":1104,
			"type":"SCALAR"
		},
		{
			"bufferView":16,
			"componentType":5126,
			"count":442,
			"max":[
				-0.5121210217475891,
				0.7092275619506836,
				0.4762135446071625
			],
			"min":[
				-0.9234539866447449,
				0.5472996234893799,
				-0.3024718463420868
			],
			"type":"VEC3"
		},
		{
			"bufferView":17,
			"componentType":5126,
			"count":442,
			"type":"VEC3"
		},
		{
			"bufferView":18,
			"componentType":5126,
			"count":442,
			"type":"VEC2"
		},
		{
			"bufferView":19,
			"componentType":5123,
			"count":1104,
			"type":"SCALAR"
		},
		{
			"bufferView":20,
			"componentType":5126,
			"count":427,
			"max":[
				-0.5120454430580139,
				0.5461941957473755,
				0.47354647517204285
			],
			"min":[
				-0.9233784079551697,
				0.38426628708839417,
				-0.30513879656791687
			],
			"type":"VEC3"
		},
		{
			"bufferView":21,
			"componentType":5126,
			"count":427,
			"type":"VEC3"
		},
		{
			"bufferView":22,
			"componentType":5126,
			"count":427,
			"type":"VEC2"
		},
		{
			"bufferView":23,
			"componentType":5123,
			"count":1104,
			"type":"SCALAR"
		},
		{
			"bufferView":24,
			"componentType":5126,
			"count":419,
			"max":[
				-0.5121210217475891,
				0.38375240564346313,
				0.47354644536972046
			],
			"min":[
				-0.9234539866447449,
				0.22182446718215942,
				-0.30513879656791687
			],
			"type":"VEC3"
		},
		{
			"bufferView":25,
			"componentType":5126,
			"count":419,
			"type":"VEC3"
		},
		{
			"bufferView":26,
			"componentType":5126,
			"count":419,
			"type":"VEC2"
		},
		{
			"bufferView":27,
			"componentType":5123,
			"count":1104,
			"type":"SCALAR"
		},
		{
			"bufferView":28,
			"componentType":5126,
			"count":232,
			"max":[
				-0.5111402273178101,
				0.7504372596740723,
				0.4390096664428711
			],
			"min":[
				-0.9245937466621399,
				0.7276765704154968,
				-0.112893246114254
			],
			"type":"VEC3"
		},
		{
			"bufferView":29,
			"componentType":5126,
			"count":232,
			"type":"VEC3"
		},
		{
			"bufferView":30,
			"componentType":5126,
			"count":232,
			"type":"VEC2"
		},
		{
			"bufferView":31,
			"componentType":5123,
			"count":756,
			"type":"SCALAR"
		},
		{
			"bufferView":32,
			"componentType":5126,
			"count":232,
			"max":[
				0.9246230125427246,
				0.7504372596740723,
				0.4364926815032959
			],
			"min":[
				0.5111696124076843,
				0.7276765704154968,
				-0.11541026830673218
			],
			"type":"VEC3"
		},
		{
			"bufferView":33,
			"componentType":5126,
			"count":232,
			"type":"VEC3"
		},
		{
			"bufferView":34,
			"componentType":5126,
			"count":232,
			"type":"VEC2"
		}
	],
	"bufferViews":[
		{
			"buffer":0,
			"byteLength":30084,
			"byteOffset":0,
			"target":34962
		},
		{
			"buffer":0,
			"byteLength":30084,
			"byteOffset":30084,
			"target":34962
		},
		{
			"buffer":0,
			"byteLength":20056,
			"byteOffset":60168,
			"target":34962
		},
		{
			"buffer":0,
			"byteLength":18000,
			"byteOffset":80224,
			"target":34963
		},
		{
			"buffer":0,
			"byteLength":5256,
			"byteOffset":98224,
			"target":34962
		},
		{
			"buffer":0,
			"byteLength":5256,
			"byteOffset":103480,
			"target":34962
		},
		{
			"buffer":0,
			"byteLength":3504,
			"byteOffset":108736,
			"target":34962
		},
		{
			"buffer":0,
			"byteLength":2208,
			"byteOffset":112240,
			"target":34963
		},
		{
			"buffer":0,
			"byteLength":5148,
			"byteOffset":114448,
			"target":34962
		},
		{
			"buffer":0,
			"byteLength":5148,
			"byteOffset":119596,
			"target":34962
		},
		{
			"buffer":0,
			"byteLength":3432,
			"byteOffset":124744,
			"target":34962
		},
		{
			"buffer":0,
			"byteLength":2208,
			"byteOffset":128176,
			"target":34963
		},
		{
			"buffer":0,
			"byteLength":5004,
			"byteOffset":130384,
			"target":34962
		},
		{
			"buffer":0,
			"byteLength":5004,
			"byteOffset":135388,
			"target":34962
		},
		{
			"buffer":0,
			"byteLength":3336,
			"byteOffset":140392,
			"target":34962
		},
		{
			"buffer":0,
			"byteLength":2208,
			"byteOffset":143728,
			"target":34963
		},
		{
			"buffer":0,
			"byteLength":5304,
			"byteOffset":145936,
			"target":34962
		},
		{
			"buffer":0,
			"byteLength":5304,
			"byteOffset":151240,
			"target":34962
		},
		{
			"buffer":0,
			"byteLength":3536,
			"byteOffset":156544,
			"target":34962
		},
		{
			"buffer":0,
			"byteLength":2208,
			"byteOffset":160080,
			"target":34963
		},
		{
			"buffer":0,
			"byteLength":5124,
			"byteOffset":162288,
			"target":34962
		},
		{
			"buffer":0,
			"byteLength":5124,
			"byteOffset":167412,
			"target":34962
		},
		{
			"buffer":0,
			"byteLength":3416,
			"byteOffset":172536,
			"target":34962
		},
		{
			"buffer":0,
			"byteLength":2208,
			"byteOffset":175952,
			"target":34963
		},
		{
			"buffer":0,
			"byteLength":5028,
			"byteOffset":178160,
			"target":34962
		},
		{
			"buffer":0,
			"byteLength":5028,
			"byteOffset":183188,
			"target":34962
		},
		{
			"buffer":0,
			"byteLength":3352,
			"byteOffset":188216,
			"target":34962
		},
		{
			"buffer":0,
			"byteLength":2208,
			"byteOffset":191568,
			"target":34963
		},
		{
			"buffer":0,
			"byteLength":2784,
			"byteOffset":193776,
			"target":34962
		},
		{
			"buffer":0,
			"byteLength":2784,
			"byteOffset":196560,
			"target":34962
		},
		{
			"buffer":0,
			"byteLength":1856,
			"byteOffset":199344,
			"target":34962
		},
		{
			"buffer":0,
			"byteLength":1512,
			"byteOffset":201200,
			"target":34963
		},
		{
			"buffer":0,
			"byteLength":2784,
			"byteOffset":202712,
			"target":34962
		},
		{
			"buffer":0,
			"byteLength":2784,
			"byteOffset":205496,
			"target":34962
		},
		{
			"buffer":0,
			"byteLength":1856,
			"byteOffset":208280,
			"target":34962
		}
	],
	"samplers":[
		{
			"magFilter":9729,
			"minFilter":9987
		}
	],
	"buffers":[
		{
			"byteLength":210136,
			"uri":"metal_office_desk.bin"
		}
	]
}
