{
	"asset":{
		"generator":"Khronos glTF Blender I/O v5.2.40",
		"version":"2.0"
	},
	"scene":0,
	"scenes":[
		{
			"name":"Scene",
			"nodes":[
				0
			]
		}
	],
	"nodes":[
		{
			"mesh":0,
			"name":"street_lamp_02"
		}
	],
	"materials":[
		{
			"doubleSided":true,
			"name":"street_lamp_02",
			"normalTexture":{
				"index":0
			},
			"pbrMetallicRoughness":{
				"baseColorTexture":{
					"index":1
				},
				"metallicRoughnessTexture":{
					"index":2
				}
			}
		},
		{
			"alphaMode":"BLEND",
			"doubleSided":true,
			"name":"street_lamp_02_glass",
			"normalTexture":{
				"index":3
			},
			"pbrMetallicRoughness":{
				"baseColorTexture":{
					"index":4
				},
				"metallicRoughnessTexture":{
					"index":5
				}
			}
		},
		{
			"doubleSided":true,
			"name":"street_lamp_02_bulb",
			"normalTexture":{
				"index":6
			},
			"pbrMetallicRoughness":{
				"baseColorTexture":{
					"index":7
				},
				"metallicRoughnessTexture":{
					"index":8
				}
			}
		}
	],
	"meshes":[
		{
			"name":"street_lamp_02_stem_mesh",
			"primitives":[
				{
					"attributes":{
						"POSITION":0,
						"NORMAL":1,
						"TEXCOORD_0":2
					},
					"indices":3,
					"material":0
				},
				{
					"attributes":{
						"POSITION":4,
						"NORMAL":5,
						"TEXCOORD_0":6
					},
					"indices":7,
					"material":1
				},
				{
					"attributes":{
						"POSITION":8,
						"NORMAL":9,
						"TEXCOORD_0":10
					},
					"indices":11,
					"material":2
				}
			]
		}
	],
	"textures":[
		{
			"sampler":0,
			"source":0
		},
		{
			"sampler":0,
			"source":1
		},
		{
			"sampler":0,
			"source":2
		},
		{
			"sampler":0,
			"source":0
		},
		{
			"sampler":0,
			"source":3
		},
		{
			"sampler":0,
			"source":2
		},
		{
			"sampler":0,
			"source":0
		},
		{
			"sampler":0,
			"source":1
		},
		{
			"sampler":0,
			"source":2
		}
	],
	"images":[
		{
			"mimeType":"image/jpeg",
			"name":"street_lamp_02_nor_gl",
			"uri":"textures/street_lamp_02_nor_gl_1k.jpg"
		},
		{
			"mimeType":"image/jpeg",
			"name":"street_lamp_02_diff",
			"uri":"textures/street_lamp_02_diff_1k.jpg"
		},
		{
			"mimeType":"image/jpeg",
			"name":"street_lamp_02_metal-street_lamp_02_rough",
			"uri":"textures/street_lamp_02_arm_1k.jpg"
		},
		{
			"mimeType":"image/png",
			"name":"street_lamp_02_diff",
			"uri":"textures/street_lamp_02_diff_1k.jpg"
		}
	],
	"accessors":[
		{
			"bufferView":0,
			"componentType":5126,
			"count":2753,
			"max":[
				0.19193099439144135,
				1.2790300846099854,
				0.8054737448692322
			],
			"min":[
				-0.19193105399608612,
				-0.39354097843170166,
				-2.3138042593018326e-08
			],
			"type":"VEC3"
		},
		{
			"bufferView":1,
			"componentType":5126,
			"count":2753,
			"type":"VEC3"
		},
		{
			"bufferView":2,
			"componentType":5126,
			"count":2753,
			"type":"VEC2"
		},
		{
			"bufferView":3,
			"componentType":5123,
			"count":8802,
			"type":"SCALAR"
		},
		{
			"bufferView":4,
			"componentType":5126,
			"count":40,
			"max":[
				0.17243391275405884,
				0.9191105365753174,
				0.785654604434967
			],
			"min":[
				-0.17235642671585083,
				0.5475513339042664,
				0.44143086671829224
			],
			"type":"VEC3"
		},
		{
			"bufferView":5,
			"componentType":5126,
			"count":40,
			"type":"VEC3"
		},
		{
			"bufferView":6,
			"componentType":5126,
			"count":40,
			"type":"VEC2"
		},
		{
			"bufferView":7,
			"componentType":5123,
			"count":48,
			"type":"SCALAR"
		},
		{
			"bufferView":8,
			"componentType":5126,
			"count":41,
			"max":[
				0.03010203316807747,
				0.711075484752655,
				0.6435291171073914
			],
			"min":[
				-0.030703192576766014,
				0.636663019657135,
				0.5827328562736511
			],
			"type":"VEC3"
		},
		{
			"bufferView":9,
			"componentType":5126,
			"count":41,
			"type":"VEC3"
		},
		{
			"bufferView":10,
			"componentType":5126,
			"count":41,
			"type":"VEC2"
		},
		{
			"bufferView":11,
			"componentType":5123,
			"count":150,
			"type":"SCALAR"
		}
	],
	"bufferViews":[
		{
			"buffer":0,
			"byteLength":33036,
			"byteOffset":0,
			"target":34962
		},
		{
			"buffer":0,
			"byteLength":33036,
			"byteOffset":33036,
			"target":34962
		},
		{
			"buffer":0,
			"byteLength":22024,
			"byteOffset":66072,
			"target":34962
		},
		{
			"buffer":0,
			"byteLength":17604,
			"byteOffset":88096,
			"target":34963
		},
		{
			"buffer":0,
			"byteLength":480,
			"byteOffset":105700,
			"target":34962
		},
		{
			"buffer":0,
			"byteLength":480,
			"byteOffset":106180,
			"target":34962
		},
		{
			"buffer":0,
			"byteLength":320,
			"byteOffset":106660,
			"target":34962
		},
		{
			"buffer":0,
			"byteLength":96,
			"byteOffset":106980,
			"target":34963
		},
		{
			"buffer":0,
			"byteLength":492,
			"byteOffset":107076,
			"target":34962
		},
		{
			"buffer":0,
			"byteLength":492,
			"byteOffset":107568,
			"target":34962
		},
		{
			"buffer":0,
			"byteLength":328,
			"byteOffset":108060,
			"target":34962
		},
		{
			"buffer":0,
			"byteLength":300,
			"byteOffset":108388,
			"target":34963
		}
	],
	"samplers":[
		{
			"magFilter":9729,
			"minFilter":9987
		}
	],
	"buffers":[
		{
			"byteLength":108688,
			"uri":"street_lamp_02.bin"
		}
	]
}
