{
	"asset":{
		"generator":"Khronos glTF Blender I/O v5.2.40",
		"version":"2.0"
	},
	"scene":0,
	"scenes":[
		{
			"name":"Scene",
			"nodes":[
				0
			]
		}
	],
	"nodes":[
		{
			"mesh":0,
			"name":"Chandelier_02"
		}
	],
	"materials":[
		{
			"doubleSided":true,
			"name":"Chandelier_02",
			"normalTexture":{
				"index":0
			},
			"pbrMetallicRoughness":{
				"baseColorTexture":{
					"index":1
				},
				"metallicRoughnessTexture":{
					"index":2
				}
			}
		},
		{
			"doubleSided":true,
			"name":"Chandelier_02_bulb",
			"pbrMetallicRoughness":{
				"baseColorFactor":[
					0.800000011920929,
					0.800000011920929,
					0.800000011920929,
					1
				],
				"metallicFactor":0,
				"roughnessFactor":0.27272725105285645
			}
		}
	],
	"meshes":[
		{
			"name":"Cylinder010.002",
			"primitives":[
				{
					"attributes":{
						"POSITION":0,
						"NORMAL":1,
						"TEXCOORD_0":2
					},
					"indices":3,
					"material":0
				},
				{
					"attributes":{
						"POSITION":4,
						"NORMAL":5,
						"TEXCOORD_0":6
					},
					"indices":7,
					"material":1
				}
			]
		}
	],
	"textures":[
		{
			"sampler":0,
			"source":0
		},
		{
			"sampler":0,
			"source":1
		},
		{
			"sampler":0,
			"source":2
		}
	],
	"images":[
		{
			"mimeType":"image/jpeg",
			"name":"Chandelier_02_nor_gl",
			"uri":"textures/Chandelier_02_nor_gl_1k.jpg"
		},
		{
			"mimeType":"image/jpeg",
			"name":"Chandelier_02_diff",
			"uri":"textures/Chandelier_02_diff_1k.jpg"
		},
		{
			"mimeType":"image/jpeg",
			"name":"Chandelier_02_metallic-Chandelier_02_roughness",
			"uri":"textures/Chandelier_02_arm_1k.jpg"
		}
	],
	"accessors":[
		{
			"bufferView":0,
			"componentType":5126,
			"count":3204,
			"max":[
				0.3373512029647827,
				0.9077441692352295,
				0.31358247995376587
			],
			"min":[
				-0.33924463391304016,
				0.05837821215391159,
				-0.30413150787353516
			],
			"type":"VEC3"
		},
		{
			"bufferView":1,
			"componentType":5126,
			"count":3204,
			"type":"VEC3"
		},
		{
			"bufferView":2,
			"componentType":5126,
			"count":3204,
			"type":"VEC2"
		},
		{
			"bufferView":3,
			"componentType":5123,
			"count":8703,
			"type":"SCALAR"
		},
		{
			"bufferView":4,
			"componentType":5126,
			"count":81,
			"max":[
				0.28001147508621216,
				0.3538309335708618,
				0.254665732383728
			],
			"min":[
				-0.27834612131118774,
				0.2863456904888153,
				-0.2470608949661255
			],
			"type":"VEC3"
		},
		{
			"bufferView":5,
			"componentType":5126,
			"count":81,
			"type":"VEC3"
		},
		{
			"bufferView":6,
			"componentType":5126,
			"count":81,
			"type":"VEC2"
		},
		{
			"bufferView":7,
			"componentType":5123,
			"count":297,
			"type":"SCALAR"
		}
	],
	"bufferViews":[
		{
			"buffer":0,
			"byteLength":38448,
			"byteOffset":0,
			"target":34962
		},
		{
			"buffer":0,
			"byteLength":38448,
			"byteOffset":38448,
			"target":34962
		},
		{
			"buffer":0,
			"byteLength":25632,
			"byteOffset":76896,
			"target":34962
		},
		{
			"buffer":0,
			"byteLength":17406,
			"byteOffset":102528,
			"target":34963
		},
		{
			"buffer":0,
			"byteLength":972,
			"byteOffset":119936,
			"target":34962
		},
		{
			"buffer":0,
			"byteLength":972,
			"byteOffset":120908,
			"target":34962
		},
		{
			"buffer":0,
			"byteLength":648,
			"byteOffset":121880,
			"target":34962
		},
		{
			"buffer":0,
			"byteLength":594,
			"byteOffset":122528,
			"target":34963
		}
	],
	"samplers":[
		{
			"magFilter":9729,
			"minFilter":9987
		}
	],
	"buffers":[
		{
			"byteLength":123124,
			"uri":"Chandelier_02.bin"
		}
	]
}
