{
	"asset":{
		"generator":"Khronos glTF Blender I/O v5.2.40",
		"version":"2.0"
	},
	"extensionsUsed":[
		"KHR_materials_transmission",
		"KHR_materials_emissive_strength"
	],
	"scene":0,
	"scenes":[
		{
			"name":"Scene",
			"nodes":[
				0
			]
		}
	],
	"nodes":[
		{
			"mesh":0,
			"name":"hanging_industrial_lamp"
		}
	],
	"materials":[
		{
			"doubleSided":true,
			"emissiveFactor":[
				1,
				1,
				1
			],
			"emissiveTexture":{
				"index":0
			},
			"extensions":{
				"KHR_materials_emissive_strength":{
					"emissiveStrength":24.999998092651367
				}
			},
			"name":"hanging_industrial_lamp",
			"normalTexture":{
				"index":1
			},
			"pbrMetallicRoughness":{
				"baseColorTexture":{
					"index":2
				},
				"metallicRoughnessTexture":{
					"index":3
				}
			}
		},
		{
			"doubleSided":true,
			"extensions":{
				"KHR_materials_transmission":{
					"transmissionFactor":1
				}
			},
			"name":"hanging_industrial_lamp_glass",
			"normalTexture":{
				"index":4
			},
			"pbrMetallicRoughness":{
				"baseColorFactor":[
					0.800000011920929,
					0.800000011920929,
					0.800000011920929,
					1
				],
				"metallicFactor":0,
				"roughnessFactor":0.10000000149011612
			}
		}
	],
	"meshes":[
		{
			"name":"Cylinder",
			"primitives":[
				{
					"attributes":{
						"POSITION":0,
						"NORMAL":1,
						"TEXCOORD_0":2
					},
					"indices":3,
					"material":0
				},
				{
					"attributes":{
						"POSITION":4,
						"NORMAL":5,
						"TEXCOORD_0":6
					},
					"indices":7,
					"material":1
				}
			]
		}
	],
	"textures":[
		{
			"sampler":0,
			"source":0
		},
		{
			"sampler":0,
			"source":1
		},
		{
			"sampler":0,
			"source":2
		},
		{
			"sampler":0,
			"source":3
		},
		{
			"sampler":0,
			"source":4
		}
	],
	"images":[
		{
			"mimeType":"image/jpeg",
			"name":"hanging_industrial_lamp_emissive",
			"uri":"textures/hanging_industrial_lamp_emissive_1k.jpg"
		},
		{
			"mimeType":"image/jpeg",
			"name":"hanging_industrial_lamp_nor_gl",
			"uri":"textures/hanging_industrial_lamp_nor_gl_1k.jpg"
		},
		{
			"mimeType":"image/jpeg",
			"name":"hanging_industrial_lamp_diff",
			"uri":"textures/hanging_industrial_lamp_diff_1k.jpg"
		},
		{
			"mimeType":"image/jpeg",
			"name":"hanging_industrial_lamp_metal-hanging_industrial_lamp_rough",
			"uri":"textures/hanging_industrial_lamp_arm_1k.jpg"
		},
		{
			"mimeType":"image/jpeg",
			"name":"hanging_industrial_lamp_glass_nor_gl",
			"uri":"textures/hanging_industrial_lamp_glass_nor_gl_1k.jpg"
		}
	],
	"accessors":[
		{
			"bufferView":0,
			"componentType":5126,
			"count":2983,
			"max":[
				0.2748033106327057,
				0.014404980465769768,
				0.2748030722141266
			],
			"min":[
				-0.27480319142341614,
				-1.3424814939498901,
				-0.27480337023735046
			],
			"type":"VEC3"
		},
		{
			"bufferView":1,
			"componentType":5126,
			"count":2983,
			"type":"VEC3"
		},
		{
			"bufferView":2,
			"componentType":5126,
			"count":2983,
			"type":"VEC2"
		},
		{
			"bufferView":3,
			"componentType":5123,
			"count":7323,
			"type":"SCALAR"
		},
		{
			"bufferView":4,
			"componentType":5126,
			"count":667,
			"max":[
				0.25406667590141296,
				-1.0371685028076172,
				0.25406667590141296
			],
			"min":[
				-0.25406667590141296,
				-1.3290307521820068,
				-0.25406667590141296
			],
			"type":"VEC3"
		},
		{
			"bufferView":5,
			"componentType":5126,
			"count":667,
			"type":"VEC3"
		},
		{
			"bufferView":6,
			"componentType":5126,
			"count":667,
			"type":"VEC2"
		},
		{
			"bufferView":7,
			"componentType":5123,
			"count":1677,
			"type":"SCALAR"
		}
	],
	"bufferViews":[
		{
			"buffer":0,
			"byteLength":35796,
			"byteOffset":0,
			"target":34962
		},
		{
			"buffer":0,
			"byteLength":35796,
			"byteOffset":35796,
			"target":34962
		},
		{
			"buffer":0,
			"byteLength":23864,
			"byteOffset":71592,
			"target":34962
		},
		{
			"buffer":0,
			"byteLength":14646,
			"byteOffset":95456,
			"target":34963
		},
		{
			"buffer":0,
			"byteLength":8004,
			"byteOffset":110104,
			"target":34962
		},
		{
			"buffer":0,
			"byteLength":8004,
			"byteOffset":118108,
			"target":34962
		},
		{
			"buffer":0,
			"byteLength":5336,
			"byteOffset":126112,
			"target":34962
		},
		{
			"buffer":0,
			"byteLength":3354,
			"byteOffset":131448,
			"target":34963
		}
	],
	"samplers":[
		{
			"magFilter":9729,
			"minFilter":9987
		}
	],
	"buffers":[
		{
			"byteLength":134804,
			"uri":"hanging_industrial_lamp.bin"
		}
	]
}
