{
	"asset":{
		"generator":"Khronos glTF Blender I/O v5.2.40",
		"version":"2.0"
	},
	"scene":0,
	"scenes":[
		{
			"name":"Scene",
			"nodes":[
				0
			]
		}
	],
	"nodes":[
		{
			"mesh":0,
			"name":"metal_stool_03"
		}
	],
	"materials":[
		{
			"doubleSided":true,
			"name":"metal_stool_03",
			"normalTexture":{
				"index":0
			},
			"pbrMetallicRoughness":{
				"baseColorTexture":{
					"index":1
				},
				"metallicRoughnessTexture":{
					"index":2
				}
			}
		}
	],
	"meshes":[
		{
			"name":"MetalStool",
			"primitives":[
				{
					"attributes":{
						"POSITION":0,
						"NORMAL":1,
						"TEXCOORD_0":2
					},
					"indices":3,
					"material":0
				}
			]
		}
	],
	"textures":[
		{
			"sampler":0,
			"source":0
		},
		{
			"sampler":0,
			"source":1
		},
		{
			"sampler":0,
			"source":2
		}
	],
	"images":[
		{
			"mimeType":"image/jpeg",
			"name":"metal_stool_03_nor_gl",
			"uri":"textures/metal_stool_03_nor_gl_1k.jpg"
		},
		{
			"mimeType":"image/jpeg",
			"name":"metal_stool_03_diff",
			"uri":"textures/metal_stool_03_diff_1k.jpg"
		},
		{
			"mimeType":"image/jpeg",
			"name":"metal_stool_03_metal-metal_stool_03_rough",
			"uri":"textures/metal_stool_03_arm_1k.jpg"
		}
	],
	"accessors":[
		{
			"bufferView":0,
			"componentType":5126,
			"count":2630,
			"max":[
				0.2303095906972885,
				1.0243903398513794,
				0.23267655074596405
			],
			"min":[
				-0.2303095906972885,
				0.0012558228336274624,
				-0.2379394769668579
			],
			"type":"VEC3"
		},
		{
			"bufferView":1,
			"componentType":5126,
			"count":2630,
			"type":"VEC3"
		},
		{
			"bufferView":2,
			"componentType":5126,
			"count":2630,
			"type":"VEC2"
		},
		{
			"bufferView":3,
			"componentType":5123,
			"count":9000,
			"type":"SCALAR"
		}
	],
	"bufferViews":[
		{
			"buffer":0,
			"byteLength":31560,
			"byteOffset":0,
			"target":34962
		},
		{
			"buffer":0,
			"byteLength":31560,
			"byteOffset":31560,
			"target":34962
		},
		{
			"buffer":0,
			"byteLength":21040,
			"byteOffset":63120,
			"target":34962
		},
		{
			"buffer":0,
			"byteLength":18000,
			"byteOffset":84160,
			"target":34963
		}
	],
	"samplers":[
		{
			"magFilter":9729,
			"minFilter":9987
		}
	],
	"buffers":[
		{
			"byteLength":102160,
			"uri":"metal_stool_03.bin"
		}
	]
}
