{
	"asset":{
		"generator":"Khronos glTF Blender I/O v5.2.40",
		"version":"2.0"
	},
	"scene":0,
	"scenes":[
		{
			"name":"Scene",
			"nodes":[
				0
			]
		}
	],
	"nodes":[
		{
			"mesh":0,
			"name":"modern_coffee_table_02"
		}
	],
	"materials":[
		{
			"doubleSided":true,
			"name":"modern_coffee_table_02_base",
			"normalTexture":{
				"index":0
			},
			"pbrMetallicRoughness":{
				"baseColorTexture":{
					"index":1
				},
				"metallicFactor":0,
				"metallicRoughnessTexture":{
					"index":2
				}
			}
		},
		{
			"doubleSided":true,
			"name":"modern_coffee_table_02_wood",
			"normalTexture":{
				"index":3
			},
			"pbrMetallicRoughness":{
				"baseColorTexture":{
					"index":4
				},
				"metallicFactor":0,
				"metallicRoughnessTexture":{
					"index":5
				}
			}
		}
	],
	"meshes":[
		{
			"name":"BezierCircle.002",
			"primitives":[
				{
					"attributes":{
						"POSITION":0,
						"NORMAL":1,
						"TEXCOORD_0":2
					},
					"indices":3,
					"material":0
				},
				{
					"attributes":{
						"POSITION":4,
						"NORMAL":5,
						"TEXCOORD_0":6
					},
					"indices":7,
					"material":1
				}
			]
		}
	],
	"textures":[
		{
			"sampler":0,
			"source":0
		},
		{
			"sampler":0,
			"source":1
		},
		{
			"sampler":0,
			"source":2
		},
		{
			"sampler":0,
			"source":3
		},
		{
			"sampler":0,
			"source":4
		},
		{
			"sampler":0,
			"source":5
		}
	],
	"images":[
		{
			"mimeType":"image/jpeg",
			"name":"modern_coffee_table_02_base_nor_gl.png",
			"uri":"textures/modern_coffee_table_02_base_nor_gl_1k.jpg"
		},
		{
			"mimeType":"image/jpeg",
			"name":"modern_coffee_table_02_base_diff",
			"uri":"textures/modern_coffee_table_02_base_diff_1k.jpg"
		},
		{
			"mimeType":"image/jpeg",
			"name":"modern_coffee_table_02_base_rough",
			"uri":"textures/modern_coffee_table_02_base_rough_1k.jpg"
		},
		{
			"mimeType":"image/jpeg",
			"name":"modern_coffee_table_02_wood_nor_gl",
			"uri":"textures/modern_coffee_table_02_wood_nor_gl_1k.jpg"
		},
		{
			"mimeType":"image/jpeg",
			"name":"modern_coffee_table_02_wood_diff",
			"uri":"textures/modern_coffee_table_02_wood_diff_1k.jpg"
		},
		{
			"mimeType":"image/jpeg",
			"name":"modern_coffee_table_02_wood_rough",
			"uri":"textures/modern_coffee_table_02_wood_rough_1k.jpg"
		}
	],
	"accessors":[
		{
			"bufferView":0,
			"componentType":5126,
			"count":976,
			"max":[
				0.6005419492721558,
				0.3674314022064209,
				0.6017131805419922
			],
			"min":[
				-0.597504734992981,
				-0.0011071074986830354,
				-0.5973209142684937
			],
			"type":"VEC3"
		},
		{
			"bufferView":1,
			"componentType":5126,
			"count":976,
			"type":"VEC3"
		},
		{
			"bufferView":2,
			"componentType":5126,
			"count":976,
			"type":"VEC2"
		},
		{
			"bufferView":3,
			"componentType":5123,
			"count":1872,
			"type":"SCALAR"
		},
		{
			"bufferView":4,
			"componentType":5126,
			"count":5041,
			"max":[
				0.4494684934616089,
				0.36905211210250854,
				0.6023358702659607
			],
			"min":[
				-0.5985692739486694,
				0.0669964849948883,
				-0.4451645016670227
			],
			"type":"VEC3"
		},
		{
			"bufferView":5,
			"componentType":5126,
			"count":5041,
			"type":"VEC3"
		},
		{
			"bufferView":6,
			"componentType":5126,
			"count":5041,
			"type":"VEC2"
		},
		{
			"bufferView":7,
			"componentType":5123,
			"count":7128,
			"type":"SCALAR"
		}
	],
	"bufferViews":[
		{
			"buffer":0,
			"byteLength":11712,
			"byteOffset":0,
			"target":34962
		},
		{
			"buffer":0,
			"byteLength":11712,
			"byteOffset":11712,
			"target":34962
		},
		{
			"buffer":0,
			"byteLength":7808,
			"byteOffset":23424,
			"target":34962
		},
		{
			"buffer":0,
			"byteLength":3744,
			"byteOffset":31232,
			"target":34963
		},
		{
			"buffer":0,
			"byteLength":60492,
			"byteOffset":34976,
			"target":34962
		},
		{
			"buffer":0,
			"byteLength":60492,
			"byteOffset":95468,
			"target":34962
		},
		{
			"buffer":0,
			"byteLength":40328,
			"byteOffset":155960,
			"target":34962
		},
		{
			"buffer":0,
			"byteLength":14256,
			"byteOffset":196288,
			"target":34963
		}
	],
	"samplers":[
		{
			"magFilter":9729,
			"minFilter":9987
		}
	],
	"buffers":[
		{
			"byteLength":210544,
			"uri":"modern_coffee_table_02.bin"
		}
	]
}
