{
	"asset":{
		"generator":"Khronos glTF Blender I/O v5.2.40",
		"version":"2.0"
	},
	"scene":0,
	"scenes":[
		{
			"name":"Scene",
			"nodes":[
				0,
				1,
				2
			]
		}
	],
	"nodes":[
		{
			"mesh":0,
			"name":"potted_plant_02_dirt",
			"translation":[
				-0.12862031161785126,
				0.31752803921699524,
				-0.13355804979801178
			]
		},
		{
			"mesh":1,
			"name":"potted_plant_02_leaves",
			"translation":[
				-0.0029038283973932266,
				0.30528968572616577,
				0.0006859108689241111
			]
		},
		{
			"mesh":2,
			"name":"potted_plant_02_pot"
		}
	],
	"materials":[
		{
			"doubleSided":true,
			"name":"potted_plant_02_pot",
			"normalTexture":{
				"index":0
			},
			"pbrMetallicRoughness":{
				"baseColorTexture":{
					"index":1
				},
				"metallicFactor":0,
				"metallicRoughnessTexture":{
					"index":2
				}
			}
		},
		{
			"alphaMode":"MASK",
			"doubleSided":true,
			"name":"potted_plant_02_leaves",
			"normalTexture":{
				"index":3
			},
			"pbrMetallicRoughness":{
				"baseColorTexture":{
					"index":4
				},
				"metallicFactor":0,
				"metallicRoughnessTexture":{
					"index":5
				}
			}
		}
	],
	"meshes":[
		{
			"name":"low.008",
			"primitives":[
				{
					"attributes":{
						"POSITION":0,
						"NORMAL":1,
						"TEXCOORD_0":2
					},
					"indices":3,
					"material":0
				}
			]
		},
		{
			"name":"Circle.001",
			"primitives":[
				{
					"attributes":{
						"POSITION":4,
						"NORMAL":5,
						"TEXCOORD_0":6
					},
					"indices":7,
					"material":1
				}
			]
		},
		{
			"name":"Circle",
			"primitives":[
				{
					"attributes":{
						"POSITION":8,
						"NORMAL":9,
						"TEXCOORD_0":10
					},
					"indices":11,
					"material":0
				}
			]
		}
	],
	"textures":[
		{
			"sampler":0,
			"source":0
		},
		{
			"sampler":0,
			"source":1
		},
		{
			"sampler":0,
			"source":2
		},
		{
			"sampler":0,
			"source":3
		},
		{
			"sampler":0,
			"source":4
		},
		{
			"sampler":0,
			"source":5
		}
	],
	"images":[
		{
			"mimeType":"image/jpeg",
			"name":"potted_plant_02_pot_nor_gl",
			"uri":"textures/potted_plant_02_pot_nor_gl_1k.jpg"
		},
		{
			"mimeType":"image/jpeg",
			"name":"potted_plant_02_pot_diff",
			"uri":"textures/potted_plant_02_pot_diff_1k.jpg"
		},
		{
			"mimeType":"image/jpeg",
			"name":"potted_plant_02_pot_rough",
			"uri":"textures/potted_plant_02_pot_rough_1k.jpg"
		},
		{
			"mimeType":"image/jpeg",
			"name":"potted_plant_02_leaves_nor_gl",
			"uri":"textures/potted_plant_02_leaves_nor_gl_1k.jpg"
		},
		{
			"mimeType":"image/png",
			"name":"potted_plant_02_leaves_diff",
			"uri":"textures/potted_plant_02_leaves_diff_1k.jpg"
		},
		{
			"mimeType":"image/jpeg",
			"name":"potted_plant_02_leaves_rough",
			"uri":"textures/potted_plant_02_leaves_rough_1k.jpg"
		}
	],
	"accessors":[
		{
			"bufferView":0,
			"componentType":5126,
			"count":3740,
			"max":[
				0.33197396993637085,
				0.02393469586968422,
				0.33901411294937134
			],
			"min":[
				-0.07833721488714218,
				-0.022632265463471413,
				-0.07522270828485489
			],
			"type":"VEC3"
		},
		{
			"bufferView":1,
			"componentType":5126,
			"count":3740,
			"type":"VEC3"
		},
		{
			"bufferView":2,
			"componentType":5126,
			"count":3740,
			"type":"VEC2"
		},
		{
			"bufferView":3,
			"componentType":5123,
			"count":8997,
			"type":"SCALAR"
		},
		{
			"bufferView":4,
			"componentType":5126,
			"count":3045,
			"max":[
				0.3072727620601654,
				0.535942018032074,
				0.22156056761741638
			],
			"min":[
				-0.3935510814189911,
				-0.0969618558883667,
				-0.4205091595649719
			],
			"type":"VEC3"
		},
		{
			"bufferView":5,
			"componentType":5126,
			"count":3045,
			"type":"VEC3"
		},
		{
			"bufferView":6,
			"componentType":5126,
			"count":3045,
			"type":"VEC2"
		},
		{
			"bufferView":7,
			"componentType":5123,
			"count":8997,
			"type":"SCALAR"
		},
		{
			"bufferView":8,
			"componentType":5126,
			"count":1719,
			"max":[
				0.23707397282123566,
				0.3361942172050476,
				0.23707397282123566
			],
			"min":[
				-0.23707397282123566,
				-0.0001511192531324923,
				-0.23707395792007446
			],
			"type":"VEC3"
		},
		{
			"bufferView":9,
			"componentType":5126,
			"count":1719,
			"type":"VEC3"
		},
		{
			"bufferView":10,
			"componentType":5126,
			"count":1719,
			"type":"VEC2"
		},
		{
			"bufferView":11,
			"componentType":5123,
			"count":9000,
			"type":"SCALAR"
		}
	],
	"bufferViews":[
		{
			"buffer":0,
			"byteLength":44880,
			"byteOffset":0,
			"target":34962
		},
		{
			"buffer":0,
			"byteLength":44880,
			"byteOffset":44880,
			"target":34962
		},
		{
			"buffer":0,
			"byteLength":29920,
			"byteOffset":89760,
			"target":34962
		},
		{
			"buffer":0,
			"byteLength":17994,
			"byteOffset":119680,
			"target":34963
		},
		{
			"buffer":0,
			"byteLength":36540,
			"byteOffset":137676,
			"target":34962
		},
		{
			"buffer":0,
			"byteLength":36540,
			"byteOffset":174216,
			"target":34962
		},
		{
			"buffer":0,
			"byteLength":24360,
			"byteOffset":210756,
			"target":34962
		},
		{
			"buffer":0,
			"byteLength":17994,
			"byteOffset":235116,
			"target":34963
		},
		{
			"buffer":0,
			"byteLength":20628,
			"byteOffset":253112,
			"target":34962
		},
		{
			"buffer":0,
			"byteLength":20628,
			"byteOffset":273740,
			"target":34962
		},
		{
			"buffer":0,
			"byteLength":13752,
			"byteOffset":294368,
			"target":34962
		},
		{
			"buffer":0,
			"byteLength":18000,
			"byteOffset":308120,
			"target":34963
		}
	],
	"samplers":[
		{
			"magFilter":9729,
			"minFilter":9987
		}
	],
	"buffers":[
		{
			"byteLength":326120,
			"uri":"potted_plant_02.bin"
		}
	]
}
