{
	"asset":{
		"generator":"Khronos glTF Blender I/O v5.2.40",
		"version":"2.0"
	},
	"scene":0,
	"scenes":[
		{
			"name":"Scene",
			"nodes":[
				0
			]
		}
	],
	"nodes":[
		{
			"mesh":0,
			"name":"wooden_bookshelf_worn"
		}
	],
	"materials":[
		{
			"doubleSided":true,
			"name":"wooden_bookshelf_worn",
			"normalTexture":{
				"index":0
			},
			"pbrMetallicRoughness":{
				"baseColorTexture":{
					"index":1
				},
				"metallicRoughnessTexture":{
					"index":2
				}
			}
		}
	],
	"meshes":[
		{
			"name":"Cube.009",
			"primitives":[
				{
					"attributes":{
						"POSITION":0,
						"NORMAL":1,
						"TEXCOORD_0":2
					},
					"indices":3,
					"material":0
				}
			]
		}
	],
	"textures":[
		{
			"sampler":0,
			"source":0
		},
		{
			"sampler":0,
			"source":1
		},
		{
			"sampler":0,
			"source":2
		}
	],
	"images":[
		{
			"mimeType":"image/jpeg",
			"name":"wooden_bookshelf_worn_nor_gl",
			"uri":"textures/wooden_bookshelf_worn_nor_gl_1k.jpg"
		},
		{
			"mimeType":"image/jpeg",
			"name":"wooden_bookshelf_worn_diff",
			"uri":"textures/wooden_bookshelf_worn_diff_1k.jpg"
		},
		{
			"mimeType":"image/jpeg",
			"name":"wooden_bookshelf_worn_metal-wooden_bookshelf_worn_rough",
			"uri":"textures/wooden_bookshelf_worn_arm_1k.jpg"
		}
	],
	"accessors":[
		{
			"bufferView":0,
			"componentType":5126,
			"count":2349,
			"max":[
				0.68697589635849,
				2.0634002685546875,
				0.29065099358558655
			],
			"min":[
				-0.68697589635849,
				-6.094714422033576e-08,
				-0.29065102338790894
			],
			"type":"VEC3"
		},
		{
			"bufferView":1,
			"componentType":5126,
			"count":2349,
			"type":"VEC3"
		},
		{
			"bufferView":2,
			"componentType":5126,
			"count":2349,
			"type":"VEC2"
		},
		{
			"bufferView":3,
			"componentType":5123,
			"count":9000,
			"type":"SCALAR"
		}
	],
	"bufferViews":[
		{
			"buffer":0,
			"byteLength":28188,
			"byteOffset":0,
			"target":34962
		},
		{
			"buffer":0,
			"byteLength":28188,
			"byteOffset":28188,
			"target":34962
		},
		{
			"buffer":0,
			"byteLength":18792,
			"byteOffset":56376,
			"target":34962
		},
		{
			"buffer":0,
			"byteLength":18000,
			"byteOffset":75168,
			"target":34963
		}
	],
	"samplers":[
		{
			"magFilter":9729,
			"minFilter":9987
		}
	],
	"buffers":[
		{
			"byteLength":93168,
			"uri":"wooden_bookshelf_worn.bin"
		}
	]
}
