{
	"asset":{
		"generator":"Khronos glTF Blender I/O v5.2.40",
		"version":"2.0"
	},
	"scene":0,
	"scenes":[
		{
			"name":"Scene",
			"nodes":[
				0
			]
		}
	],
	"nodes":[
		{
			"mesh":0,
			"name":"brass_vase_02"
		}
	],
	"materials":[
		{
			"doubleSided":true,
			"name":"brass_vase_02",
			"normalTexture":{
				"index":0
			},
			"pbrMetallicRoughness":{
				"baseColorTexture":{
					"index":1
				},
				"metallicRoughnessTexture":{
					"index":2
				}
			}
		}
	],
	"meshes":[
		{
			"name":"brass_vase_02_blockout",
			"primitives":[
				{
					"attributes":{
						"POSITION":0,
						"NORMAL":1,
						"TEXCOORD_0":2
					},
					"indices":3,
					"material":0
				}
			]
		}
	],
	"textures":[
		{
			"sampler":0,
			"source":0
		},
		{
			"sampler":0,
			"source":1
		},
		{
			"sampler":0,
			"source":2
		}
	],
	"images":[
		{
			"mimeType":"image/jpeg",
			"name":"brass_vase_02_nor_gl",
			"uri":"textures/brass_vase_02_nor_gl_1k.jpg"
		},
		{
			"mimeType":"image/jpeg",
			"name":"brass_vase_02_diff",
			"uri":"textures/brass_vase_02_diff_1k.jpg"
		},
		{
			"mimeType":"image/jpeg",
			"name":"brass_vase_02_arm",
			"uri":"textures/brass_vase_02_arm_1k.jpg"
		}
	],
	"accessors":[
		{
			"bufferView":0,
			"componentType":5126,
			"count":1833,
			"max":[
				0.10557717829942703,
				0.5290971994400024,
				0.10503516346216202
			],
			"min":[
				-0.10449445247650146,
				0.00020020756346639246,
				-0.10503516346216202
			],
			"type":"VEC3"
		},
		{
			"bufferView":1,
			"componentType":5126,
			"count":1833,
			"type":"VEC3"
		},
		{
			"bufferView":2,
			"componentType":5126,
			"count":1833,
			"type":"VEC2"
		},
		{
			"bufferView":3,
			"componentType":5123,
			"count":8997,
			"type":"SCALAR"
		}
	],
	"bufferViews":[
		{
			"buffer":0,
			"byteLength":21996,
			"byteOffset":0,
			"target":34962
		},
		{
			"buffer":0,
			"byteLength":21996,
			"byteOffset":21996,
			"target":34962
		},
		{
			"buffer":0,
			"byteLength":14664,
			"byteOffset":43992,
			"target":34962
		},
		{
			"buffer":0,
			"byteLength":17994,
			"byteOffset":58656,
			"target":34963
		}
	],
	"samplers":[
		{
			"magFilter":9729,
			"minFilter":9987
		}
	],
	"buffers":[
		{
			"byteLength":76652,
			"uri":"brass_vase_02.bin"
		}
	]
}
