{
	"asset":{
		"generator":"Khronos glTF Blender I/O v5.2.40",
		"version":"2.0"
	},
	"scene":0,
	"scenes":[
		{
			"name":"Scene",
			"nodes":[
				0
			]
		}
	],
	"nodes":[
		{
			"mesh":0,
			"name":"ceramic_vase_03"
		}
	],
	"materials":[
		{
			"name":"ceramic_vase_03",
			"normalTexture":{
				"index":0
			},
			"pbrMetallicRoughness":{
				"baseColorTexture":{
					"index":1
				},
				"metallicFactor":0,
				"metallicRoughnessTexture":{
					"index":2
				}
			}
		}
	],
	"meshes":[
		{
			"name":"Cube.001",
			"primitives":[
				{
					"attributes":{
						"POSITION":0,
						"NORMAL":1,
						"TEXCOORD_0":2
					},
					"indices":3,
					"material":0
				}
			]
		}
	],
	"textures":[
		{
			"sampler":0,
			"source":0
		},
		{
			"sampler":0,
			"source":1
		},
		{
			"sampler":0,
			"source":2
		}
	],
	"images":[
		{
			"mimeType":"image/jpeg",
			"name":"ceramic_vase_03_nor_gl",
			"uri":"textures/ceramic_vase_03_nor_gl_1k.jpg"
		},
		{
			"mimeType":"image/jpeg",
			"name":"ceramic_vase_03_diff",
			"uri":"textures/ceramic_vase_03_diff_1k.jpg"
		},
		{
			"mimeType":"image/jpeg",
			"name":"ceramic_vase_03_rough",
			"uri":"textures/ceramic_vase_03_rough_1k.jpg"
		}
	],
	"accessors":[
		{
			"bufferView":0,
			"componentType":5126,
			"count":2879,
			"max":[
				0.05613163858652115,
				0.4143996238708496,
				0.05613722652196884
			],
			"min":[
				-0.056137245148420334,
				1.2462473023333587e-05,
				-0.05613550916314125
			],
			"type":"VEC3"
		},
		{
			"bufferView":1,
			"componentType":5126,
			"count":2879,
			"type":"VEC3"
		},
		{
			"bufferView":2,
			"componentType":5126,
			"count":2879,
			"type":"VEC2"
		},
		{
			"bufferView":3,
			"componentType":5123,
			"count":9000,
			"type":"SCALAR"
		}
	],
	"bufferViews":[
		{
			"buffer":0,
			"byteLength":34548,
			"byteOffset":0,
			"target":34962
		},
		{
			"buffer":0,
			"byteLength":34548,
			"byteOffset":34548,
			"target":34962
		},
		{
			"buffer":0,
			"byteLength":23032,
			"byteOffset":69096,
			"target":34962
		},
		{
			"buffer":0,
			"byteLength":18000,
			"byteOffset":92128,
			"target":34963
		}
	],
	"samplers":[
		{
			"magFilter":9729,
			"minFilter":9987
		}
	],
	"buffers":[
		{
			"byteLength":110128,
			"uri":"ceramic_vase_03.bin"
		}
	]
}
