{
	"asset":{
		"generator":"Khronos glTF Blender I/O v5.2.40",
		"version":"2.0"
	},
	"scene":0,
	"scenes":[
		{
			"name":"Scene",
			"nodes":[
				0
			]
		}
	],
	"nodes":[
		{
			"mesh":0,
			"name":"ceramic_vase_01"
		}
	],
	"materials":[
		{
			"doubleSided":true,
			"name":"ceramic_vase_01",
			"normalTexture":{
				"index":0
			},
			"pbrMetallicRoughness":{
				"baseColorTexture":{
					"index":1
				},
				"metallicRoughnessTexture":{
					"index":2
				}
			}
		}
	],
	"meshes":[
		{
			"name":"Cylinder.009",
			"primitives":[
				{
					"attributes":{
						"POSITION":0,
						"NORMAL":1,
						"TEXCOORD_0":2
					},
					"indices":3,
					"material":0
				}
			]
		}
	],
	"textures":[
		{
			"sampler":0,
			"source":0
		},
		{
			"sampler":0,
			"source":1
		},
		{
			"sampler":0,
			"source":2
		}
	],
	"images":[
		{
			"mimeType":"image/jpeg",
			"name":"ceramic_vase_01_nor_gl",
			"uri":"textures/ceramic_vase_01_nor_gl_1k.jpg"
		},
		{
			"mimeType":"image/jpeg",
			"name":"ceramic_vase_01_diff",
			"uri":"textures/ceramic_vase_01_diff_1k.jpg"
		},
		{
			"mimeType":"image/jpeg",
			"name":"ceramic_vase_01_metal-ceramic_vase_01_rough",
			"uri":"textures/ceramic_vase_01_arm_1k.jpg"
		}
	],
	"accessors":[
		{
			"bufferView":0,
			"componentType":5126,
			"count":2786,
			"max":[
				0.10195809602737427,
				0.4018484950065613,
				0.1023326888680458
			],
			"min":[
				-0.101957768201828,
				0.0013493072474375367,
				-0.10226545482873917
			],
			"type":"VEC3"
		},
		{
			"bufferView":1,
			"componentType":5126,
			"count":2786,
			"type":"VEC3"
		},
		{
			"bufferView":2,
			"componentType":5126,
			"count":2786,
			"type":"VEC2"
		},
		{
			"bufferView":3,
			"componentType":5123,
			"count":8994,
			"type":"SCALAR"
		}
	],
	"bufferViews":[
		{
			"buffer":0,
			"byteLength":33432,
			"byteOffset":0,
			"target":34962
		},
		{
			"buffer":0,
			"byteLength":33432,
			"byteOffset":33432,
			"target":34962
		},
		{
			"buffer":0,
			"byteLength":22288,
			"byteOffset":66864,
			"target":34962
		},
		{
			"buffer":0,
			"byteLength":17988,
			"byteOffset":89152,
			"target":34963
		}
	],
	"samplers":[
		{
			"magFilter":9729,
			"minFilter":9987
		}
	],
	"buffers":[
		{
			"byteLength":107140,
			"uri":"ceramic_vase_01.bin"
		}
	]
}
