{
	"asset":{
		"generator":"Khronos glTF Blender I/O v5.2.40",
		"version":"2.0"
	},
	"scene":0,
	"scenes":[
		{
			"name":"Scene",
			"nodes":[
				0
			]
		}
	],
	"nodes":[
		{
			"mesh":0,
			"name":"modern_arm_chair_01"
		}
	],
	"materials":[
		{
			"doubleSided":true,
			"name":"modern_arm_chair_01_legs",
			"normalTexture":{
				"index":0
			},
			"pbrMetallicRoughness":{
				"baseColorTexture":{
					"index":1
				},
				"metallicRoughnessTexture":{
					"index":2
				}
			}
		},
		{
			"doubleSided":true,
			"name":"modern_arm_chair_01_pillow",
			"normalTexture":{
				"index":3
			},
			"pbrMetallicRoughness":{
				"baseColorTexture":{
					"index":4
				},
				"metallicRoughnessTexture":{
					"index":5
				}
			}
		}
	],
	"meshes":[
		{
			"name":"Cube.007",
			"primitives":[
				{
					"attributes":{
						"POSITION":0,
						"NORMAL":1,
						"TEXCOORD_0":2
					},
					"indices":3,
					"material":0
				},
				{
					"attributes":{
						"POSITION":4,
						"NORMAL":5,
						"TEXCOORD_0":6
					},
					"indices":7,
					"material":1
				}
			]
		}
	],
	"textures":[
		{
			"sampler":0,
			"source":0
		},
		{
			"sampler":0,
			"source":1
		},
		{
			"sampler":0,
			"source":2
		},
		{
			"sampler":0,
			"source":3
		},
		{
			"sampler":0,
			"source":4
		},
		{
			"sampler":0,
			"source":5
		}
	],
	"images":[
		{
			"mimeType":"image/jpeg",
			"name":"modern_arm_chair_01_legs_nor_gl",
			"uri":"textures/modern_arm_chair_01_legs_nor_gl_1k.jpg"
		},
		{
			"mimeType":"image/jpeg",
			"name":"modern_arm_chair_01_legs_diff",
			"uri":"textures/modern_arm_chair_01_legs_diff_1k.jpg"
		},
		{
			"mimeType":"image/jpeg",
			"name":"modern_arm_chair_01_legs_metal-modern_arm_chair_01_legs_rough",
			"uri":"textures/modern_arm_chair_01_legs_arm_1k.jpg"
		},
		{
			"mimeType":"image/jpeg",
			"name":"modern_arm_chair_01_pillow_nor_gl",
			"uri":"textures/modern_arm_chair_01_pillow_nor_gl_1k.jpg"
		},
		{
			"mimeType":"image/jpeg",
			"name":"modern_arm_chair_01_pillow_diff",
			"uri":"textures/modern_arm_chair_01_pillow_diff_1k.jpg"
		},
		{
			"mimeType":"image/jpeg",
			"name":"modern_arm_chair_01_pillow_metal-modern_arm_chair_01_pillow_rough",
			"uri":"textures/modern_arm_chair_01_pillow_arm_1k.jpg"
		}
	],
	"accessors":[
		{
			"bufferView":0,
			"componentType":5126,
			"count":1364,
			"max":[
				0.41355210542678833,
				0.8698092699050903,
				0.4114014208316803
			],
			"min":[
				-0.4068051278591156,
				0.0003603833611123264,
				-0.5607094168663025
			],
			"type":"VEC3"
		},
		{
			"bufferView":1,
			"componentType":5126,
			"count":1364,
			"type":"VEC3"
		},
		{
			"bufferView":2,
			"componentType":5126,
			"count":1364,
			"type":"VEC2"
		},
		{
			"bufferView":3,
			"componentType":5123,
			"count":3786,
			"type":"SCALAR"
		},
		{
			"bufferView":4,
			"componentType":5126,
			"count":1144,
			"max":[
				0.3584896922111511,
				1.0232336521148682,
				0.3841382563114166
			],
			"min":[
				-0.3548814058303833,
				0.3475330173969269,
				-0.5759103298187256
			],
			"type":"VEC3"
		},
		{
			"bufferView":5,
			"componentType":5126,
			"count":1144,
			"type":"VEC3"
		},
		{
			"bufferView":6,
			"componentType":5126,
			"count":1144,
			"type":"VEC2"
		},
		{
			"bufferView":7,
			"componentType":5123,
			"count":5214,
			"type":"SCALAR"
		}
	],
	"bufferViews":[
		{
			"buffer":0,
			"byteLength":16368,
			"byteOffset":0,
			"target":34962
		},
		{
			"buffer":0,
			"byteLength":16368,
			"byteOffset":16368,
			"target":34962
		},
		{
			"buffer":0,
			"byteLength":10912,
			"byteOffset":32736,
			"target":34962
		},
		{
			"buffer":0,
			"byteLength":7572,
			"byteOffset":43648,
			"target":34963
		},
		{
			"buffer":0,
			"byteLength":13728,
			"byteOffset":51220,
			"target":34962
		},
		{
			"buffer":0,
			"byteLength":13728,
			"byteOffset":64948,
			"target":34962
		},
		{
			"buffer":0,
			"byteLength":9152,
			"byteOffset":78676,
			"target":34962
		},
		{
			"buffer":0,
			"byteLength":10428,
			"byteOffset":87828,
			"target":34963
		}
	],
	"samplers":[
		{
			"magFilter":9729,
			"minFilter":9987
		}
	],
	"buffers":[
		{
			"byteLength":98256,
			"uri":"modern_arm_chair_01.bin"
		}
	]
}
