{
	"asset":{
		"generator":"Khronos glTF Blender I/O v5.2.40",
		"version":"2.0"
	},
	"extensionsUsed":[
		"KHR_materials_specular",
		"KHR_materials_ior"
	],
	"scene":0,
	"scenes":[
		{
			"name":"Scene",
			"nodes":[
				0
			]
		}
	],
	"nodes":[
		{
			"mesh":0,
			"name":"calathea_orbifolia_01_a"
		}
	],
	"materials":[
		{
			"alphaMode":"MASK",
			"doubleSided":true,
			"extensions":{
				"KHR_materials_specular":{
					"specularColorFactor":[
						1.1200000047683716,
						1.1200000047683716,
						1.1200000047683716
					]
				},
				"KHR_materials_ior":{
					"ior":1.4500000476837158
				}
			},
			"name":"calathea_orbifolia_01",
			"normalTexture":{
				"index":0
			},
			"pbrMetallicRoughness":{
				"baseColorTexture":{
					"index":1
				},
				"metallicFactor":0,
				"metallicRoughnessTexture":{
					"index":2
				}
			}
		}
	],
	"meshes":[
		{
			"name":"Plane.014",
			"primitives":[
				{
					"attributes":{
						"POSITION":0,
						"NORMAL":1,
						"TEXCOORD_0":2
					},
					"indices":3,
					"material":0
				}
			]
		}
	],
	"textures":[
		{
			"sampler":0,
			"source":0
		},
		{
			"sampler":0,
			"source":1
		},
		{
			"sampler":0,
			"source":2
		}
	],
	"images":[
		{
			"mimeType":"image/jpeg",
			"name":"calathea_orbifolia_01_nor_gl",
			"uri":"textures/calathea_orbifolia_01_nor_gl_1k.jpg"
		},
		{
			"mimeType":"image/png",
			"name":"calathea_orbifolia_01_diff",
			"uri":"textures/calathea_orbifolia_01_diff_1k.jpg"
		},
		{
			"mimeType":"image/jpeg",
			"name":"calathea_orbifolia_01_rough",
			"uri":"textures/calathea_orbifolia_01_arm_1k.jpg"
		}
	],
	"accessors":[
		{
			"bufferView":0,
			"componentType":5126,
			"count":1785,
			"max":[
				0.30688172578811646,
				0.41586822271347046,
				0.21012963354587555
			],
			"min":[
				-0.2937181890010834,
				-0.008522788994014263,
				-0.315498024225235
			],
			"type":"VEC3"
		},
		{
			"bufferView":1,
			"componentType":5126,
			"count":1785,
			"type":"VEC3"
		},
		{
			"bufferView":2,
			"componentType":5126,
			"count":1785,
			"type":"VEC2"
		},
		{
			"bufferView":3,
			"componentType":5123,
			"count":8439,
			"type":"SCALAR"
		}
	],
	"bufferViews":[
		{
			"buffer":0,
			"byteLength":21420,
			"byteOffset":0,
			"target":34962
		},
		{
			"buffer":0,
			"byteLength":21420,
			"byteOffset":21420,
			"target":34962
		},
		{
			"buffer":0,
			"byteLength":14280,
			"byteOffset":42840,
			"target":34962
		},
		{
			"buffer":0,
			"byteLength":16878,
			"byteOffset":57120,
			"target":34963
		}
	],
	"samplers":[
		{
			"magFilter":9729,
			"minFilter":9987
		}
	],
	"buffers":[
		{
			"byteLength":74000,
			"uri":"calathea_orbifolia_01.bin"
		}
	]
}
