{
	"asset":{
		"generator":"Khronos glTF Blender I/O v5.2.40",
		"version":"2.0"
	},
	"scene":0,
	"scenes":[
		{
			"name":"Scene",
			"nodes":[
				0,
				1,
				2,
				3,
				4
			]
		}
	],
	"nodes":[
		{
			"mesh":0,
			"name":"modern_wooden_cabinet_body"
		},
		{
			"mesh":1,
			"name":"modern_wooden_cabinet_door_l",
			"translation":[
				-1.189986228942871,
				0.1639975905418396,
				0.22995403409004211
			]
		},
		{
			"mesh":2,
			"name":"modern_wooden_cabinet_door_r",
			"rotation":[
				0,
				1,
				0,
				0
			],
			"translation":[
				1.1899865865707397,
				0.1639975905418396,
				0.22995403409004211
			]
		},
		{
			"name":"modern_wooden_cabinet_path_l",
			"translation":[
				-1.1899863481521606,
				0.1639975905418396,
				0.22995403409004211
			]
		},
		{
			"name":"modern_wooden_cabinet_path_r",
			"translation":[
				1.1899865865707397,
				0.1639975905418396,
				0.22995403409004211
			]
		}
	],
	"animations":[
		{
			"channels":[
				{
					"sampler":0,
					"target":{
						"node":0,
						"path":"translation"
					}
				},
				{
					"sampler":1,
					"target":{
						"node":0,
						"path":"rotation"
					}
				},
				{
					"sampler":2,
					"target":{
						"node":0,
						"path":"scale"
					}
				}
			],
			"name":"modern_wooden_cabinet_body",
			"samplers":[
				{
					"input":12,
					"interpolation":"STEP",
					"output":13
				},
				{
					"input":12,
					"interpolation":"STEP",
					"output":14
				},
				{
					"input":12,
					"interpolation":"STEP",
					"output":15
				}
			]
		},
		{
			"channels":[
				{
					"sampler":0,
					"target":{
						"node":3,
						"path":"translation"
					}
				},
				{
					"sampler":1,
					"target":{
						"node":3,
						"path":"rotation"
					}
				},
				{
					"sampler":2,
					"target":{
						"node":3,
						"path":"scale"
					}
				}
			],
			"name":"modern_wooden_cabinet_path_l",
			"samplers":[
				{
					"input":12,
					"interpolation":"STEP",
					"output":16
				},
				{
					"input":12,
					"interpolation":"STEP",
					"output":14
				},
				{
					"input":12,
					"interpolation":"STEP",
					"output":15
				}
			]
		},
		{
			"channels":[
				{
					"sampler":0,
					"target":{
						"node":4,
						"path":"translation"
					}
				},
				{
					"sampler":1,
					"target":{
						"node":4,
						"path":"rotation"
					}
				},
				{
					"sampler":2,
					"target":{
						"node":4,
						"path":"scale"
					}
				}
			],
			"name":"modern_wooden_cabinet_path_r",
			"samplers":[
				{
					"input":12,
					"interpolation":"STEP",
					"output":17
				},
				{
					"input":12,
					"interpolation":"STEP",
					"output":14
				},
				{
					"input":12,
					"interpolation":"STEP",
					"output":15
				}
			]
		}
	],
	"materials":[
		{
			"doubleSided":true,
			"name":"modern_wooden_cabinet",
			"normalTexture":{
				"index":0
			},
			"pbrMetallicRoughness":{
				"baseColorTexture":{
					"index":1
				},
				"metallicFactor":0,
				"metallicRoughnessTexture":{
					"index":2
				}
			}
		}
	],
	"meshes":[
		{
			"name":"modern_wooden_cabinet_body",
			"primitives":[
				{
					"attributes":{
						"POSITION":0,
						"NORMAL":1,
						"TEXCOORD_0":2
					},
					"indices":3,
					"material":0
				}
			]
		},
		{
			"name":"modern_wooden_cabinet_door_l",
			"primitives":[
				{
					"attributes":{
						"POSITION":4,
						"NORMAL":5,
						"TEXCOORD_0":6
					},
					"indices":7,
					"material":0
				}
			]
		},
		{
			"name":"modern_wooden_cabinet_door_r",
			"primitives":[
				{
					"attributes":{
						"POSITION":8,
						"NORMAL":9,
						"TEXCOORD_0":10
					},
					"indices":11,
					"material":0
				}
			]
		}
	],
	"textures":[
		{
			"sampler":0,
			"source":0
		},
		{
			"sampler":0,
			"source":1
		},
		{
			"sampler":0,
			"source":2
		}
	],
	"images":[
		{
			"mimeType":"image/jpeg",
			"name":"modern_wooden_cabinet_nor_gl",
			"uri":"textures/modern_wooden_cabinet_nor_gl_1k.jpg"
		},
		{
			"mimeType":"image/jpeg",
			"name":"modern_wooden_cabinet_diff",
			"uri":"textures/modern_wooden_cabinet_diff_1k.jpg"
		},
		{
			"mimeType":"image/jpeg",
			"name":"modern_wooden_cabinet_rough",
			"uri":"textures/modern_wooden_cabinet_arm_1k.jpg"
		}
	],
	"accessors":[
		{
			"bufferView":0,
			"componentType":5126,
			"count":5227,
			"max":[
				1.220000147819519,
				0.680159330368042,
				0.2500475347042084
			],
			"min":[
				-1.21999990940094,
				1.6823410987854004e-05,
				-0.27033641934394836
			],
			"type":"VEC3"
		},
		{
			"bufferView":1,
			"componentType":5126,
			"count":5227,
			"type":"VEC3"
		},
		{
			"bufferView":2,
			"componentType":5126,
			"count":5227,
			"type":"VEC2"
		},
		{
			"bufferView":3,
			"componentType":5123,
			"count":9000,
			"type":"SCALAR"
		},
		{
			"bufferView":4,
			"componentType":5126,
			"count":6451,
			"max":[
				1.1797165870666504,
				0.4763185381889343,
				0.010949820280075073
			],
			"min":[
				-0.010000068694353104,
				-2.2930717324953775e-09,
				-0.34221288561820984
			],
			"type":"VEC3"
		},
		{
			"bufferView":5,
			"componentType":5126,
			"count":6451,
			"type":"VEC3"
		},
		{
			"bufferView":6,
			"componentType":5126,
			"count":6451,
			"type":"VEC2"
		},
		{
			"bufferView":7,
			"componentType":5123,
			"count":9000,
			"type":"SCALAR"
		},
		{
			"bufferView":8,
			"componentType":5126,
			"count":6440,
			"max":[
				1.179332971572876,
				0.4763185381889343,
				0.3422127664089203
			],
			"min":[
				-0.01000018510967493,
				-2.2930715104507726e-09,
				-0.010949826799333096
			],
			"type":"VEC3"
		},
		{
			"bufferView":9,
			"componentType":5126,
			"count":6440,
			"type":"VEC3"
		},
		{
			"bufferView":10,
			"componentType":5126,
			"count":6440,
			"type":"VEC2"
		},
		{
			"bufferView":11,
			"componentType":5123,
			"count":9000,
			"type":"SCALAR"
		},
		{
			"bufferView":12,
			"componentType":5126,
			"count":2,
			"max":[
				3.75
			],
			"min":[
				0.041666666666666664
			],
			"type":"SCALAR"
		},
		{
			"bufferView":13,
			"componentType":5126,
			"count":2,
			"type":"VEC3"
		},
		{
			"bufferView":14,
			"componentType":5126,
			"count":2,
			"type":"VEC4"
		},
		{
			"bufferView":15,
			"componentType":5126,
			"count":2,
			"type":"VEC3"
		},
		{
			"bufferView":16,
			"componentType":5126,
			"count":2,
			"type":"VEC3"
		},
		{
			"bufferView":17,
			"componentType":5126,
			"count":2,
			"type":"VEC3"
		}
	],
	"bufferViews":[
		{
			"buffer":0,
			"byteLength":62724,
			"byteOffset":0,
			"target":34962
		},
		{
			"buffer":0,
			"byteLength":62724,
			"byteOffset":62724,
			"target":34962
		},
		{
			"buffer":0,
			"byteLength":41816,
			"byteOffset":125448,
			"target":34962
		},
		{
			"buffer":0,
			"byteLength":18000,
			"byteOffset":167264,
			"target":34963
		},
		{
			"buffer":0,
			"byteLength":77412,
			"byteOffset":185264,
			"target":34962
		},
		{
			"buffer":0,
			"byteLength":77412,
			"byteOffset":262676,
			"target":34962
		},
		{
			"buffer":0,
			"byteLength":51608,
			"byteOffset":340088,
			"target":34962
		},
		{
			"buffer":0,
			"byteLength":18000,
			"byteOffset":391696,
			"target":34963
		},
		{
			"buffer":0,
			"byteLength":77280,
			"byteOffset":409696,
			"target":34962
		},
		{
			"buffer":0,
			"byteLength":77280,
			"byteOffset":486976,
			"target":34962
		},
		{
			"buffer":0,
			"byteLength":51520,
			"byteOffset":564256,
			"target":34962
		},
		{
			"buffer":0,
			"byteLength":18000,
			"byteOffset":615776,
			"target":34963
		},
		{
			"buffer":0,
			"byteLength":8,
			"byteOffset":633776
		},
		{
			"buffer":0,
			"byteLength":24,
			"byteOffset":633784
		},
		{
			"buffer":0,
			"byteLength":32,
			"byteOffset":633808
		},
		{
			"buffer":0,
			"byteLength":24,
			"byteOffset":633840
		},
		{
			"buffer":0,
			"byteLength":24,
			"byteOffset":633864
		},
		{
			"buffer":0,
			"byteLength":24,
			"byteOffset":633888
		}
	],
	"samplers":[
		{
			"magFilter":9729,
			"minFilter":9987
		}
	],
	"buffers":[
		{
			"byteLength":633912,
			"uri":"modern_wooden_cabinet.bin"
		}
	]
}
