{
	"asset":{
		"generator":"Khronos glTF Blender I/O v5.2.40",
		"version":"2.0"
	},
	"scene":0,
	"scenes":[
		{
			"name":"Scene",
			"nodes":[
				0,
				1
			]
		}
	],
	"nodes":[
		{
			"mesh":0,
			"name":"round_wooden_table_01"
		},
		{
			"mesh":1,
			"name":"round_wooden_table_01_bolts"
		}
	],
	"materials":[
		{
			"doubleSided":true,
			"name":"round_wooden_table_01",
			"normalTexture":{
				"index":0
			},
			"pbrMetallicRoughness":{
				"baseColorTexture":{
					"index":1
				},
				"metallicRoughnessTexture":{
					"index":2
				}
			}
		}
	],
	"meshes":[
		{
			"name":"Cylinder",
			"primitives":[
				{
					"attributes":{
						"POSITION":0,
						"NORMAL":1,
						"TEXCOORD_0":2
					},
					"indices":3,
					"material":0
				}
			]
		},
		{
			"name":"Cylinder.007",
			"primitives":[
				{
					"attributes":{
						"POSITION":4,
						"NORMAL":5,
						"TEXCOORD_0":6
					},
					"indices":7,
					"material":0
				}
			]
		}
	],
	"textures":[
		{
			"sampler":0,
			"source":0
		},
		{
			"sampler":0,
			"source":1
		},
		{
			"sampler":0,
			"source":2
		}
	],
	"images":[
		{
			"mimeType":"image/jpeg",
			"name":"round_wooden_table_01_nor_gl",
			"uri":"textures/round_wooden_table_01_nor_gl_1k.jpg"
		},
		{
			"mimeType":"image/jpeg",
			"name":"round_wooden_table_01_diff",
			"uri":"textures/round_wooden_table_01_diff_1k.jpg"
		},
		{
			"mimeType":"image/jpeg",
			"name":"round_wooden_table_01_metal-round_wooden_table_01_rough",
			"uri":"textures/round_wooden_table_01_arm_1k.jpg"
		}
	],
	"accessors":[
		{
			"bufferView":0,
			"componentType":5126,
			"count":2450,
			"max":[
				0.6994006633758545,
				1.0037016868591309,
				0.6994006037712097
			],
			"min":[
				-0.6994006037712097,
				-0.0008658955921418965,
				-0.699522852897644
			],
			"type":"VEC3"
		},
		{
			"bufferView":1,
			"componentType":5126,
			"count":2450,
			"type":"VEC3"
		},
		{
			"bufferView":2,
			"componentType":5126,
			"count":2450,
			"type":"VEC2"
		},
		{
			"bufferView":3,
			"componentType":5123,
			"count":9000,
			"type":"SCALAR"
		},
		{
			"bufferView":4,
			"componentType":5126,
			"count":893,
			"max":[
				0.1680731177330017,
				0.9358263611793518,
				0.13143043220043182
			],
			"min":[
				-0.13578639924526215,
				0.9201406836509705,
				-0.1460239589214325
			],
			"type":"VEC3"
		},
		{
			"bufferView":5,
			"componentType":5126,
			"count":893,
			"type":"VEC3"
		},
		{
			"bufferView":6,
			"componentType":5126,
			"count":893,
			"type":"VEC2"
		},
		{
			"bufferView":7,
			"componentType":5123,
			"count":2136,
			"type":"SCALAR"
		}
	],
	"bufferViews":[
		{
			"buffer":0,
			"byteLength":29400,
			"byteOffset":0,
			"target":34962
		},
		{
			"buffer":0,
			"byteLength":29400,
			"byteOffset":29400,
			"target":34962
		},
		{
			"buffer":0,
			"byteLength":19600,
			"byteOffset":58800,
			"target":34962
		},
		{
			"buffer":0,
			"byteLength":18000,
			"byteOffset":78400,
			"target":34963
		},
		{
			"buffer":0,
			"byteLength":10716,
			"byteOffset":96400,
			"target":34962
		},
		{
			"buffer":0,
			"byteLength":10716,
			"byteOffset":107116,
			"target":34962
		},
		{
			"buffer":0,
			"byteLength":7144,
			"byteOffset":117832,
			"target":34962
		},
		{
			"buffer":0,
			"byteLength":4272,
			"byteOffset":124976,
			"target":34963
		}
	],
	"samplers":[
		{
			"magFilter":9729,
			"minFilter":9987
		}
	],
	"buffers":[
		{
			"byteLength":129248,
			"uri":"round_wooden_table_01.bin"
		}
	]
}
