{
	"asset":{
		"generator":"Khronos glTF Blender I/O v5.2.40",
		"version":"2.0"
	},
	"extensionsUsed":[
		"KHR_materials_transmission"
	],
	"scene":0,
	"scenes":[
		{
			"name":"Scene",
			"nodes":[
				0
			]
		}
	],
	"nodes":[
		{
			"mesh":0,
			"name":"wine_bottles_01_bordeaux"
		}
	],
	"materials":[
		{
			"doubleSided":true,
			"extensions":{
				"KHR_materials_transmission":{
					"transmissionFactor":1
				}
			},
			"name":"wine_bottles_01_glass_orange",
			"normalTexture":{
				"index":0
			},
			"pbrMetallicRoughness":{
				"baseColorTexture":{
					"index":1
				},
				"metallicRoughnessTexture":{
					"index":2
				}
			}
		},
		{
			"alphaMode":"MASK",
			"doubleSided":true,
			"name":"wine_bottles_01_seal_cork",
			"normalTexture":{
				"index":3
			},
			"pbrMetallicRoughness":{
				"baseColorTexture":{
					"index":4
				},
				"metallicRoughnessTexture":{
					"index":5
				}
			}
		},
		{
			"doubleSided":true,
			"extensions":{
				"KHR_materials_transmission":{
					"transmissionFactor":1
				}
			},
			"name":"wine_bottles_01_wine_red",
			"pbrMetallicRoughness":{
				"baseColorFactor":[
					0.5224650502204895,
					0.04925941303372383,
					0.024301469326019287,
					1
				],
				"metallicFactor":0,
				"roughnessFactor":0.12820515036582947
			}
		},
		{
			"alphaMode":"MASK",
			"doubleSided":true,
			"name":"wine_bottles_01_ftero_vinea_02",
			"normalTexture":{
				"index":6,
				"scale":0.4000000059604645
			},
			"pbrMetallicRoughness":{
				"baseColorTexture":{
					"index":7
				},
				"metallicRoughnessTexture":{
					"index":8
				}
			}
		}
	],
	"meshes":[
		{
			"name":"Circle",
			"primitives":[
				{
					"attributes":{
						"POSITION":0,
						"NORMAL":1,
						"TEXCOORD_0":2
					},
					"indices":3,
					"material":0
				},
				{
					"attributes":{
						"POSITION":4,
						"NORMAL":5,
						"TEXCOORD_0":6
					},
					"indices":7,
					"material":1
				},
				{
					"attributes":{
						"POSITION":8,
						"NORMAL":9,
						"TEXCOORD_0":10
					},
					"indices":11,
					"material":2
				},
				{
					"attributes":{
						"POSITION":12,
						"NORMAL":13,
						"TEXCOORD_0":14
					},
					"indices":15,
					"material":3
				}
			]
		}
	],
	"textures":[
		{
			"sampler":0,
			"source":0
		},
		{
			"sampler":0,
			"source":1
		},
		{
			"sampler":0,
			"source":2
		},
		{
			"sampler":0,
			"source":0
		},
		{
			"sampler":0,
			"source":3
		},
		{
			"sampler":0,
			"source":2
		},
		{
			"sampler":0,
			"source":4
		},
		{
			"sampler":0,
			"source":5
		},
		{
			"sampler":0,
			"source":6
		}
	],
	"images":[
		{
			"mimeType":"image/jpeg",
			"name":"wine_bottles_01_nor_gl",
			"uri":"textures/wine_bottles_01_nor_gl_1k.jpg"
		},
		{
			"mimeType":"image/jpeg",
			"name":"wine_bottles_01_diff",
			"uri":"textures/wine_bottles_01_diff_1k.jpg"
		},
		{
			"mimeType":"image/jpeg",
			"name":"wine_bottles_01_metal-wine_bottles_01_rough",
			"uri":"textures/wine_bottles_01_arm_1k.jpg"
		},
		{
			"mimeType":"image/png",
			"name":"wine_bottles_01_diff",
			"uri":"textures/wine_bottles_01_diff_1k.jpg"
		},
		{
			"mimeType":"image/jpeg",
			"name":"wine_bottles_01_paper_nor_gl",
			"uri":"textures/wine_bottles_01_paper_nor_gl_1k.jpg"
		},
		{
			"mimeType":"image/png",
			"name":"wine_bottles_01_label_ftero_vinea_01_diff",
			"uri":"textures/wine_bottles_01_label_ftero_vinea_01_diff_1k.jpg"
		},
		{
			"mimeType":"image/jpeg",
			"name":"wine_bottles_01_label_ftero_vinea_01_rough",
			"uri":"textures/wine_bottles_01_label_ftero_vinea_01_arm_1k.jpg"
		}
	],
	"accessors":[
		{
			"bufferView":0,
			"componentType":5126,
			"count":1028,
			"max":[
				0.037224456667900085,
				0.29815757274627686,
				0.03722135350108147
			],
			"min":[
				-0.03722136467695236,
				0.00014427851419895887,
				-0.03721952065825462
			],
			"type":"VEC3"
		},
		{
			"bufferView":1,
			"componentType":5126,
			"count":1028,
			"type":"VEC3"
		},
		{
			"bufferView":2,
			"componentType":5126,
			"count":1028,
			"type":"VEC2"
		},
		{
			"bufferView":3,
			"componentType":5123,
			"count":5223,
			"type":"SCALAR"
		},
		{
			"bufferView":4,
			"componentType":5126,
			"count":374,
			"max":[
				0.013756148517131805,
				0.29819703102111816,
				0.01374952495098114
			],
			"min":[
				-0.013749527744948864,
				0.24188721179962158,
				-0.013749509118497372
			],
			"type":"VEC3"
		},
		{
			"bufferView":5,
			"componentType":5126,
			"count":374,
			"type":"VEC3"
		},
		{
			"bufferView":6,
			"componentType":5126,
			"count":374,
			"type":"VEC2"
		},
		{
			"bufferView":7,
			"componentType":5123,
			"count":1647,
			"type":"SCALAR"
		},
		{
			"bufferView":8,
			"componentType":5126,
			"count":400,
			"max":[
				0.03570036217570305,
				0.26689499616622925,
				0.03567866235971451
			],
			"min":[
				-0.0356786772608757,
				0.003449723357334733,
				-0.03567866235971451
			],
			"type":"VEC3"
		},
		{
			"bufferView":9,
			"componentType":5126,
			"count":400,
			"type":"VEC3"
		},
		{
			"bufferView":10,
			"componentType":5126,
			"count":400,
			"type":"VEC2"
		},
		{
			"bufferView":11,
			"componentType":5123,
			"count":2034,
			"type":"SCALAR"
		},
		{
			"bufferView":12,
			"componentType":5126,
			"count":36,
			"max":[
				0.0318337120115757,
				0.14261208474636078,
				0.03675613924860954
			],
			"min":[
				-0.03183373063802719,
				0.0369194895029068,
				-0.036756034940481186
			],
			"type":"VEC3"
		},
		{
			"bufferView":13,
			"componentType":5126,
			"count":36,
			"type":"VEC3"
		},
		{
			"bufferView":14,
			"componentType":5126,
			"count":36,
			"type":"VEC2"
		},
		{
			"bufferView":15,
			"componentType":5123,
			"count":96,
			"type":"SCALAR"
		}
	],
	"bufferViews":[
		{
			"buffer":0,
			"byteLength":12336,
			"byteOffset":0,
			"target":34962
		},
		{
			"buffer":0,
			"byteLength":12336,
			"byteOffset":12336,
			"target":34962
		},
		{
			"buffer":0,
			"byteLength":8224,
			"byteOffset":24672,
			"target":34962
		},
		{
			"buffer":0,
			"byteLength":10446,
			"byteOffset":32896,
			"target":34963
		},
		{
			"buffer":0,
			"byteLength":4488,
			"byteOffset":43344,
			"target":34962
		},
		{
			"buffer":0,
			"byteLength":4488,
			"byteOffset":47832,
			"target":34962
		},
		{
			"buffer":0,
			"byteLength":2992,
			"byteOffset":52320,
			"target":34962
		},
		{
			"buffer":0,
			"byteLength":3294,
			"byteOffset":55312,
			"target":34963
		},
		{
			"buffer":0,
			"byteLength":4800,
			"byteOffset":58608,
			"target":34962
		},
		{
			"buffer":0,
			"byteLength":4800,
			"byteOffset":63408,
			"target":34962
		},
		{
			"buffer":0,
			"byteLength":3200,
			"byteOffset":68208,
			"target":34962
		},
		{
			"buffer":0,
			"byteLength":4068,
			"byteOffset":71408,
			"target":34963
		},
		{
			"buffer":0,
			"byteLength":432,
			"byteOffset":75476,
			"target":34962
		},
		{
			"buffer":0,
			"byteLength":432,
			"byteOffset":75908,
			"target":34962
		},
		{
			"buffer":0,
			"byteLength":288,
			"byteOffset":76340,
			"target":34962
		},
		{
			"buffer":0,
			"byteLength":192,
			"byteOffset":76628,
			"target":34963
		}
	],
	"samplers":[
		{
			"magFilter":9729,
			"minFilter":9987
		}
	],
	"buffers":[
		{
			"byteLength":76820,
			"uri":"wine_bottles_01.bin"
		}
	]
}
