{
	"asset":{
		"generator":"Khronos glTF Blender I/O v5.2.40",
		"version":"2.0"
	},
	"scene":0,
	"scenes":[
		{
			"name":"Scene",
			"nodes":[
				0
			]
		}
	],
	"nodes":[
		{
			"mesh":0,
			"name":"brass_vase_01"
		}
	],
	"materials":[
		{
			"doubleSided":true,
			"name":"brass_vase_001",
			"normalTexture":{
				"index":0
			},
			"pbrMetallicRoughness":{
				"baseColorTexture":{
					"index":1
				},
				"metallicRoughnessTexture":{
					"index":2
				}
			}
		}
	],
	"meshes":[
		{
			"name":"Circle.001",
			"primitives":[
				{
					"attributes":{
						"POSITION":0,
						"NORMAL":1,
						"TEXCOORD_0":2
					},
					"indices":3,
					"material":0
				}
			]
		}
	],
	"textures":[
		{
			"sampler":0,
			"source":0
		},
		{
			"sampler":0,
			"source":1
		},
		{
			"sampler":0,
			"source":2
		}
	],
	"images":[
		{
			"mimeType":"image/jpeg",
			"name":"brass_vase_01_nor_gl",
			"uri":"textures/brass_vase_01_nor_gl_1k.jpg"
		},
		{
			"mimeType":"image/jpeg",
			"name":"brass_vase_01_diff",
			"uri":"textures/brass_vase_01_diff_1k.jpg"
		},
		{
			"mimeType":"image/jpeg",
			"name":"brass_vase_01_metal-brass_vase_01_rough",
			"uri":"textures/brass_vase_01_arm_1k.jpg"
		}
	],
	"accessors":[
		{
			"bufferView":0,
			"componentType":5126,
			"count":1936,
			"max":[
				0.1140226498246193,
				0.694287121295929,
				0.11402271687984467
			],
			"min":[
				-0.11401880532503128,
				0.0014527724124491215,
				-0.11400850862264633
			],
			"type":"VEC3"
		},
		{
			"bufferView":1,
			"componentType":5126,
			"count":1936,
			"type":"VEC3"
		},
		{
			"bufferView":2,
			"componentType":5126,
			"count":1936,
			"type":"VEC2"
		},
		{
			"bufferView":3,
			"componentType":5123,
			"count":8997,
			"type":"SCALAR"
		}
	],
	"bufferViews":[
		{
			"buffer":0,
			"byteLength":23232,
			"byteOffset":0,
			"target":34962
		},
		{
			"buffer":0,
			"byteLength":23232,
			"byteOffset":23232,
			"target":34962
		},
		{
			"buffer":0,
			"byteLength":15488,
			"byteOffset":46464,
			"target":34962
		},
		{
			"buffer":0,
			"byteLength":17994,
			"byteOffset":61952,
			"target":34963
		}
	],
	"samplers":[
		{
			"magFilter":9729,
			"minFilter":9987
		}
	],
	"buffers":[
		{
			"byteLength":79948,
			"uri":"brass_vase_01.bin"
		}
	]
}
