{
	"asset":{
		"generator":"Khronos glTF Blender I/O v5.2.40",
		"version":"2.0"
	},
	"scene":0,
	"scenes":[
		{
			"name":"Scene",
			"nodes":[
				0
			]
		}
	],
	"nodes":[
		{
			"mesh":0,
			"name":"GreenChair_01"
		}
	],
	"materials":[
		{
			"doubleSided":true,
			"name":"GreenChair_01",
			"normalTexture":{
				"index":0
			},
			"pbrMetallicRoughness":{
				"baseColorTexture":{
					"index":1
				},
				"metallicRoughnessTexture":{
					"index":2
				}
			}
		}
	],
	"meshes":[
		{
			"name":"classic-chair.003",
			"primitives":[
				{
					"attributes":{
						"POSITION":0,
						"NORMAL":1,
						"TEXCOORD_0":2
					},
					"indices":3,
					"material":0
				}
			]
		}
	],
	"textures":[
		{
			"sampler":0,
			"source":0
		},
		{
			"sampler":0,
			"source":1
		},
		{
			"sampler":0,
			"source":2
		}
	],
	"images":[
		{
			"mimeType":"image/jpeg",
			"name":"GreenChair_01_nor_gl",
			"uri":"textures/GreenChair_01_nor_gl_1k.jpg"
		},
		{
			"mimeType":"image/jpeg",
			"name":"GreenChair_01_diff",
			"uri":"textures/GreenChair_01_diff_1k.jpg"
		},
		{
			"mimeType":"image/jpeg",
			"name":"GreenChair_01_metallic-GreenChair_01_roughness",
			"uri":"textures/GreenChair_01_arm_1k.jpg"
		}
	],
	"accessors":[
		{
			"bufferView":0,
			"componentType":5126,
			"count":2213,
			"max":[
				0.33577653765678406,
				1.0578436851501465,
				0.2863401770591736
			],
			"min":[
				-0.3366474509239197,
				-0.0005302081117406487,
				-0.37804722785949707
			],
			"type":"VEC3"
		},
		{
			"bufferView":1,
			"componentType":5126,
			"count":2213,
			"type":"VEC3"
		},
		{
			"bufferView":2,
			"componentType":5126,
			"count":2213,
			"type":"VEC2"
		},
		{
			"bufferView":3,
			"componentType":5123,
			"count":8997,
			"type":"SCALAR"
		}
	],
	"bufferViews":[
		{
			"buffer":0,
			"byteLength":26556,
			"byteOffset":0,
			"target":34962
		},
		{
			"buffer":0,
			"byteLength":26556,
			"byteOffset":26556,
			"target":34962
		},
		{
			"buffer":0,
			"byteLength":17704,
			"byteOffset":53112,
			"target":34962
		},
		{
			"buffer":0,
			"byteLength":17994,
			"byteOffset":70816,
			"target":34963
		}
	],
	"samplers":[
		{
			"magFilter":9729,
			"minFilter":9987
		}
	],
	"buffers":[
		{
			"byteLength":88812,
			"uri":"GreenChair_01.bin"
		}
	]
}
