{
	"asset":{
		"generator":"Khronos glTF Blender I/O v5.2.40",
		"version":"2.0"
	},
	"scene":0,
	"scenes":[
		{
			"name":"Scene",
			"nodes":[
				0,
				1,
				2,
				3,
				4,
				5,
				6,
				7,
				8,
				9,
				10,
				11,
				12,
				13,
				14,
				15,
				16,
				17,
				18,
				19
			]
		}
	],
	"nodes":[
		{
			"mesh":0,
			"name":"book_encyclopedia_set_01_book01",
			"translation":[
				0,
				0,
				0.10099244862794876
			]
		},
		{
			"mesh":1,
			"name":"book_encyclopedia_set_01_book02",
			"translation":[
				0.03461821377277374,
				0,
				0.10099244862794876
			]
		},
		{
			"mesh":2,
			"name":"book_encyclopedia_set_01_book03",
			"translation":[
				0.06154705584049225,
				0,
				0.10099244117736816
			]
		},
		{
			"mesh":3,
			"name":"book_encyclopedia_set_01_book04",
			"translation":[
				0.08769135177135468,
				0,
				0.10099244862794876
			]
		},
		{
			"mesh":4,
			"name":"book_encyclopedia_set_01_book05",
			"translation":[
				0.11028188467025757,
				0,
				0.10099244862794876
			]
		},
		{
			"mesh":5,
			"name":"book_encyclopedia_set_01_book06",
			"translation":[
				0.13115936517715454,
				0,
				0.10099244862794876
			]
		},
		{
			"mesh":6,
			"name":"book_encyclopedia_set_01_book07",
			"translation":[
				0.15419802069664001,
				0,
				0.10099244862794876
			]
		},
		{
			"mesh":7,
			"name":"book_encyclopedia_set_01_book08",
			"translation":[
				0.17794930934906006,
				0,
				0.10099244862794876
			]
		},
		{
			"mesh":8,
			"name":"book_encyclopedia_set_01_book09",
			"translation":[
				0.2007046788930893,
				0,
				0.10099244862794876
			]
		},
		{
			"mesh":9,
			"name":"book_encyclopedia_set_01_book10",
			"translation":[
				0.2235286831855774,
				0,
				0.10099244117736816
			]
		},
		{
			"mesh":10,
			"name":"book_encyclopedia_set_01_book11",
			"translation":[
				0.2447497546672821,
				0,
				0.10099244117736816
			]
		},
		{
			"mesh":11,
			"name":"book_encyclopedia_set_01_book12",
			"translation":[
				0.2677144706249237,
				0,
				0.10099244117736816
			]
		},
		{
			"mesh":12,
			"name":"book_encyclopedia_set_01_book13",
			"translation":[
				0.3001822829246521,
				0,
				0.10099244117736816
			]
		},
		{
			"mesh":13,
			"name":"book_encyclopedia_set_01_book14",
			"translation":[
				0.3387332856655121,
				0,
				0.10099243372678757
			]
		},
		{
			"mesh":14,
			"name":"book_encyclopedia_set_01_book15",
			"translation":[
				0.3759635388851166,
				0,
				0.10099244117736816
			]
		},
		{
			"mesh":15,
			"name":"book_encyclopedia_set_01_book16",
			"translation":[
				0.40813517570495605,
				0,
				0.10099244117736816
			]
		},
		{
			"mesh":16,
			"name":"book_encyclopedia_set_01_book17",
			"translation":[
				0.44120898842811584,
				0,
				0.10099244117736816
			]
		},
		{
			"mesh":17,
			"name":"book_encyclopedia_set_01_book18",
			"translation":[
				0.4741947054862976,
				0,
				0.10099243372678757
			]
		},
		{
			"mesh":18,
			"name":"book_encyclopedia_set_01_book19",
			"translation":[
				0.49631625413894653,
				0,
				0.10099243372678757
			]
		},
		{
			"mesh":19,
			"name":"book_encyclopedia_set_01_book20",
			"translation":[
				0.5200827121734619,
				0,
				0.10099243372678757
			]
		}
	],
	"materials":[
		{
			"doubleSided":true,
			"name":"book_encyclopedia_set_01_cover",
			"normalTexture":{
				"index":0
			},
			"pbrMetallicRoughness":{
				"baseColorTexture":{
					"index":1
				},
				"metallicRoughnessTexture":{
					"index":2
				}
			}
		},
		{
			"doubleSided":true,
			"name":"book_encyclopedia_set_01_paper",
			"normalTexture":{
				"index":3
			},
			"pbrMetallicRoughness":{
				"baseColorTexture":{
					"index":4
				},
				"metallicFactor":0,
				"metallicRoughnessTexture":{
					"index":5
				}
			}
		}
	],
	"meshes":[
		{
			"name":"Cube.004",
			"primitives":[
				{
					"attributes":{
						"POSITION":0,
						"NORMAL":1,
						"TEXCOORD_0":2
					},
					"indices":3,
					"material":0
				},
				{
					"attributes":{
						"POSITION":4,
						"NORMAL":5,
						"TEXCOORD_0":6
					},
					"indices":7,
					"material":1
				}
			]
		},
		{
			"name":"Cube.049",
			"primitives":[
				{
					"attributes":{
						"POSITION":8,
						"NORMAL":9,
						"TEXCOORD_0":10
					},
					"indices":11,
					"material":0
				},
				{
					"attributes":{
						"POSITION":12,
						"NORMAL":13,
						"TEXCOORD_0":14
					},
					"indices":15,
					"material":1
				}
			]
		},
		{
			"name":"Cube.050",
			"primitives":[
				{
					"attributes":{
						"POSITION":16,
						"NORMAL":17,
						"TEXCOORD_0":18
					},
					"indices":19,
					"material":0
				},
				{
					"attributes":{
						"POSITION":20,
						"NORMAL":21,
						"TEXCOORD_0":22
					},
					"indices":23,
					"material":1
				}
			]
		},
		{
			"name":"Cube.051",
			"primitives":[
				{
					"attributes":{
						"POSITION":24,
						"NORMAL":25,
						"TEXCOORD_0":26
					},
					"indices":27,
					"material":0
				},
				{
					"attributes":{
						"POSITION":28,
						"NORMAL":29,
						"TEXCOORD_0":30
					},
					"indices":31,
					"material":1
				}
			]
		},
		{
			"name":"Cube.052",
			"primitives":[
				{
					"attributes":{
						"POSITION":32,
						"NORMAL":33,
						"TEXCOORD_0":34
					},
					"indices":35,
					"material":0
				},
				{
					"attributes":{
						"POSITION":36,
						"NORMAL":37,
						"TEXCOORD_0":38
					},
					"indices":39,
					"material":1
				}
			]
		},
		{
			"name":"Cube.053",
			"primitives":[
				{
					"attributes":{
						"POSITION":40,
						"NORMAL":41,
						"TEXCOORD_0":42
					},
					"indices":43,
					"material":0
				},
				{
					"attributes":{
						"POSITION":44,
						"NORMAL":45,
						"TEXCOORD_0":46
					},
					"indices":47,
					"material":1
				}
			]
		},
		{
			"name":"Cube.054",
			"primitives":[
				{
					"attributes":{
						"POSITION":48,
						"NORMAL":49,
						"TEXCOORD_0":50
					},
					"indices":51,
					"material":0
				},
				{
					"attributes":{
						"POSITION":52,
						"NORMAL":53,
						"TEXCOORD_0":54
					},
					"indices":55,
					"material":1
				}
			]
		},
		{
			"name":"Cube.055",
			"primitives":[
				{
					"attributes":{
						"POSITION":56,
						"NORMAL":57,
						"TEXCOORD_0":58
					},
					"indices":59,
					"material":0
				},
				{
					"attributes":{
						"POSITION":60,
						"NORMAL":61,
						"TEXCOORD_0":62
					},
					"indices":63,
					"material":1
				}
			]
		},
		{
			"name":"Cube.056",
			"primitives":[
				{
					"attributes":{
						"POSITION":64,
						"NORMAL":65,
						"TEXCOORD_0":66
					},
					"indices":67,
					"material":0
				},
				{
					"attributes":{
						"POSITION":68,
						"NORMAL":69,
						"TEXCOORD_0":70
					},
					"indices":71,
					"material":1
				}
			]
		},
		{
			"name":"Cube.057",
			"primitives":[
				{
					"attributes":{
						"POSITION":72,
						"NORMAL":73,
						"TEXCOORD_0":74
					},
					"indices":75,
					"material":0
				},
				{
					"attributes":{
						"POSITION":76,
						"NORMAL":77,
						"TEXCOORD_0":78
					},
					"indices":79,
					"material":1
				}
			]
		},
		{
			"name":"Cube.058",
			"primitives":[
				{
					"attributes":{
						"POSITION":80,
						"NORMAL":81,
						"TEXCOORD_0":82
					},
					"indices":83,
					"material":0
				},
				{
					"attributes":{
						"POSITION":84,
						"NORMAL":85,
						"TEXCOORD_0":86
					},
					"indices":87,
					"material":1
				}
			]
		},
		{
			"name":"Cube.059",
			"primitives":[
				{
					"attributes":{
						"POSITION":88,
						"NORMAL":89,
						"TEXCOORD_0":90
					},
					"indices":91,
					"material":0
				},
				{
					"attributes":{
						"POSITION":92,
						"NORMAL":93,
						"TEXCOORD_0":94
					},
					"indices":95,
					"material":1
				}
			]
		},
		{
			"name":"Cube.060",
			"primitives":[
				{
					"attributes":{
						"POSITION":96,
						"NORMAL":97,
						"TEXCOORD_0":98
					},
					"indices":99,
					"material":0
				},
				{
					"attributes":{
						"POSITION":100,
						"NORMAL":101,
						"TEXCOORD_0":102
					},
					"indices":103,
					"material":1
				}
			]
		},
		{
			"name":"Cube.061",
			"primitives":[
				{
					"attributes":{
						"POSITION":104,
						"NORMAL":105,
						"TEXCOORD_0":106
					},
					"indices":107,
					"material":0
				},
				{
					"attributes":{
						"POSITION":108,
						"NORMAL":109,
						"TEXCOORD_0":110
					},
					"indices":111,
					"material":1
				}
			]
		},
		{
			"name":"Cube.062",
			"primitives":[
				{
					"attributes":{
						"POSITION":112,
						"NORMAL":113,
						"TEXCOORD_0":114
					},
					"indices":115,
					"material":0
				},
				{
					"attributes":{
						"POSITION":116,
						"NORMAL":117,
						"TEXCOORD_0":118
					},
					"indices":119,
					"material":1
				}
			]
		},
		{
			"name":"Cube.063",
			"primitives":[
				{
					"attributes":{
						"POSITION":120,
						"NORMAL":121,
						"TEXCOORD_0":122
					},
					"indices":123,
					"material":0
				},
				{
					"attributes":{
						"POSITION":124,
						"NORMAL":125,
						"TEXCOORD_0":126
					},
					"indices":127,
					"material":1
				}
			]
		},
		{
			"name":"Cube.064",
			"primitives":[
				{
					"attributes":{
						"POSITION":128,
						"NORMAL":129,
						"TEXCOORD_0":130
					},
					"indices":131,
					"material":0
				},
				{
					"attributes":{
						"POSITION":132,
						"NORMAL":133,
						"TEXCOORD_0":134
					},
					"indices":135,
					"material":1
				}
			]
		},
		{
			"name":"Cube.065",
			"primitives":[
				{
					"attributes":{
						"POSITION":136,
						"NORMAL":137,
						"TEXCOORD_0":138
					},
					"indices":139,
					"material":0
				},
				{
					"attributes":{
						"POSITION":140,
						"NORMAL":141,
						"TEXCOORD_0":142
					},
					"indices":143,
					"material":1
				}
			]
		},
		{
			"name":"Cube.066",
			"primitives":[
				{
					"attributes":{
						"POSITION":144,
						"NORMAL":145,
						"TEXCOORD_0":146
					},
					"indices":147,
					"material":0
				},
				{
					"attributes":{
						"POSITION":148,
						"NORMAL":149,
						"TEXCOORD_0":150
					},
					"indices":151,
					"material":1
				}
			]
		},
		{
			"name":"Cube.067",
			"primitives":[
				{
					"attributes":{
						"POSITION":152,
						"NORMAL":153,
						"TEXCOORD_0":154
					},
					"indices":155,
					"material":0
				},
				{
					"attributes":{
						"POSITION":156,
						"NORMAL":157,
						"TEXCOORD_0":158
					},
					"indices":159,
					"material":1
				}
			]
		}
	],
	"textures":[
		{
			"sampler":0,
			"source":0
		},
		{
			"sampler":0,
			"source":1
		},
		{
			"sampler":0,
			"source":2
		},
		{
			"sampler":0,
			"source":3
		},
		{
			"sampler":0,
			"source":4
		},
		{
			"sampler":0,
			"source":5
		}
	],
	"images":[
		{
			"mimeType":"image/jpeg",
			"name":"book_encyclopedia_set_01_cover_nor_gl",
			"uri":"textures/book_encyclopedia_set_01_cover_nor_gl_1k.jpg"
		},
		{
			"mimeType":"image/jpeg",
			"name":"book_encyclopedia_set_01_cover_diff",
			"uri":"textures/book_encyclopedia_set_01_cover_diff_1k.jpg"
		},
		{
			"mimeType":"image/jpeg",
			"name":"book_encyclopedia_set_01_cover_metallic-book_encyclopedia_set_01_cover_roughness",
			"uri":"textures/book_encyclopedia_set_01_cover_arm_1k.jpg"
		},
		{
			"mimeType":"image/jpeg",
			"name":"book_encyclopedia_set_01_paper_nor_gl",
			"uri":"textures/book_encyclopedia_set_01_paper_nor_gl_1k.jpg"
		},
		{
			"mimeType":"image/jpeg",
			"name":"book_encyclopedia_set_01_paper_diff",
			"uri":"textures/book_encyclopedia_set_01_paper_diff_1k.jpg"
		},
		{
			"mimeType":"image/jpeg",
			"name":"book_encyclopedia_set_01_paper_roughness",
			"uri":"textures/book_encyclopedia_set_01_paper_roughness_1k.jpg"
		}
	],
	"accessors":[
		{
			"bufferView":0,
			"componentType":5126,
			"count":128,
			"max":[
				0.01937238499522209,
				0.23741820454597473,
				0.00033994100522249937
			],
			"min":[
				-0.019316475838422775,
				-4.109866580392918e-08,
				-0.16324195265769958
			],
			"type":"VEC3"
		},
		{
			"bufferView":1,
			"componentType":5126,
			"count":128,
			"type":"VEC3"
		},
		{
			"bufferView":2,
			"componentType":5126,
			"count":128,
			"type":"VEC2"
		},
		{
			"bufferView":3,
			"componentType":5123,
			"count":297,
			"type":"SCALAR"
		},
		{
			"bufferView":4,
			"componentType":5126,
			"count":957,
			"max":[
				0.0164224561303854,
				0.2335481494665146,
				-0.0011066439328715205
			],
			"min":[
				-0.016401464119553566,
				0.006047410890460014,
				-0.15942445397377014
			],
			"type":"VEC3"
		},
		{
			"bufferView":5,
			"componentType":5126,
			"count":957,
			"type":"VEC3"
		},
		{
			"bufferView":6,
			"componentType":5126,
			"count":957,
			"type":"VEC2"
		},
		{
			"bufferView":7,
			"componentType":5123,
			"count":1500,
			"type":"SCALAR"
		},
		{
			"bufferView":8,
			"componentType":5126,
			"count":130,
			"max":[
				0.014487112872302532,
				0.23741823434829712,
				0.0002544571179896593
			],
			"min":[
				-0.014269428327679634,
				-8.417155328288572e-08,
				-0.16324195265769958
			],
			"type":"VEC3"
		},
		{
			"bufferView":9,
			"componentType":5126,
			"count":130,
			"type":"VEC3"
		},
		{
			"bufferView":10,
			"componentType":5126,
			"count":130,
			"type":"VEC2"
		},
		{
			"bufferView":11,
			"componentType":5123,
			"count":315,
			"type":"SCALAR"
		},
		{
			"bufferView":12,
			"componentType":5126,
			"count":982,
			"max":[
				0.011466269381344318,
				0.2335488647222519,
				-0.0009197354083880782
			],
			"min":[
				-0.011835918761789799,
				0.006047489587217569,
				-0.15933743119239807
			],
			"type":"VEC3"
		},
		{
			"bufferView":13,
			"componentType":5126,
			"count":982,
			"type":"VEC3"
		},
		{
			"bufferView":14,
			"componentType":5126,
			"count":982,
			"type":"VEC2"
		},
		{
			"bufferView":15,
			"componentType":5123,
			"count":1485,
			"type":"SCALAR"
		},
		{
			"bufferView":16,
			"componentType":5126,
			"count":151,
			"max":[
				0.011407115496695042,
				0.23741817474365234,
				6.183248478919268e-05
			],
			"min":[
				-0.011390011757612228,
				-1.8418065295122688e-08,
				-0.16324195265769958
			],
			"type":"VEC3"
		},
		{
			"bufferView":17,
			"componentType":5126,
			"count":151,
			"type":"VEC3"
		},
		{
			"bufferView":18,
			"componentType":5126,
			"count":151,
			"type":"VEC2"
		},
		{
			"bufferView":19,
			"componentType":5123,
			"count":363,
			"type":"SCALAR"
		},
		{
			"bufferView":20,
			"componentType":5126,
			"count":956,
			"max":[
				0.008504459634423256,
				0.2335488647222519,
				-0.000919705955311656
			],
			"min":[
				-0.0085503114387393,
				0.006047489587217569,
				-0.15933741629123688
			],
			"type":"VEC3"
		},
		{
			"bufferView":21,
			"componentType":5126,
			"count":956,
			"type":"VEC3"
		},
		{
			"bufferView":22,
			"componentType":5126,
			"count":956,
			"type":"VEC2"
		},
		{
			"bufferView":23,
			"componentType":5123,
			"count":1437,
			"type":"SCALAR"
		},
		{
			"bufferView":24,
			"componentType":5126,
			"count":176,
			"max":[
				0.012318330816924572,
				0.23741817474365234,
				0.00036802500835619867
			],
			"min":[
				-0.012303680181503296,
				-4.537633913059835e-08,
				-0.16324196755886078
			],
			"type":"VEC3"
		},
		{
			"bufferView":25,
			"componentType":5126,
			"count":176,
			"type":"VEC3"
		},
		{
			"bufferView":26,
			"componentType":5126,
			"count":176,
			"type":"VEC2"
		},
		{
			"bufferView":27,
			"componentType":5123,
			"count":405,
			"type":"SCALAR"
		},
		{
			"bufferView":28,
			"componentType":5126,
			"count":932,
			"max":[
				0.009585848078131676,
				0.2335486263036728,
				-0.0009197258041240275
			],
			"min":[
				-0.009627748280763626,
				0.006047489587217569,
				-0.15933743119239807
			],
			"type":"VEC3"
		},
		{
			"bufferView":29,
			"componentType":5126,
			"count":932,
			"type":"VEC3"
		},
		{
			"bufferView":30,
			"componentType":5126,
			"count":932,
			"type":"VEC2"
		},
		{
			"bufferView":31,
			"componentType":5123,
			"count":1395,
			"type":"SCALAR"
		},
		{
			"bufferView":32,
			"componentType":5126,
			"count":198,
			"max":[
				0.009569397196173668,
				0.23741847276687622,
				6.175870657898486e-05
			],
			"min":[
				-0.009583080187439919,
				-4.364824057745409e-09,
				-0.16324196755886078
			],
			"type":"VEC3"
		},
		{
			"bufferView":33,
			"componentType":5126,
			"count":198,
			"type":"VEC3"
		},
		{
			"bufferView":34,
			"componentType":5126,
			"count":198,
			"type":"VEC2"
		},
		{
			"bufferView":35,
			"componentType":5123,
			"count":444,
			"type":"SCALAR"
		},
		{
			"bufferView":36,
			"componentType":5126,
			"count":921,
			"max":[
				0.006660358980298042,
				0.2335486263036728,
				-0.0009090033709071577
			],
			"min":[
				-0.0068577490746974945,
				0.006047489587217569,
				-0.15933743119239807
			],
			"type":"VEC3"
		},
		{
			"bufferView":37,
			"componentType":5126,
			"count":921,
			"type":"VEC3"
		},
		{
			"bufferView":38,
			"componentType":5126,
			"count":921,
			"type":"VEC2"
		},
		{
			"bufferView":39,
			"componentType":5123,
			"count":1353,
			"type":"SCALAR"
		},
		{
			"bufferView":40,
			"componentType":5126,
			"count":160,
			"max":[
				0.009170538745820522,
				0.2374187707901001,
				-2.103968472511042e-05
			],
			"min":[
				-0.009224988520145416,
				-6.074454717008848e-08,
				-0.16324196755886078
			],
			"type":"VEC3"
		},
		{
			"bufferView":41,
			"componentType":5126,
			"count":160,
			"type":"VEC3"
		},
		{
			"bufferView":42,
			"componentType":5126,
			"count":160,
			"type":"VEC2"
		},
		{
			"bufferView":43,
			"componentType":5123,
			"count":387,
			"type":"SCALAR"
		},
		{
			"bufferView":44,
			"componentType":5126,
			"count":913,
			"max":[
				0.006294895429164171,
				0.233548104763031,
				-0.0009090033709071577
			],
			"min":[
				-0.0065722838044166565,
				0.006047477480024099,
				-0.15933743119239807
			],
			"type":"VEC3"
		},
		{
			"bufferView":45,
			"componentType":5126,
			"count":913,
			"type":"VEC3"
		},
		{
			"bufferView":46,
			"componentType":5126,
			"count":913,
			"type":"VEC2"
		},
		{
			"bufferView":47,
			"componentType":5123,
			"count":1413,
			"type":"SCALAR"
		},
		{
			"bufferView":48,
			"componentType":5126,
			"count":166,
			"max":[
				0.01201020460575819,
				0.23741817474365234,
				0.0003732075565494597
			],
			"min":[
				-0.012027496472001076,
				-2.8747615843371932e-08,
				-0.16324196755886078
			],
			"type":"VEC3"
		},
		{
			"bufferView":49,
			"componentType":5126,
			"count":166,
			"type":"VEC3"
		},
		{
			"bufferView":50,
			"componentType":5126,
			"count":166,
			"type":"VEC2"
		},
		{
			"bufferView":51,
			"componentType":5123,
			"count":390,
			"type":"SCALAR"
		},
		{
			"bufferView":52,
			"componentType":5126,
			"count":909,
			"max":[
				0.00921117328107357,
				0.2335481494665146,
				-0.0009412526851519942
			],
			"min":[
				-0.00931568443775177,
				0.006047477480024099,
				-0.15933743119239807
			],
			"type":"VEC3"
		},
		{
			"bufferView":53,
			"componentType":5126,
			"count":909,
			"type":"VEC3"
		},
		{
			"bufferView":54,
			"componentType":5126,
			"count":909,
			"type":"VEC2"
		},
		{
			"bufferView":55,
			"componentType":5123,
			"count":1410,
			"type":"SCALAR"
		},
		{
			"bufferView":56,
			"componentType":5126,
			"count":163,
			"max":[
				0.010798434726893902,
				0.23741821944713593,
				0.00037582387449219823
			],
			"min":[
				-0.01081464346498251,
				-3.9800926998623254e-08,
				-0.16324196755886078
			],
			"type":"VEC3"
		},
		{
			"bufferView":57,
			"componentType":5126,
			"count":163,
			"type":"VEC3"
		},
		{
			"bufferView":58,
			"componentType":5126,
			"count":163,
			"type":"VEC2"
		},
		{
			"bufferView":59,
			"componentType":5123,
			"count":393,
			"type":"SCALAR"
		},
		{
			"bufferView":60,
			"componentType":5126,
			"count":907,
			"max":[
				0.008017037063837051,
				0.23354887962341309,
				-0.0009197124163620174
			],
			"min":[
				-0.007959806360304356,
				0.006047477480024099,
				-0.15933743119239807
			],
			"type":"VEC3"
		},
		{
			"bufferView":61,
			"componentType":5126,
			"count":907,
			"type":"VEC3"
		},
		{
			"bufferView":62,
			"componentType":5126,
			"count":907,
			"type":"VEC2"
		},
		{
			"bufferView":63,
			"componentType":5123,
			"count":1407,
			"type":"SCALAR"
		},
		{
			"bufferView":64,
			"componentType":5126,
			"count":160,
			"max":[
				0.010792797431349754,
				0.23741821944713593,
				0.0003785623994190246
			],
			"min":[
				-0.010820280760526657,
				-3.996489894575461e-08,
				-0.16324196755886078
			],
			"type":"VEC3"
		},
		{
			"bufferView":65,
			"componentType":5126,
			"count":160,
			"type":"VEC3"
		},
		{
			"bufferView":66,
			"componentType":5126,
			"count":160,
			"type":"VEC2"
		},
		{
			"bufferView":67,
			"componentType":5123,
			"count":381,
			"type":"SCALAR"
		},
		{
			"bufferView":68,
			"componentType":5126,
			"count":887,
			"max":[
				0.007999296300113201,
				0.2335481494665146,
				-0.0009197122417390347
			],
			"min":[
				-0.00794385839253664,
				0.006047477480024099,
				-0.15933743119239807
			],
			"type":"VEC3"
		},
		{
			"bufferView":69,
			"componentType":5126,
			"count":887,
			"type":"VEC3"
		},
		{
			"bufferView":70,
			"componentType":5126,
			"count":887,
			"type":"VEC2"
		},
		{
			"bufferView":71,
			"componentType":5123,
			"count":1416,
			"type":"SCALAR"
		},
		{
			"bufferView":72,
			"componentType":5126,
			"count":154,
			"max":[
				0.010785626247525215,
				0.23741821944713593,
				-2.2015796275809407e-05
			],
			"min":[
				-0.010820280760526657,
				-4.0017315683371635e-08,
				-0.16324196755886078
			],
			"type":"VEC3"
		},
		{
			"bufferView":73,
			"componentType":5126,
			"count":154,
			"type":"VEC3"
		},
		{
			"bufferView":74,
			"componentType":5126,
			"count":154,
			"type":"VEC2"
		},
		{
			"bufferView":75,
			"componentType":5123,
			"count":378,
			"type":"SCALAR"
		},
		{
			"bufferView":76,
			"componentType":5126,
			"count":918,
			"max":[
				0.007946930825710297,
				0.2335481494665146,
				-0.0009197014151141047
			],
			"min":[
				-0.008167654275894165,
				0.006047477480024099,
				-0.15933741629123688
			],
			"type":"VEC3"
		},
		{
			"bufferView":77,
			"componentType":5126,
			"count":918,
			"type":"VEC3"
		},
		{
			"bufferView":78,
			"componentType":5126,
			"count":918,
			"type":"VEC2"
		},
		{
			"bufferView":79,
			"componentType":5123,
			"count":1422,
			"type":"SCALAR"
		},
		{
			"bufferView":80,
			"componentType":5126,
			"count":171,
			"max":[
				0.008958311751484871,
				0.23741845786571503,
				0.00012500750017352402
			],
			"min":[
				-0.008976759389042854,
				-3.74748720943785e-09,
				-0.1632363647222519
			],
			"type":"VEC3"
		},
		{
			"bufferView":81,
			"componentType":5126,
			"count":171,
			"type":"VEC3"
		},
		{
			"bufferView":82,
			"componentType":5126,
			"count":171,
			"type":"VEC2"
		},
		{
			"bufferView":83,
			"componentType":5123,
			"count":405,
			"type":"SCALAR"
		},
		{
			"bufferView":84,
			"componentType":5126,
			"count":855,
			"max":[
				0.006063769571483135,
				0.2335481494665146,
				-0.0009089915547519922
			],
			"min":[
				-0.006357812788337469,
				0.006047477480024099,
				-0.15942440927028656
			],
			"type":"VEC3"
		},
		{
			"bufferView":85,
			"componentType":5126,
			"count":855,
			"type":"VEC3"
		},
		{
			"bufferView":86,
			"componentType":5126,
			"count":855,
			"type":"VEC2"
		},
		{
			"bufferView":87,
			"componentType":5123,
			"count":1392,
			"type":"SCALAR"
		},
		{
			"bufferView":88,
			"componentType":5126,
			"count":175,
			"max":[
				0.01136073563247919,
				0.23741817474365234,
				0.00033745987457223237
			],
			"min":[
				-0.011391451582312584,
				-3.0487239399690225e-08,
				-0.16324196755886078
			],
			"type":"VEC3"
		},
		{
			"bufferView":89,
			"componentType":5126,
			"count":175,
			"type":"VEC3"
		},
		{
			"bufferView":90,
			"componentType":5126,
			"count":175,
			"type":"VEC2"
		},
		{
			"bufferView":91,
			"componentType":5123,
			"count":411,
			"type":"SCALAR"
		},
		{
			"bufferView":92,
			"componentType":5126,
			"count":943,
			"max":[
				0.00846916250884533,
				0.2335486263036728,
				-0.0009197068866342306
			],
			"min":[
				-0.008802840486168861,
				0.006047489587217569,
				-0.15933741629123688
			],
			"type":"VEC3"
		},
		{
			"bufferView":93,
			"componentType":5126,
			"count":943,
			"type":"VEC3"
		},
		{
			"bufferView":94,
			"componentType":5126,
			"count":943,
			"type":"VEC2"
		},
		{
			"bufferView":95,
			"componentType":5123,
			"count":1389,
			"type":"SCALAR"
		},
		{
			"bufferView":96,
			"componentType":5126,
			"count":155,
			"max":[
				0.01862703077495098,
				0.23741818964481354,
				0.00035147074959240854
			],
			"min":[
				-0.018250111490488052,
				-1.805831395529367e-08,
				-0.16324196755886078
			],
			"type":"VEC3"
		},
		{
			"bufferView":97,
			"componentType":5126,
			"count":155,
			"type":"VEC3"
		},
		{
			"bufferView":98,
			"componentType":5126,
			"count":155,
			"type":"VEC2"
		},
		{
			"bufferView":99,
			"componentType":5123,
			"count":357,
			"type":"SCALAR"
		},
		{
			"bufferView":100,
			"componentType":5126,
			"count":926,
			"max":[
				0.01551749836653471,
				0.2335481494665146,
				-0.0009197327308356762
			],
			"min":[
				-0.015735484659671783,
				0.006047477480024099,
				-0.15933741629123688
			],
			"type":"VEC3"
		},
		{
			"bufferView":101,
			"componentType":5126,
			"count":926,
			"type":"VEC3"
		},
		{
			"bufferView":102,
			"componentType":5126,
			"count":926,
			"type":"VEC2"
		},
		{
			"bufferView":103,
			"componentType":5123,
			"count":1440,
			"type":"SCALAR"
		},
		{
			"bufferView":104,
			"componentType":5126,
			"count":152,
			"max":[
				0.016677727922797203,
				0.23741818964481354,
				0.00035068116267211735
			],
			"min":[
				-0.01628226414322853,
				-1.864736809409351e-09,
				-0.16324196755886078
			],
			"type":"VEC3"
		},
		{
			"bufferView":105,
			"componentType":5126,
			"count":152,
			"type":"VEC3"
		},
		{
			"bufferView":106,
			"componentType":5126,
			"count":152,
			"type":"VEC2"
		},
		{
			"bufferView":107,
			"componentType":5123,
			"count":351,
			"type":"SCALAR"
		},
		{
			"bufferView":108,
			"componentType":5126,
			"count":928,
			"max":[
				0.013559875078499317,
				0.2335481494665146,
				-0.0009197409963235259
			],
			"min":[
				-0.013788290321826935,
				0.006047470029443502,
				-0.15933743119239807
			],
			"type":"VEC3"
		},
		{
			"bufferView":109,
			"componentType":5126,
			"count":928,
			"type":"VEC3"
		},
		{
			"bufferView":110,
			"componentType":5126,
			"count":928,
			"type":"VEC2"
		},
		{
			"bufferView":111,
			"componentType":5123,
			"count":1449,
			"type":"SCALAR"
		},
		{
			"bufferView":112,
			"componentType":5126,
			"count":153,
			"max":[
				0.017988650128245354,
				0.23741818964481354,
				0.00035543489502742887
			],
			"min":[
				-0.017644047737121582,
				-4.276256682089752e-09,
				-0.16324196755886078
			],
			"type":"VEC3"
		},
		{
			"bufferView":113,
			"componentType":5126,
			"count":153,
			"type":"VEC3"
		},
		{
			"bufferView":114,
			"componentType":5126,
			"count":153,
			"type":"VEC2"
		},
		{
			"bufferView":115,
			"componentType":5123,
			"count":351,
			"type":"SCALAR"
		},
		{
			"bufferView":116,
			"componentType":5126,
			"count":945,
			"max":[
				0.01481503527611494,
				0.2335481494665146,
				-0.0009197319159284234
			],
			"min":[
				-0.015422468073666096,
				0.00604747561737895,
				-0.15933741629123688
			],
			"type":"VEC3"
		},
		{
			"bufferView":117,
			"componentType":5126,
			"count":945,
			"type":"VEC3"
		},
		{
			"bufferView":118,
			"componentType":5126,
			"count":945,
			"type":"VEC2"
		},
		{
			"bufferView":119,
			"componentType":5123,
			"count":1449,
			"type":"SCALAR"
		},
		{
			"bufferView":120,
			"componentType":5126,
			"count":165,
			"max":[
				0.01273617148399353,
				0.23741817474365234,
				0.0003725919814314693
			],
			"min":[
				-0.012312645092606544,
				-1.7227506532435655e-08,
				-0.16324196755886078
			],
			"type":"VEC3"
		},
		{
			"bufferView":121,
			"componentType":5126,
			"count":165,
			"type":"VEC3"
		},
		{
			"bufferView":122,
			"componentType":5126,
			"count":165,
			"type":"VEC2"
		},
		{
			"bufferView":123,
			"componentType":5123,
			"count":387,
			"type":"SCALAR"
		},
		{
			"bufferView":124,
			"componentType":5126,
			"count":920,
			"max":[
				0.009693632833659649,
				0.2335483878850937,
				-0.0011779495980590582
			],
			"min":[
				-0.009595018811523914,
				0.006047477480024099,
				-0.15933741629123688
			],
			"type":"VEC3"
		},
		{
			"bufferView":125,
			"componentType":5126,
			"count":920,
			"type":"VEC3"
		},
		{
			"bufferView":126,
			"componentType":5126,
			"count":920,
			"type":"VEC2"
		},
		{
			"bufferView":127,
			"componentType":5123,
			"count":1410,
			"type":"SCALAR"
		},
		{
			"bufferView":128,
			"componentType":5126,
			"count":149,
			"max":[
				0.01839311793446541,
				0.23741817474365234,
				0.0003763387503568083
			],
			"min":[
				-0.017821267247200012,
				-1.3348352467801305e-07,
				-0.16324196755886078
			],
			"type":"VEC3"
		},
		{
			"bufferView":129,
			"componentType":5126,
			"count":149,
			"type":"VEC3"
		},
		{
			"bufferView":130,
			"componentType":5126,
			"count":149,
			"type":"VEC2"
		},
		{
			"bufferView":131,
			"componentType":5123,
			"count":330,
			"type":"SCALAR"
		},
		{
			"bufferView":132,
			"componentType":5126,
			"count":889,
			"max":[
				0.01507062092423439,
				0.2335481494665146,
				-0.0009197320905514061
			],
			"min":[
				-0.015397505834698677,
				0.006047463975846767,
				-0.15942440927028656
			],
			"type":"VEC3"
		},
		{
			"bufferView":133,
			"componentType":5126,
			"count":889,
			"type":"VEC3"
		},
		{
			"bufferView":134,
			"componentType":5126,
			"count":889,
			"type":"VEC2"
		},
		{
			"bufferView":135,
			"componentType":5123,
			"count":1467,
			"type":"SCALAR"
		},
		{
			"bufferView":136,
			"componentType":5126,
			"count":165,
			"max":[
				0.011479159817099571,
				0.23741817474365234,
				0.00037048623198643327
			],
			"min":[
				-0.010904526337981224,
				-1.3263134590602021e-08,
				-0.16324196755886078
			],
			"type":"VEC3"
		},
		{
			"bufferView":137,
			"componentType":5126,
			"count":165,
			"type":"VEC3"
		},
		{
			"bufferView":138,
			"componentType":5126,
			"count":165,
			"type":"VEC2"
		},
		{
			"bufferView":139,
			"componentType":5123,
			"count":348,
			"type":"SCALAR"
		},
		{
			"bufferView":140,
			"componentType":5126,
			"count":919,
			"max":[
				0.008139523677527905,
				0.23354887962341309,
				-0.0009197152103297412
			],
			"min":[
				-0.00838317722082138,
				0.006047477480024099,
				-0.15933743119239807
			],
			"type":"VEC3"
		},
		{
			"bufferView":141,
			"componentType":5126,
			"count":919,
			"type":"VEC3"
		},
		{
			"bufferView":142,
			"componentType":5126,
			"count":919,
			"type":"VEC2"
		},
		{
			"bufferView":143,
			"componentType":5123,
			"count":1452,
			"type":"SCALAR"
		},
		{
			"bufferView":144,
			"componentType":5126,
			"count":158,
			"max":[
				0.009595537558197975,
				0.23741817474365234,
				8.28616539365612e-05
			],
			"min":[
				-0.00960686057806015,
				-6.852386746913908e-08,
				-0.16324196755886078
			],
			"type":"VEC3"
		},
		{
			"bufferView":145,
			"componentType":5126,
			"count":158,
			"type":"VEC3"
		},
		{
			"bufferView":146,
			"componentType":5126,
			"count":158,
			"type":"VEC2"
		},
		{
			"bufferView":147,
			"componentType":5123,
			"count":369,
			"type":"SCALAR"
		},
		{
			"bufferView":148,
			"componentType":5126,
			"count":921,
			"max":[
				0.006743347272276878,
				0.233548104763031,
				-0.0009090033709071577
			],
			"min":[
				-0.007032106630504131,
				0.006047477480024099,
				-0.15933743119239807
			],
			"type":"VEC3"
		},
		{
			"bufferView":149,
			"componentType":5126,
			"count":921,
			"type":"VEC3"
		},
		{
			"bufferView":150,
			"componentType":5126,
			"count":921,
			"type":"VEC2"
		},
		{
			"bufferView":151,
			"componentType":5123,
			"count":1428,
			"type":"SCALAR"
		},
		{
			"bufferView":152,
			"componentType":5126,
			"count":164,
			"max":[
				0.011898240074515343,
				0.23741817474365234,
				0.00036987243220210075
			],
			"min":[
				-0.011888096109032631,
				-1.314582220857119e-08,
				-0.16324196755886078
			],
			"type":"VEC3"
		},
		{
			"bufferView":153,
			"componentType":5126,
			"count":164,
			"type":"VEC3"
		},
		{
			"bufferView":154,
			"componentType":5126,
			"count":164,
			"type":"VEC2"
		},
		{
			"bufferView":155,
			"componentType":5123,
			"count":384,
			"type":"SCALAR"
		},
		{
			"bufferView":156,
			"componentType":5126,
			"count":900,
			"max":[
				0.009166238829493523,
				0.2335481494665146,
				-0.0009197227191179991
			],
			"min":[
				-0.009144631214439869,
				0.006047477480024099,
				-0.15933743119239807
			],
			"type":"VEC3"
		},
		{
			"bufferView":157,
			"componentType":5126,
			"count":900,
			"type":"VEC3"
		},
		{
			"bufferView":158,
			"componentType":5126,
			"count":900,
			"type":"VEC2"
		},
		{
			"bufferView":159,
			"componentType":5123,
			"count":1413,
			"type":"SCALAR"
		}
	],
	"bufferViews":[
		{
			"buffer":0,
			"byteLength":1536,
			"byteOffset":0,
			"target":34962
		},
		{
			"buffer":0,
			"byteLength":1536,
			"byteOffset":1536,
			"target":34962
		},
		{
			"buffer":0,
			"byteLength":1024,
			"byteOffset":3072,
			"target":34962
		},
		{
			"buffer":0,
			"byteLength":594,
			"byteOffset":4096,
			"target":34963
		},
		{
			"buffer":0,
			"byteLength":11484,
			"byteOffset":4692,
			"target":34962
		},
		{
			"buffer":0,
			"byteLength":11484,
			"byteOffset":16176,
			"target":34962
		},
		{
			"buffer":0,
			"byteLength":7656,
			"byteOffset":27660,
			"target":34962
		},
		{
			"buffer":0,
			"byteLength":3000,
			"byteOffset":35316,
			"target":34963
		},
		{
			"buffer":0,
			"byteLength":1560,
			"byteOffset":38316,
			"target":34962
		},
		{
			"buffer":0,
			"byteLength":1560,
			"byteOffset":39876,
			"target":34962
		},
		{
			"buffer":0,
			"byteLength":1040,
			"byteOffset":41436,
			"target":34962
		},
		{
			"buffer":0,
			"byteLength":630,
			"byteOffset":42476,
			"target":34963
		},
		{
			"buffer":0,
			"byteLength":11784,
			"byteOffset":43108,
			"target":34962
		},
		{
			"buffer":0,
			"byteLength":11784,
			"byteOffset":54892,
			"target":34962
		},
		{
			"buffer":0,
			"byteLength":7856,
			"byteOffset":66676,
			"target":34962
		},
		{
			"buffer":0,
			"byteLength":2970,
			"byteOffset":74532,
			"target":34963
		},
		{
			"buffer":0,
			"byteLength":1812,
			"byteOffset":77504,
			"target":34962
		},
		{
			"buffer":0,
			"byteLength":1812,
			"byteOffset":79316,
			"target":34962
		},
		{
			"buffer":0,
			"byteLength":1208,
			"byteOffset":81128,
			"target":34962
		},
		{
			"buffer":0,
			"byteLength":726,
			"byteOffset":82336,
			"target":34963
		},
		{
			"buffer":0,
			"byteLength":11472,
			"byteOffset":83064,
			"target":34962
		},
		{
			"buffer":0,
			"byteLength":11472,
			"byteOffset":94536,
			"target":34962
		},
		{
			"buffer":0,
			"byteLength":7648,
			"byteOffset":106008,
			"target":34962
		},
		{
			"buffer":0,
			"byteLength":2874,
			"byteOffset":113656,
			"target":34963
		},
		{
			"buffer":0,
			"byteLength":2112,
			"byteOffset":116532,
			"target":34962
		},
		{
			"buffer":0,
			"byteLength":2112,
			"byteOffset":118644,
			"target":34962
		},
		{
			"buffer":0,
			"byteLength":1408,
			"byteOffset":120756,
			"target":34962
		},
		{
			"buffer":0,
			"byteLength":810,
			"byteOffset":122164,
			"target":34963
		},
		{
			"buffer":0,
			"byteLength":11184,
			"byteOffset":122976,
			"target":34962
		},
		{
			"buffer":0,
			"byteLength":11184,
			"byteOffset":134160,
			"target":34962
		},
		{
			"buffer":0,
			"byteLength":7456,
			"byteOffset":145344,
			"target":34962
		},
		{
			"buffer":0,
			"byteLength":2790,
			"byteOffset":152800,
			"target":34963
		},
		{
			"buffer":0,
			"byteLength":2376,
			"byteOffset":155592,
			"target":34962
		},
		{
			"buffer":0,
			"byteLength":2376,
			"byteOffset":157968,
			"target":34962
		},
		{
			"buffer":0,
			"byteLength":1584,
			"byteOffset":160344,
			"target":34962
		},
		{
			"buffer":0,
			"byteLength":888,
			"byteOffset":161928,
			"target":34963
		},
		{
			"buffer":0,
			"byteLength":11052,
			"byteOffset":162816,
			"target":34962
		},
		{
			"buffer":0,
			"byteLength":11052,
			"byteOffset":173868,
			"target":34962
		},
		{
			"buffer":0,
			"byteLength":7368,
			"byteOffset":184920,
			"target":34962
		},
		{
			"buffer":0,
			"byteLength":2706,
			"byteOffset":192288,
			"target":34963
		},
		{
			"buffer":0,
			"byteLength":1920,
			"byteOffset":194996,
			"target":34962
		},
		{
			"buffer":0,
			"byteLength":1920,
			"byteOffset":196916,
			"target":34962
		},
		{
			"buffer":0,
			"byteLength":1280,
			"byteOffset":198836,
			"target":34962
		},
		{
			"buffer":0,
			"byteLength":774,
			"byteOffset":200116,
			"target":34963
		},
		{
			"buffer":0,
			"byteLength":10956,
			"byteOffset":200892,
			"target":34962
		},
		{
			"buffer":0,
			"byteLength":10956,
			"byteOffset":211848,
			"target":34962
		},
		{
			"buffer":0,
			"byteLength":7304,
			"byteOffset":222804,
			"target":34962
		},
		{
			"buffer":0,
			"byteLength":2826,
			"byteOffset":230108,
			"target":34963
		},
		{
			"buffer":0,
			"byteLength":1992,
			"byteOffset":232936,
			"target":34962
		},
		{
			"buffer":0,
			"byteLength":1992,
			"byteOffset":234928,
			"target":34962
		},
		{
			"buffer":0,
			"byteLength":1328,
			"byteOffset":236920,
			"target":34962
		},
		{
			"buffer":0,
			"byteLength":780,
			"byteOffset":238248,
			"target":34963
		},
		{
			"buffer":0,
			"byteLength":10908,
			"byteOffset":239028,
			"target":34962
		},
		{
			"buffer":0,
			"byteLength":10908,
			"byteOffset":249936,
			"target":34962
		},
		{
			"buffer":0,
			"byteLength":7272,
			"byteOffset":260844,
			"target":34962
		},
		{
			"buffer":0,
			"byteLength":2820,
			"byteOffset":268116,
			"target":34963
		},
		{
			"buffer":0,
			"byteLength":1956,
			"byteOffset":270936,
			"target":34962
		},
		{
			"buffer":0,
			"byteLength":1956,
			"byteOffset":272892,
			"target":34962
		},
		{
			"buffer":0,
			"byteLength":1304,
			"byteOffset":274848,
			"target":34962
		},
		{
			"buffer":0,
			"byteLength":786,
			"byteOffset":276152,
			"target":34963
		},
		{
			"buffer":0,
			"byteLength":10884,
			"byteOffset":276940,
			"target":34962
		},
		{
			"buffer":0,
			"byteLength":10884,
			"byteOffset":287824,
			"target":34962
		},
		{
			"buffer":0,
			"byteLength":7256,
			"byteOffset":298708,
			"target":34962
		},
		{
			"buffer":0,
			"byteLength":2814,
			"byteOffset":305964,
			"target":34963
		},
		{
			"buffer":0,
			"byteLength":1920,
			"byteOffset":308780,
			"target":34962
		},
		{
			"buffer":0,
			"byteLength":1920,
			"byteOffset":310700,
			"target":34962
		},
		{
			"buffer":0,
			"byteLength":1280,
			"byteOffset":312620,
			"target":34962
		},
		{
			"buffer":0,
			"byteLength":762,
			"byteOffset":313900,
			"target":34963
		},
		{
			"buffer":0,
			"byteLength":10644,
			"byteOffset":314664,
			"target":34962
		},
		{
			"buffer":0,
			"byteLength":10644,
			"byteOffset":325308,
			"target":34962
		},
		{
			"buffer":0,
			"byteLength":7096,
			"byteOffset":335952,
			"target":34962
		},
		{
			"buffer":0,
			"byteLength":2832,
			"byteOffset":343048,
			"target":34963
		},
		{
			"buffer":0,
			"byteLength":1848,
			"byteOffset":345880,
			"target":34962
		},
		{
			"buffer":0,
			"byteLength":1848,
			"byteOffset":347728,
			"target":34962
		},
		{
			"buffer":0,
			"byteLength":1232,
			"byteOffset":349576,
			"target":34962
		},
		{
			"buffer":0,
			"byteLength":756,
			"byteOffset":350808,
			"target":34963
		},
		{
			"buffer":0,
			"byteLength":11016,
			"byteOffset":351564,
			"target":34962
		},
		{
			"buffer":0,
			"byteLength":11016,
			"byteOffset":362580,
			"target":34962
		},
		{
			"buffer":0,
			"byteLength":7344,
			"byteOffset":373596,
			"target":34962
		},
		{
			"buffer":0,
			"byteLength":2844,
			"byteOffset":380940,
			"target":34963
		},
		{
			"buffer":0,
			"byteLength":2052,
			"byteOffset":383784,
			"target":34962
		},
		{
			"buffer":0,
			"byteLength":2052,
			"byteOffset":385836,
			"target":34962
		},
		{
			"buffer":0,
			"byteLength":1368,
			"byteOffset":387888,
			"target":34962
		},
		{
			"buffer":0,
			"byteLength":810,
			"byteOffset":389256,
			"target":34963
		},
		{
			"buffer":0,
			"byteLength":10260,
			"byteOffset":390068,
			"target":34962
		},
		{
			"buffer":0,
			"byteLength":10260,
			"byteOffset":400328,
			"target":34962
		},
		{
			"buffer":0,
			"byteLength":6840,
			"byteOffset":410588,
			"target":34962
		},
		{
			"buffer":0,
			"byteLength":2784,
			"byteOffset":417428,
			"target":34963
		},
		{
			"buffer":0,
			"byteLength":2100,
			"byteOffset":420212,
			"target":34962
		},
		{
			"buffer":0,
			"byteLength":2100,
			"byteOffset":422312,
			"target":34962
		},
		{
			"buffer":0,
			"byteLength":1400,
			"byteOffset":424412,
			"target":34962
		},
		{
			"buffer":0,
			"byteLength":822,
			"byteOffset":425812,
			"target":34963
		},
		{
			"buffer":0,
			"byteLength":11316,
			"byteOffset":426636,
			"target":34962
		},
		{
			"buffer":0,
			"byteLength":11316,
			"byteOffset":437952,
			"target":34962
		},
		{
			"buffer":0,
			"byteLength":7544,
			"byteOffset":449268,
			"target":34962
		},
		{
			"buffer":0,
			"byteLength":2778,
			"byteOffset":456812,
			"target":34963
		},
		{
			"buffer":0,
			"byteLength":1860,
			"byteOffset":459592,
			"target":34962
		},
		{
			"buffer":0,
			"byteLength":1860,
			"byteOffset":461452,
			"target":34962
		},
		{
			"buffer":0,
			"byteLength":1240,
			"byteOffset":463312,
			"target":34962
		},
		{
			"buffer":0,
			"byteLength":714,
			"byteOffset":464552,
			"target":34963
		},
		{
			"buffer":0,
			"byteLength":11112,
			"byteOffset":465268,
			"target":34962
		},
		{
			"buffer":0,
			"byteLength":11112,
			"byteOffset":476380,
			"target":34962
		},
		{
			"buffer":0,
			"byteLength":7408,
			"byteOffset":487492,
			"target":34962
		},
		{
			"buffer":0,
			"byteLength":2880,
			"byteOffset":494900,
			"target":34963
		},
		{
			"buffer":0,
			"byteLength":1824,
			"byteOffset":497780,
			"target":34962
		},
		{
			"buffer":0,
			"byteLength":1824,
			"byteOffset":499604,
			"target":34962
		},
		{
			"buffer":0,
			"byteLength":1216,
			"byteOffset":501428,
			"target":34962
		},
		{
			"buffer":0,
			"byteLength":702,
			"byteOffset":502644,
			"target":34963
		},
		{
			"buffer":0,
			"byteLength":11136,
			"byteOffset":503348,
			"target":34962
		},
		{
			"buffer":0,
			"byteLength":11136,
			"byteOffset":514484,
			"target":34962
		},
		{
			"buffer":0,
			"byteLength":7424,
			"byteOffset":525620,
			"target":34962
		},
		{
			"buffer":0,
			"byteLength":2898,
			"byteOffset":533044,
			"target":34963
		},
		{
			"buffer":0,
			"byteLength":1836,
			"byteOffset":535944,
			"target":34962
		},
		{
			"buffer":0,
			"byteLength":1836,
			"byteOffset":537780,
			"target":34962
		},
		{
			"buffer":0,
			"byteLength":1224,
			"byteOffset":539616,
			"target":34962
		},
		{
			"buffer":0,
			"byteLength":702,
			"byteOffset":540840,
			"target":34963
		},
		{
			"buffer":0,
			"byteLength":11340,
			"byteOffset":541544,
			"target":34962
		},
		{
			"buffer":0,
			"byteLength":11340,
			"byteOffset":552884,
			"target":34962
		},
		{
			"buffer":0,
			"byteLength":7560,
			"byteOffset":564224,
			"target":34962
		},
		{
			"buffer":0,
			"byteLength":2898,
			"byteOffset":571784,
			"target":34963
		},
		{
			"buffer":0,
			"byteLength":1980,
			"byteOffset":574684,
			"target":34962
		},
		{
			"buffer":0,
			"byteLength":1980,
			"byteOffset":576664,
			"target":34962
		},
		{
			"buffer":0,
			"byteLength":1320,
			"byteOffset":578644,
			"target":34962
		},
		{
			"buffer":0,
			"byteLength":774,
			"byteOffset":579964,
			"target":34963
		},
		{
			"buffer":0,
			"byteLength":11040,
			"byteOffset":580740,
			"target":34962
		},
		{
			"buffer":0,
			"byteLength":11040,
			"byteOffset":591780,
			"target":34962
		},
		{
			"buffer":0,
			"byteLength":7360,
			"byteOffset":602820,
			"target":34962
		},
		{
			"buffer":0,
			"byteLength":2820,
			"byteOffset":610180,
			"target":34963
		},
		{
			"buffer":0,
			"byteLength":1788,
			"byteOffset":613000,
			"target":34962
		},
		{
			"buffer":0,
			"byteLength":1788,
			"byteOffset":614788,
			"target":34962
		},
		{
			"buffer":0,
			"byteLength":1192,
			"byteOffset":616576,
			"target":34962
		},
		{
			"buffer":0,
			"byteLength":660,
			"byteOffset":617768,
			"target":34963
		},
		{
			"buffer":0,
			"byteLength":10668,
			"byteOffset":618428,
			"target":34962
		},
		{
			"buffer":0,
			"byteLength":10668,
			"byteOffset":629096,
			"target":34962
		},
		{
			"buffer":0,
			"byteLength":7112,
			"byteOffset":639764,
			"target":34962
		},
		{
			"buffer":0,
			"byteLength":2934,
			"byteOffset":646876,
			"target":34963
		},
		{
			"buffer":0,
			"byteLength":1980,
			"byteOffset":649812,
			"target":34962
		},
		{
			"buffer":0,
			"byteLength":1980,
			"byteOffset":651792,
			"target":34962
		},
		{
			"buffer":0,
			"byteLength":1320,
			"byteOffset":653772,
			"target":34962
		},
		{
			"buffer":0,
			"byteLength":696,
			"byteOffset":655092,
			"target":34963
		},
		{
			"buffer":0,
			"byteLength":11028,
			"byteOffset":655788,
			"target":34962
		},
		{
			"buffer":0,
			"byteLength":11028,
			"byteOffset":666816,
			"target":34962
		},
		{
			"buffer":0,
			"byteLength":7352,
			"byteOffset":677844,
			"target":34962
		},
		{
			"buffer":0,
			"byteLength":2904,
			"byteOffset":685196,
			"target":34963
		},
		{
			"buffer":0,
			"byteLength":1896,
			"byteOffset":688100,
			"target":34962
		},
		{
			"buffer":0,
			"byteLength":1896,
			"byteOffset":689996,
			"target":34962
		},
		{
			"buffer":0,
			"byteLength":1264,
			"byteOffset":691892,
			"target":34962
		},
		{
			"buffer":0,
			"byteLength":738,
			"byteOffset":693156,
			"target":34963
		},
		{
			"buffer":0,
			"byteLength":11052,
			"byteOffset":693896,
			"target":34962
		},
		{
			"buffer":0,
			"byteLength":11052,
			"byteOffset":704948,
			"target":34962
		},
		{
			"buffer":0,
			"byteLength":7368,
			"byteOffset":716000,
			"target":34962
		},
		{
			"buffer":0,
			"byteLength":2856,
			"byteOffset":723368,
			"target":34963
		},
		{
			"buffer":0,
			"byteLength":1968,
			"byteOffset":726224,
			"target":34962
		},
		{
			"buffer":0,
			"byteLength":1968,
			"byteOffset":728192,
			"target":34962
		},
		{
			"buffer":0,
			"byteLength":1312,
			"byteOffset":730160,
			"target":34962
		},
		{
			"buffer":0,
			"byteLength":768,
			"byteOffset":731472,
			"target":34963
		},
		{
			"buffer":0,
			"byteLength":10800,
			"byteOffset":732240,
			"target":34962
		},
		{
			"buffer":0,
			"byteLength":10800,
			"byteOffset":743040,
			"target":34962
		},
		{
			"buffer":0,
			"byteLength":7200,
			"byteOffset":753840,
			"target":34962
		},
		{
			"buffer":0,
			"byteLength":2826,
			"byteOffset":761040,
			"target":34963
		}
	],
	"samplers":[
		{
			"magFilter":9729,
			"minFilter":9987
		}
	],
	"buffers":[
		{
			"byteLength":763868,
			"uri":"book_encyclopedia_set_01.bin"
		}
	]
}
