{
	"asset":{
		"generator":"Khronos glTF Blender I/O v5.2.40",
		"version":"2.0"
	},
	"scene":0,
	"scenes":[
		{
			"name":"Scene",
			"nodes":[
				0
			]
		}
	],
	"nodes":[
		{
			"mesh":0,
			"name":"coffee_table_round_01"
		}
	],
	"materials":[
		{
			"doubleSided":true,
			"name":"coffee_table_round_01",
			"normalTexture":{
				"index":0
			},
			"pbrMetallicRoughness":{
				"baseColorTexture":{
					"index":1
				},
				"metallicRoughnessTexture":{
					"index":2
				}
			}
		}
	],
	"meshes":[
		{
			"name":"Plane.001",
			"primitives":[
				{
					"attributes":{
						"POSITION":0,
						"NORMAL":1,
						"TEXCOORD_0":2
					},
					"indices":3,
					"material":0
				}
			]
		}
	],
	"textures":[
		{
			"sampler":0,
			"source":0
		},
		{
			"sampler":0,
			"source":1
		},
		{
			"sampler":0,
			"source":2
		}
	],
	"images":[
		{
			"mimeType":"image/jpeg",
			"name":"coffee_table_round_01_nor_gl.png",
			"uri":"textures/coffee_table_round_01_nor_gl_1k.jpg"
		},
		{
			"mimeType":"image/jpeg",
			"name":"coffee_table_round_01_diff.png",
			"uri":"textures/coffee_table_round_01_diff_1k.jpg"
		},
		{
			"mimeType":"image/jpeg",
			"name":"coffee_table_round_01_metal.png-coffee_table_round_01_rough.png",
			"uri":"textures/coffee_table_round_01_arm_1k.jpg"
		}
	],
	"accessors":[
		{
			"bufferView":0,
			"componentType":5126,
			"count":2740,
			"max":[
				0.6506503820419312,
				0.4896194338798523,
				0.6506507992744446
			],
			"min":[
				-0.6506505608558655,
				-0.001465010573156178,
				-0.6506507992744446
			],
			"type":"VEC3"
		},
		{
			"bufferView":1,
			"componentType":5126,
			"count":2740,
			"type":"VEC3"
		},
		{
			"bufferView":2,
			"componentType":5126,
			"count":2740,
			"type":"VEC2"
		},
		{
			"bufferView":3,
			"componentType":5123,
			"count":8997,
			"type":"SCALAR"
		}
	],
	"bufferViews":[
		{
			"buffer":0,
			"byteLength":32880,
			"byteOffset":0,
			"target":34962
		},
		{
			"buffer":0,
			"byteLength":32880,
			"byteOffset":32880,
			"target":34962
		},
		{
			"buffer":0,
			"byteLength":21920,
			"byteOffset":65760,
			"target":34962
		},
		{
			"buffer":0,
			"byteLength":17994,
			"byteOffset":87680,
			"target":34963
		}
	],
	"samplers":[
		{
			"magFilter":9729,
			"minFilter":9987
		}
	],
	"buffers":[
		{
			"byteLength":105676,
			"uri":"coffee_table_round_01.bin"
		}
	]
}
