{
	"asset":{
		"generator":"Khronos glTF Blender I/O v5.2.40",
		"version":"2.0"
	},
	"scene":0,
	"scenes":[
		{
			"name":"Scene",
			"nodes":[
				0,
				1
			]
		}
	],
	"nodes":[
		{
			"mesh":0,
			"name":"throw_pillows_01_pillow01",
			"rotation":[
				0.6637973189353943,
				-0.2436661422252655,
				0.24366618692874908,
				0.6637971997261047
			],
			"translation":[
				-0.2664976716041565,
				0,
				0.11120378226041794
			]
		},
		{
			"mesh":1,
			"name":"throw_pillows_01_pillow02",
			"rotation":[
				0.7003336548805237,
				-0.09763631969690323,
				0.09763632714748383,
				0.7003335952758789
			],
			"translation":[
				0.2327585220336914,
				0,
				-0.024794653058052063
			]
		}
	],
	"materials":[
		{
			"doubleSided":true,
			"name":"throw_pillows_01",
			"normalTexture":{
				"index":0
			},
			"pbrMetallicRoughness":{
				"baseColorTexture":{
					"index":1
				},
				"metallicFactor":0,
				"metallicRoughnessTexture":{
					"index":2
				}
			}
		}
	],
	"meshes":[
		{
			"name":"Plane.006",
			"primitives":[
				{
					"attributes":{
						"POSITION":0,
						"NORMAL":1,
						"TEXCOORD_0":2
					},
					"indices":3,
					"material":0
				}
			]
		},
		{
			"name":"Plane.005",
			"primitives":[
				{
					"attributes":{
						"POSITION":4,
						"NORMAL":5,
						"TEXCOORD_0":6
					},
					"indices":7,
					"material":0
				}
			]
		}
	],
	"textures":[
		{
			"sampler":0,
			"source":0
		},
		{
			"sampler":0,
			"source":1
		},
		{
			"sampler":0,
			"source":2
		}
	],
	"images":[
		{
			"mimeType":"image/jpeg",
			"name":"throw_pillows_01_nor_gl",
			"uri":"textures/throw_pillows_01_nor_gl_1k.jpg"
		},
		{
			"mimeType":"image/jpeg",
			"name":"throw_pillows_01_diff",
			"uri":"textures/throw_pillows_01_diff_1k.jpg"
		},
		{
			"mimeType":"image/jpeg",
			"name":"throw_pillows_01_rough",
			"uri":"textures/throw_pillows_01_rough_1k.jpg"
		}
	],
	"accessors":[
		{
			"bufferView":0,
			"componentType":5126,
			"count":1597,
			"max":[
				0.32447487115859985,
				0.08450961112976074,
				0.0021050451323390007
			],
			"min":[
				-0.2405896931886673,
				-0.2589276134967804,
				-0.4480541944503784
			],
			"type":"VEC3"
		},
		{
			"bufferView":1,
			"componentType":5126,
			"count":1597,
			"type":"VEC3"
		},
		{
			"bufferView":2,
			"componentType":5126,
			"count":1597,
			"type":"VEC2"
		},
		{
			"bufferView":3,
			"componentType":5123,
			"count":8997,
			"type":"SCALAR"
		},
		{
			"bufferView":4,
			"componentType":5126,
			"count":1591,
			"max":[
				0.2599124312400818,
				0.16153106093406677,
				0.0013513441663235426
			],
			"min":[
				-0.25888463854789734,
				-0.12497694790363312,
				-0.44124239683151245
			],
			"type":"VEC3"
		},
		{
			"bufferView":5,
			"componentType":5126,
			"count":1591,
			"type":"VEC3"
		},
		{
			"bufferView":6,
			"componentType":5126,
			"count":1591,
			"type":"VEC2"
		},
		{
			"bufferView":7,
			"componentType":5123,
			"count":9000,
			"type":"SCALAR"
		}
	],
	"bufferViews":[
		{
			"buffer":0,
			"byteLength":19164,
			"byteOffset":0,
			"target":34962
		},
		{
			"buffer":0,
			"byteLength":19164,
			"byteOffset":19164,
			"target":34962
		},
		{
			"buffer":0,
			"byteLength":12776,
			"byteOffset":38328,
			"target":34962
		},
		{
			"buffer":0,
			"byteLength":17994,
			"byteOffset":51104,
			"target":34963
		},
		{
			"buffer":0,
			"byteLength":19092,
			"byteOffset":69100,
			"target":34962
		},
		{
			"buffer":0,
			"byteLength":19092,
			"byteOffset":88192,
			"target":34962
		},
		{
			"buffer":0,
			"byteLength":12728,
			"byteOffset":107284,
			"target":34962
		},
		{
			"buffer":0,
			"byteLength":18000,
			"byteOffset":120012,
			"target":34963
		}
	],
	"samplers":[
		{
			"magFilter":9729,
			"minFilter":9987
		}
	],
	"buffers":[
		{
			"byteLength":138012,
			"uri":"throw_pillows_01.bin"
		}
	]
}
