{
	"asset":{
		"generator":"Khronos glTF Blender I/O v5.2.40",
		"version":"2.0"
	},
	"scene":0,
	"scenes":[
		{
			"name":"Scene",
			"nodes":[
				0,
				1,
				2
			]
		}
	],
	"nodes":[
		{
			"mesh":0,
			"name":"gallinera_table"
		},
		{
			"mesh":1,
			"name":"gallinera_table_door_a"
		},
		{
			"mesh":2,
			"name":"gallinera_table_door_b"
		}
	],
	"materials":[
		{
			"doubleSided":true,
			"name":"gallinera_table",
			"normalTexture":{
				"index":0
			},
			"pbrMetallicRoughness":{
				"baseColorTexture":{
					"index":1
				},
				"metallicFactor":0,
				"metallicRoughnessTexture":{
					"index":2
				}
			}
		}
	],
	"meshes":[
		{
			"name":"Cube.005",
			"primitives":[
				{
					"attributes":{
						"POSITION":0,
						"NORMAL":1,
						"TEXCOORD_0":2
					},
					"indices":3,
					"material":0
				}
			]
		},
		{
			"name":"Cube.001",
			"primitives":[
				{
					"attributes":{
						"POSITION":4,
						"NORMAL":5,
						"TEXCOORD_0":6
					},
					"indices":7,
					"material":0
				}
			]
		},
		{
			"name":"Cube.002",
			"primitives":[
				{
					"attributes":{
						"POSITION":8,
						"NORMAL":9,
						"TEXCOORD_0":10
					},
					"indices":11,
					"material":0
				}
			]
		}
	],
	"textures":[
		{
			"sampler":0,
			"source":0
		},
		{
			"sampler":0,
			"source":1
		},
		{
			"sampler":0,
			"source":2
		}
	],
	"images":[
		{
			"mimeType":"image/jpeg",
			"name":"gallinera_table_nor_gl",
			"uri":"textures/gallinera_table_nor_gl_1k.jpg"
		},
		{
			"mimeType":"image/jpeg",
			"name":"gallinera_table_diff",
			"uri":"textures/gallinera_table_diff_1k.jpg"
		},
		{
			"mimeType":"image/jpeg",
			"name":"gallinera_table_rough",
			"uri":"textures/gallinera_table_arm_1k.jpg"
		}
	],
	"accessors":[
		{
			"bufferView":0,
			"componentType":5126,
			"count":3312,
			"max":[
				0.4150412976741791,
				0.4879893958568573,
				0.25901761651039124
			],
			"min":[
				-0.4150412380695343,
				0.0002452207845635712,
				-0.25901761651039124
			],
			"type":"VEC3"
		},
		{
			"bufferView":1,
			"componentType":5126,
			"count":3312,
			"type":"VEC3"
		},
		{
			"bufferView":2,
			"componentType":5126,
			"count":3312,
			"type":"VEC2"
		},
		{
			"bufferView":3,
			"componentType":5123,
			"count":9000,
			"type":"SCALAR"
		},
		{
			"bufferView":4,
			"componentType":5126,
			"count":284,
			"max":[
				0.11524398624897003,
				0.39795130491256714,
				0.2458086460828781
			],
			"min":[
				-0.12821489572525024,
				0.1031491830945015,
				0.21045450866222382
			],
			"type":"VEC3"
		},
		{
			"bufferView":5,
			"componentType":5126,
			"count":284,
			"type":"VEC3"
		},
		{
			"bufferView":6,
			"componentType":5126,
			"count":284,
			"type":"VEC2"
		},
		{
			"bufferView":7,
			"componentType":5123,
			"count":1056,
			"type":"SCALAR"
		},
		{
			"bufferView":8,
			"componentType":5126,
			"count":284,
			"max":[
				0.11524398624897003,
				0.39795130491256714,
				-0.21045450866222382
			],
			"min":[
				-0.12821489572525024,
				0.1031491830945015,
				-0.2458086460828781
			],
			"type":"VEC3"
		},
		{
			"bufferView":9,
			"componentType":5126,
			"count":284,
			"type":"VEC3"
		},
		{
			"bufferView":10,
			"componentType":5126,
			"count":284,
			"type":"VEC2"
		},
		{
			"bufferView":11,
			"componentType":5123,
			"count":1056,
			"type":"SCALAR"
		}
	],
	"bufferViews":[
		{
			"buffer":0,
			"byteLength":39744,
			"byteOffset":0,
			"target":34962
		},
		{
			"buffer":0,
			"byteLength":39744,
			"byteOffset":39744,
			"target":34962
		},
		{
			"buffer":0,
			"byteLength":26496,
			"byteOffset":79488,
			"target":34962
		},
		{
			"buffer":0,
			"byteLength":18000,
			"byteOffset":105984,
			"target":34963
		},
		{
			"buffer":0,
			"byteLength":3408,
			"byteOffset":123984,
			"target":34962
		},
		{
			"buffer":0,
			"byteLength":3408,
			"byteOffset":127392,
			"target":34962
		},
		{
			"buffer":0,
			"byteLength":2272,
			"byteOffset":130800,
			"target":34962
		},
		{
			"buffer":0,
			"byteLength":2112,
			"byteOffset":133072,
			"target":34963
		},
		{
			"buffer":0,
			"byteLength":3408,
			"byteOffset":135184,
			"target":34962
		},
		{
			"buffer":0,
			"byteLength":3408,
			"byteOffset":138592,
			"target":34962
		},
		{
			"buffer":0,
			"byteLength":2272,
			"byteOffset":142000,
			"target":34962
		},
		{
			"buffer":0,
			"byteLength":2112,
			"byteOffset":144272,
			"target":34963
		}
	],
	"samplers":[
		{
			"magFilter":9729,
			"minFilter":9987
		}
	],
	"buffers":[
		{
			"byteLength":146384,
			"uri":"gallinera_table.bin"
		}
	]
}
