{
	"asset":{
		"generator":"Khronos glTF Blender I/O v5.2.40",
		"version":"2.0"
	},
	"scene":0,
	"scenes":[
		{
			"name":"Scene",
			"nodes":[
				0
			]
		}
	],
	"nodes":[
		{
			"mesh":0,
			"name":"WoodenChair_01"
		}
	],
	"materials":[
		{
			"doubleSided":true,
			"name":"WoodenChair_01",
			"normalTexture":{
				"index":0
			},
			"pbrMetallicRoughness":{
				"baseColorTexture":{
					"index":1
				},
				"metallicRoughnessTexture":{
					"index":2
				}
			}
		}
	],
	"meshes":[
		{
			"name":"Cube.001",
			"primitives":[
				{
					"attributes":{
						"POSITION":0,
						"NORMAL":1,
						"TEXCOORD_0":2
					},
					"indices":3,
					"material":0
				}
			]
		}
	],
	"textures":[
		{
			"sampler":0,
			"source":0
		},
		{
			"sampler":0,
			"source":1
		},
		{
			"sampler":0,
			"source":2
		}
	],
	"images":[
		{
			"mimeType":"image/jpeg",
			"name":"WoodenChair_01_nor_gl",
			"uri":"textures/WoodenChair_01_nor_gl_1k.jpg"
		},
		{
			"mimeType":"image/jpeg",
			"name":"WoodenChair_01_diff",
			"uri":"textures/WoodenChair_01_diff_1k.jpg"
		},
		{
			"mimeType":"image/jpeg",
			"name":"WoodenChair_01_metallic-WoodenChair_01_roughness",
			"uri":"textures/WoodenChair_01_arm_1k.jpg"
		}
	],
	"accessors":[
		{
			"bufferView":0,
			"componentType":5126,
			"count":3072,
			"max":[
				0.3444995880126953,
				2.2724225521087646,
				0.28894978761672974
			],
			"min":[
				-0.3452250063419342,
				-0.0013669622130692005,
				-0.3671490550041199
			],
			"type":"VEC3"
		},
		{
			"bufferView":1,
			"componentType":5126,
			"count":3072,
			"type":"VEC3"
		},
		{
			"bufferView":2,
			"componentType":5126,
			"count":3072,
			"type":"VEC2"
		},
		{
			"bufferView":3,
			"componentType":5123,
			"count":9000,
			"type":"SCALAR"
		}
	],
	"bufferViews":[
		{
			"buffer":0,
			"byteLength":36864,
			"byteOffset":0,
			"target":34962
		},
		{
			"buffer":0,
			"byteLength":36864,
			"byteOffset":36864,
			"target":34962
		},
		{
			"buffer":0,
			"byteLength":24576,
			"byteOffset":73728,
			"target":34962
		},
		{
			"buffer":0,
			"byteLength":18000,
			"byteOffset":98304,
			"target":34963
		}
	],
	"samplers":[
		{
			"magFilter":9729,
			"minFilter":9987
		}
	],
	"buffers":[
		{
			"byteLength":116304,
			"uri":"WoodenChair_01.bin"
		}
	]
}
